<svg width="61" height="61" viewBox="0 0 61 61" fill="none" xmlns="http://www.w3.org/2000/svg">
<rect width="60.9352" height="60.9352" rx="3.85666" fill="#0D6B83"/>
<path d="M39.4473 31.0261L46.1629 24.4437C46.3191 24.2907 46.3191 23.9845 46.1629 23.8314C46.0068 23.6783 45.6944 23.6783 45.5382 23.8314L38.6664 30.5669C38.1979 31.0261 37.417 30.873 36.7923 30.4138C36.3237 29.9546 36.3237 29.1892 36.6361 28.7299C36.6361 28.7299 36.7923 28.7299 36.7923 28.5768L43.6641 21.8414C43.8203 21.6883 43.8203 21.3822 43.6641 21.2291C43.5079 21.076 43.1956 21.076 43.0394 21.2291L36.1676 27.9645C36.1676 27.9645 36.1676 28.1176 36.0114 28.1176C35.5429 28.4238 34.762 28.4238 34.2934 27.9645C33.8249 27.5053 33.8249 26.5868 34.2934 25.9745L41.1653 19.2391C41.3214 19.086 41.3214 18.7798 41.1653 18.6268C41.0091 18.4737 40.6967 18.4737 40.5405 18.6268L33.6687 25.3622L31.1699 27.8115C29.9205 29.0361 30.7014 31.3323 31.1699 32.2507L23.361 39.7516C23.2048 39.9046 23.0486 40.5169 23.2048 40.67L24.1419 41.5885C24.2981 41.7416 24.7666 41.5885 25.079 41.4354L32.7317 33.7815C33.5126 34.2407 36.0114 35.0061 37.2608 33.7815L39.4473 31.0261Z" fill="#A3D6D2"/>
<path d="M29.2802 28.7141L25.1987 24.7895C21.745 21.3359 16.7215 18.9812 15.1517 20.551C13.5819 22.1208 15.9366 27.1443 19.3903 30.5979L23.3149 34.5225C23.7858 34.9935 25.8266 34.0516 26.6115 33.5806L34.3037 41.4298C34.4607 41.5868 35.0886 41.7438 35.2456 41.5868L36.1875 40.6449C36.3445 40.4879 36.1875 40.017 36.0305 39.703L28.1813 32.0108C28.6523 31.2259 29.7512 29.1851 29.2802 28.7141Z" fill="#A3D6D2"/>
</svg>
