<svg width="61" height="61" viewBox="0 0 61 61" fill="none" xmlns="http://www.w3.org/2000/svg">
<rect width="60.9352" height="60.9352" rx="3.85666" fill="#0D6B83"/>
<path d="M40.9781 24.8855L41.3909 24.4702L42.423 23.4318L41.3909 22.3933L39.5333 20.5242L38.5012 19.4858L37.4692 20.5242L37.0564 20.9396C36.6175 21.3826 36.3385 21.9605 36.2637 22.5814C36.1889 23.2024 36.3226 23.8307 36.6435 24.3663L31.0705 29.8699L25.4975 24.2625L25.7039 23.951L24.9814 23.1202C26.7964 21.4911 28.7281 19.9987 30.7609 18.655C29.9352 17.9282 25.7039 20.1088 23.3302 22.0818L22.8141 21.5626L21.4725 22.8087L22.0917 23.3279C20.1308 25.7163 17.8603 29.9738 18.686 30.7007C20.0361 28.6988 21.5188 26.7908 23.1238 24.9894L23.9494 25.7163L24.1558 25.5086L29.832 31.116L26.2199 34.6466L24.0526 32.466L20.4404 36.1004C18.3763 38.1773 20.4404 41.5002 20.4404 41.5002C20.4404 41.5002 23.743 43.577 25.9103 41.5002L29.5224 37.8657L27.2519 35.6851L30.8641 32.0506L40.1525 41.3963L41.3909 40.1502L32.1025 30.8045L37.5724 25.3009C38.1048 25.6238 38.7292 25.7584 39.3463 25.6831C39.9634 25.6078 40.5378 25.3271 40.9781 24.8855ZM37.882 21.7703L38.2948 21.3549L40.5653 23.6394L40.1525 24.0548C40.0046 24.1804 39.8333 24.2748 39.6485 24.3324C39.4637 24.3901 39.2693 24.4098 39.0768 24.3904C38.8843 24.3711 38.6976 24.313 38.5278 24.2197C38.358 24.1263 38.2086 23.9997 38.0884 23.8471C37.9368 23.7262 37.8109 23.5758 37.7181 23.405C37.6254 23.2342 37.5677 23.0463 37.5484 22.8527C37.5292 22.659 37.5488 22.4634 37.6061 22.2774C37.6634 22.0915 37.7572 21.919 37.882 21.7703Z" fill="#A3D6D2"/>
</svg>
