<svg width="61" height="61" viewBox="0 0 61 61" fill="none" xmlns="http://www.w3.org/2000/svg">
<rect width="60.9352" height="60.9352" rx="3.85666" fill="#A3D6D2"/>
<path d="M40.9784 24.8855L41.3912 24.4702L42.4232 23.4318L41.3912 22.3933L39.5335 20.5242L38.5015 19.4858L37.4694 20.5242L37.0566 20.9396C36.6178 21.3826 36.3387 21.9605 36.2639 22.5814C36.1891 23.2024 36.3228 23.8307 36.6438 24.3663L31.0707 29.8699L25.4977 24.2625L25.7041 23.951L24.9817 23.1202C26.7966 21.4911 28.7283 19.9987 30.7611 18.655C29.9355 17.9282 25.7041 20.1088 23.3304 22.0818L22.8144 21.5626L21.4727 22.8087L22.092 23.3279C20.1311 25.7163 17.8606 29.9738 18.6862 30.7007C20.0364 28.6988 21.519 26.7908 23.124 24.9894L23.9496 25.7163L24.156 25.5086L29.8323 31.116L26.2201 34.6466L24.0528 32.466L20.4407 36.1004C18.3766 38.1773 20.4407 41.5002 20.4407 41.5002C20.4407 41.5002 23.7432 43.577 25.9105 41.5002L29.5227 37.8657L27.2522 35.6851L30.8643 32.0506L40.1527 41.3963L41.3912 40.1502L32.1028 30.8045L37.5726 25.3009C38.105 25.6238 38.7294 25.7584 39.3466 25.6831C39.9637 25.6078 40.5381 25.3271 40.9784 24.8855ZM37.8822 21.7703L38.295 21.3549L40.5655 23.6394L40.1527 24.0548C40.0049 24.1804 39.8335 24.2748 39.6487 24.3324C39.4639 24.3901 39.2695 24.4098 39.077 24.3904C38.8845 24.3711 38.6978 24.313 38.5281 24.2197C38.3583 24.1263 38.2088 23.9997 38.0886 23.8471C37.9371 23.7262 37.8111 23.5758 37.7184 23.405C37.6256 23.2342 37.5679 23.0463 37.5487 22.8527C37.5294 22.659 37.549 22.4634 37.6063 22.2774C37.6636 22.0915 37.7575 21.919 37.8822 21.7703Z" fill="#0D6B83"/>
</svg>
