<svg width="61" height="61" viewBox="0 0 61 61" fill="none" xmlns="http://www.w3.org/2000/svg">
<rect width="60.9352" height="60.9352" rx="3.85666" fill="#A3D6D2"/>
<path d="M27.9038 42V34.3444C27.9038 34.0569 28.1374 33.8233 28.4248 33.8233H32.5752C32.8626 33.8233 33.0962 34.0569 33.0962 34.3444V42H42.0258V29.9955C42.0258 29.708 42.2593 29.4744 42.5468 29.4744H44.5052C45.0622 29.4744 45.17 29.1868 44.7208 28.8454L30.8863 18.1348C30.6707 17.9551 30.2934 17.9551 30.0778 18.1348L16.2792 28.8633C15.83 29.2048 15.9378 29.4923 16.4948 29.4923H18.4532C18.4532 29.4923 18.5071 29.4923 18.5251 29.4923C18.7766 29.5283 18.9742 29.7439 18.9742 29.9955V42H27.9038Z" fill="#0D6B83"/>
</svg>
