<svg width="61" height="61" viewBox="0 0 61 61" fill="none" xmlns="http://www.w3.org/2000/svg">
<rect width="60.9352" height="60.9352" rx="3.85666" fill="#A3D6D2"/>
<path d="M17 36.0182C18.2855 36.0182 19.5266 35.5816 20.5165 34.7811L21.1667 34.2571L21.8168 34.7811C22.8067 35.5816 24.0479 36.0182 25.3333 36.0182C26.6188 36.0182 27.8599 35.5816 28.8499 34.7811L29.5 34.2571L30.1501 34.7811C31.1401 35.5816 32.3812 36.0182 33.6667 36.0182C34.9521 36.0182 36.1933 35.5816 37.1832 34.7811L37.8333 34.2571L38.4834 34.7811C39.4734 35.5816 40.7145 36.0182 42 36.0182V38.0121C40.5225 38.0121 39.0597 37.5755 37.8333 36.775C36.607 37.5755 35.1442 38.0121 33.6667 38.0121C32.1891 38.0121 30.7264 37.5755 29.5 36.775C28.2736 37.5755 26.8256 38.0121 25.3333 38.0121C23.841 38.0121 22.393 37.5755 21.1667 36.775C19.9403 37.5755 18.4775 38.0121 17 38.0121V36.0182H17ZM21.1667 40.7629C22.393 41.5634 23.8558 42 25.3333 42C26.8109 42 28.2736 41.5634 29.5 40.7629C30.7264 41.5634 32.1891 42 33.6667 42C35.1442 42 36.607 41.5634 37.8333 40.7629V38.2304L37.1832 38.7544C36.1933 39.5549 34.9521 39.9915 33.6667 39.9915C32.3812 39.9915 31.1401 39.5549 30.1501 38.7544L29.5 38.2304L28.8499 38.7544C27.8599 39.5549 26.6188 39.9915 25.3333 39.9915C24.0479 39.9915 22.8067 39.5549 21.8168 38.7544L21.1667 38.2304V40.7629ZM35.159 18L31.1253 23.5306L34.9226 23.0503L25.1413 34.5628L29.1602 26.1941L25.3777 26.8927L28.6726 18H35.159Z" fill="#0D6B83"/>
</svg>
