<svg width="61" height="61" viewBox="0 0 61 61" fill="none" xmlns="http://www.w3.org/2000/svg">
<rect width="60.9352" height="60.9352" rx="3.85666" fill="#A3D6D2"/>
<path d="M39.9575 35C37.7288 35 35.915 36.7913 35.915 38.9924C35.915 41.1935 37.7288 42.9848 39.9575 42.9848C42.1863 42.9848 44 41.1935 44 38.9924C44 36.7913 42.1863 35 39.9575 35ZM39.9575 40.3283C39.2197 40.3283 38.6049 39.7362 38.6049 38.9924C38.6049 38.2486 39.2197 37.6565 39.9575 37.6565C40.6953 37.6565 41.3101 38.2486 41.3101 38.9924C41.3101 39.7362 40.7107 40.3283 39.9575 40.3283ZM23.7568 29.6565C20.0218 29.6565 17.0091 32.6471 17.0091 36.3359C17.0091 40.0247 20.0218 43 23.7568 43C27.4919 43 30.5046 40.0247 30.5046 36.3359C30.5046 32.6471 27.4765 29.6717 23.7568 29.6717V29.6565ZM23.7568 38.5522C22.5118 38.5522 21.5127 37.5655 21.5127 36.3359C21.5127 35.1063 22.5272 34.1195 23.7568 34.1195C24.9865 34.1195 26.0009 35.1214 26.0009 36.3359C26.0009 37.5503 24.9865 38.5522 23.7568 38.5522ZM41.8635 28.7761H38.2667C38.2667 28.7761 38.2053 28.7457 38.2053 28.7154V23.7666C38.2053 23.5085 37.9901 23.2808 37.7134 23.2808H37.1447C36.8834 23.2808 36.6528 23.4934 36.6528 23.7666V28.7002C36.6528 28.7002 36.6221 28.7609 36.5913 28.7609H34.0859C34.0859 28.7609 34.0244 28.7457 34.0244 28.7154L30.4738 19.3036C30.4123 19.1214 30.2432 19 30.0588 19H20.1601C19.9449 19 19.7758 19.1366 19.7297 19.334L17.0091 31.2049C16.9784 31.3719 17.0245 31.5389 17.1628 31.6452C17.3626 31.797 17.6393 31.7666 17.793 31.5844C17.916 31.4326 18.0543 31.296 18.1926 31.1442C19.5299 29.7476 21.3744 28.852 23.434 28.7761C27.7993 28.6091 31.3807 32.3586 31.3807 36.6698V38.9165C31.3807 39.2049 31.6112 39.4326 31.9033 39.4326H35.0082C35.0082 39.2808 34.9928 39.1442 34.9928 38.9924C34.9928 36.3055 37.2062 34.1044 39.9421 34.1044C41.0949 34.1044 42.1401 34.4991 42.9855 35.1366C43.0316 35.167 43.0931 35.1366 43.0931 35.0911V30.0057C43.0931 29.3226 42.5398 28.7761 41.8481 28.7761H41.8635ZM19.6375 27.8197L21.2668 20.5636C21.2668 20.5636 21.2975 20.518 21.3283 20.518H29.029C29.029 20.518 29.0905 20.5332 29.0905 20.5636L32.1185 28.7761H29.3056C29.3056 28.7761 29.2749 28.7761 29.2595 28.7761C27.7071 27.6679 25.8165 27.0152 23.7568 27.0152C22.3581 27.0152 20.9747 27.334 19.7297 27.9108C19.6836 27.9412 19.6221 27.8956 19.6375 27.8349" fill="#0D6B83"/>
</svg>
