<svg width="61" height="61" viewBox="0 0 61 61" fill="none" xmlns="http://www.w3.org/2000/svg">
<rect width="60.9352" height="60.9352" rx="3.85666" fill="#A3D6D2"/>
<path d="M39.4471 31.0261L46.1627 24.4437C46.3189 24.2906 46.3189 23.9845 46.1627 23.8314C46.0065 23.6783 45.6942 23.6783 45.538 23.8314L38.6662 30.5668C38.1976 31.0261 37.4167 30.873 36.792 30.4138C36.3235 29.9545 36.3235 29.1891 36.6359 28.7299C36.6359 28.7299 36.792 28.7299 36.792 28.5768L43.6639 21.8414C43.82 21.6883 43.82 21.3821 43.6639 21.2291C43.5077 21.076 43.1953 21.076 43.0391 21.2291L36.1673 27.9645C36.1673 27.9645 36.1673 28.1176 36.0111 28.1176C35.5426 28.4237 34.7617 28.4237 34.2932 27.9645C33.8247 27.5053 33.8247 26.5868 34.2932 25.9745L41.165 19.2391C41.3212 19.086 41.3212 18.7798 41.165 18.6267C41.0088 18.4737 40.6965 18.4737 40.5403 18.6267L33.6685 25.3622L31.1696 27.8114C29.9202 29.0361 30.7011 31.3322 31.1696 32.2507L23.3608 39.7515C23.2046 39.9046 23.0484 40.5169 23.2046 40.67L24.1417 41.5885C24.2978 41.7415 24.7664 41.5885 25.0787 41.4354L32.7314 33.7815C33.5123 34.2407 36.0111 35.0061 37.2606 33.7815L39.4471 31.0261Z" fill="#0D6B83"/>
<path d="M29.2802 28.7142L25.1987 24.7896C21.745 21.3359 16.7215 18.9812 15.1517 20.551C13.5819 22.1209 15.9366 27.1443 19.3903 30.598L23.3149 34.5226C23.7858 34.9935 25.8266 34.0516 26.6115 33.5807L34.3037 41.4299C34.4607 41.5868 35.0886 41.7438 35.2456 41.5868L36.1875 40.6449C36.3445 40.488 36.1875 40.017 36.0305 39.703L28.1813 32.0108C28.6523 31.2259 29.7512 29.1851 29.2802 28.7142Z" fill="#0D6B83"/>
</svg>
