<svg width="61" height="61" viewBox="0 0 61 61" fill="none" xmlns="http://www.w3.org/2000/svg">
<rect width="60.9352" height="60.9352" rx="3.85666" fill="#0D6B83"/>
<path d="M20.9433 32.978L22.906 33.4336C23.391 33.5534 23.5526 34.2008 23.16 34.5365L20.9664 36.4545C20.8048 36.5984 20.7355 36.8142 20.7586 37.006L21.4051 42.2567C21.4513 42.6404 21.1742 42.976 20.8048 42.976H20.4584C20.1813 42.976 19.9273 42.7842 19.858 42.4965L18.4957 36.7423C18.4957 36.7423 18.4957 36.6464 18.4957 36.6224V35.951C18.4726 35.8072 18.4957 35.6633 18.6111 35.5435L20.3198 33.2418C20.4584 33.0499 20.7124 32.954 20.9202 33.002L20.9433 32.978ZM33.5279 35.04L32.6274 42.2807C32.5812 42.6643 32.8583 43 33.2277 43H33.5741C33.8512 43 34.1052 42.7842 34.1745 42.5205L35.583 36.2627C35.6061 36.1189 35.583 35.951 35.5368 35.8312L35.0288 34.8482C34.9134 34.6324 34.7055 34.5125 34.4977 34.5125H34.1514C33.8512 34.5125 33.5972 34.7522 33.551 35.0639L33.5279 35.04ZM51.4927 34.2008H48.4678C48.2369 34.2008 48.0291 34.0809 47.9367 33.8651L41.3327 20.7023C40.8016 19.6713 39.7625 19 38.6541 19H15.4246C14.0853 19 13 20.1269 13 21.5175V32.8821C13 33.2178 13.2771 33.5055 13.6004 33.5055C13.9236 33.5055 14.2007 33.2178 14.2007 32.8821V21.5175C14.2007 21.5175 14.2007 21.3976 14.2007 21.3257C14.2931 20.5824 15.4015 20.7023 15.4015 21.4456V25.9051C15.4015 25.9051 15.4015 25.953 15.4015 26.001L15.9787 30.2448C15.9787 30.2448 15.9787 30.3646 15.9787 30.4366L15.4015 34.0569C15.4015 34.0569 15.4015 34.1528 15.4015 34.2008L15.9556 42.3766C15.9556 42.7123 16.2327 42.952 16.556 42.952H16.9024C17.2487 42.952 17.5027 42.6643 17.5027 42.3287V35.6154C17.5027 35.4715 17.5489 35.3516 17.6182 35.2318L19.8811 32.1628C20.0197 31.971 20.2506 31.8751 20.4815 31.9231L27.4319 33.4815C27.4319 33.4815 27.5242 33.4815 27.5704 33.4815H35.075C35.3059 33.4815 35.5137 33.6014 35.6061 33.8172L36.9685 36.5265C36.9685 36.5265 37.0377 36.6703 37.0377 36.7662L37.615 42.3766C37.6381 42.6883 37.9152 42.952 38.2154 42.952H38.5848C38.9312 42.952 39.1852 42.6643 39.1852 42.3287V35.0879C39.1852 34.5125 39.8548 34.2488 40.2243 34.6563L46.6898 41.7053C47.4287 42.4965 48.4447 42.952 49.5069 42.952C49.8532 42.952 50.1072 42.6643 50.1072 42.3287V36.1189C50.1072 35.951 50.1765 35.7832 50.292 35.6633L51.816 35.1838C52.2085 34.7762 51.9314 34.1049 51.3773 34.1049" fill="#A3D6D2"/>
</svg>
