<svg width="61" height="61" viewBox="0 0 61 61" fill="none" xmlns="http://www.w3.org/2000/svg">
<rect width="60.9352" height="60.9352" rx="3.85666" fill="#A3D6D2"/>
<path d="M29.5726 34.3729C29.1787 33.9789 28.8162 33.4747 28.5483 32.8916C28.1386 31.9934 28.0125 30.5751 28.3119 29.6927C28.5326 30.6382 29.3835 31.2055 30.0611 31.8673C30.0769 31.757 30.1084 31.6309 30.1399 31.5049C30.6442 29.409 32.0782 28.2587 32.5037 26.6828C32.5982 28.0223 34.3001 31.6309 32.6455 34.3729C39.9573 30.0551 35.482 22.8378 29.352 18C30.9278 21.388 31.2745 25.5325 28.6271 27.3132C27.7446 26.478 27.067 24.8076 28.958 21.782C25.2863 25.0282 24.9397 28.1011 25.1445 29.3775C25.6803 32.7025 27.7604 33.7583 29.5726 34.3571" fill="#0D6B83"/>
<path d="M40.5403 36.7052L39.7366 33.8372L30.7702 36.3585L21.8037 33.8372L21 36.7052L25.2705 37.9186L21 39.1162L21.8037 42L30.7702 39.4629L39.7366 42L40.5403 39.1162L36.2698 37.9186L40.5403 36.7052Z" fill="#0D6B83"/>
</svg>
