<svg width="61" height="61" viewBox="0 0 61 61" fill="none" xmlns="http://www.w3.org/2000/svg">
<rect width="60.9352" height="60.9352" rx="3.85666" fill="#A3D6D2"/>
<path d="M33.8213 34.5785C35.284 34.5785 36.4838 33.0744 36.4838 31.2231C36.4838 29.3719 35.284 27.8678 33.8213 27.8678C32.3585 27.8678 31.1587 29.3719 31.1587 31.2231C31.1587 33.0744 32.3421 34.5785 33.8213 34.5785ZM30.6163 41.4876C32.112 41.4876 33.3118 39.9835 33.3118 38.1322C33.3118 36.281 32.112 34.7769 30.6163 34.7769C29.1207 34.7769 27.9209 36.281 27.9209 38.1322C27.9209 39.9835 29.1371 41.4876 30.6163 41.4876ZM36.9111 41.4876C38.3739 41.4876 39.5573 39.9835 39.5573 38.1322C39.5573 36.281 38.3739 34.7769 36.9111 34.7769C35.4484 34.7769 34.265 36.281 34.265 38.1322C34.265 39.9835 35.4484 41.4876 36.9111 41.4876ZM37.0098 28.0992C38.4068 28.0992 39.5244 26.595 39.5244 24.7438C39.5244 22.8926 38.4068 21.3884 37.0098 21.3884C35.6127 21.3884 34.4951 22.8926 34.4951 24.7438C34.4951 26.595 35.6292 28.0992 37.0098 28.0992ZM39.9846 34.5785C41.3816 34.5785 42.4992 33.0744 42.4992 31.2231C42.4992 29.3719 41.3652 27.8678 39.9846 27.8678C38.604 27.8678 37.47 29.3719 37.47 31.2231C37.47 33.0744 38.604 34.5785 39.9846 34.5785ZM42.943 41.4876C44.34 41.4876 45.4576 39.9835 45.4576 38.1322C45.4576 36.281 44.3236 34.7769 42.943 34.7769C41.5624 34.7769 40.4284 36.281 40.4284 38.1322C40.4284 39.9835 41.5624 41.4876 42.943 41.4876ZM45.9836 38.1157C45.9836 40.2645 44.5208 42 42.3842 42H17.8624C15.7257 42 14 40.2645 14 38.1157C14 35.438 16.2845 34.2314 17.8624 34.2314H18.6513C17.7637 33.5207 17.2049 32.4298 17.2049 31.2066C17.2049 28.5289 19.4895 27.3223 21.0673 27.3223H21.4124C20.7879 26.6281 20.4099 25.719 20.4099 24.7107C20.4099 22.0331 22.6944 20.843 24.2722 20.843H27.8716C27.8716 20.843 28.7262 20.6942 29.2357 20.1818C29.7452 19.6694 29.5809 18.9421 29.5809 18.9421V18.281L30.189 18C30.189 18 31.0765 18.6777 31.0765 19.9174C31.0765 20.5785 32.3749 20.8595 32.3749 20.8595H36.4674C38.5876 20.8595 40.0668 22.595 40.0668 24.7273C40.0668 25.7355 39.7381 26.6446 39.1793 27.3388H39.4422C41.5788 27.3388 43.0416 29.0744 43.0416 31.2231C43.0416 32.4463 42.5485 33.5372 41.7432 34.2479H42.4006C44.5208 34.2479 46 35.9835 46 38.1322" fill="#0D6B83"/>
</svg>
