<svg width="61" height="61" viewBox="0 0 61 61" fill="none" xmlns="http://www.w3.org/2000/svg">
<rect width="60.9352" height="60.9352" rx="3.85666" fill="#A3D6D2"/>
<path d="M32.8729 23.886C33.2269 24.5028 35.8275 26.1117 35.174 28.2704C34.3298 24.9989 26.9909 21.9151 30.1362 18C27.2632 19.1531 25.1664 22.143 26.6778 25.8168C24.1725 24.2212 24.8805 21.8883 24.8805 21.8883C23.5189 23.2425 23.2602 24.8916 23.5053 26.3263C24.1997 28.7397 25.0575 30.4693 23.6415 31.4615C23.6415 30.0939 23.3283 28.9542 21.7352 27.5196C22.7837 30.0402 21 31.8503 21 34.2905C21 38.1654 24.0635 41.3832 28.5567 42C28.7474 40.9676 28.9107 39.8011 28.9107 38.943C28.298 39.5196 26.351 39.6536 25.0303 39.4793C26.2284 38.3933 27.5356 36.3955 27.7398 35.5374C27.1815 35.6581 26.3918 35.7385 25.4523 35.5374C26.5825 35.162 27.5628 33.9553 28.3797 32.2927C27.8623 32.4939 27.1815 32.6279 26.4599 32.4C28.121 31.8503 30.2451 27.9888 30.2451 25.0123C30.2451 27.9888 32.3691 31.8369 34.0303 32.4C33.3086 32.6279 32.6278 32.4939 32.1104 32.2927C32.9138 33.9553 33.9077 35.162 35.0378 35.5374C34.112 35.752 33.3086 35.6715 32.764 35.5374C32.9682 36.3821 34.2753 38.3799 35.4735 39.4793C34.1528 39.6536 32.1921 39.5196 31.593 38.943C31.593 39.7877 31.7564 40.9408 31.9471 41.9732C36.2905 41.2894 39 38.1117 39 34.2905C39 31.9173 38.5643 26.8223 32.8865 23.886" fill="#0D6B83"/>
</svg>
