<svg width="61" height="61" viewBox="0 0 61 61" fill="none" xmlns="http://www.w3.org/2000/svg">
<rect width="60.9352" height="60.9352" rx="3.85666" fill="#A3D6D2"/>
<path d="M40.3094 36.4633L40.4238 36.3261H21.5137V39.5959H39.0289C39.0289 39.1614 39.0975 38.7499 39.2119 38.3383C39.2576 38.2011 39.3033 38.0639 39.3491 37.9496C39.3491 37.9038 39.3948 37.8352 39.4177 37.7895C39.4405 37.7209 39.4862 37.6523 39.5091 37.5837C39.5777 37.4465 39.6463 37.3093 39.7378 37.1721C39.8292 37.0121 39.9436 36.8749 40.0579 36.7377C40.1265 36.6462 40.218 36.5547 40.3094 36.4633Z" fill="#0D6B83"/>
<path d="M46.7117 36.6005H46.7346C46.8947 36.8063 47.0547 37.0121 47.169 37.2179C47.2376 37.3322 47.3062 37.4465 47.3748 37.5608C47.3977 37.6294 47.4434 37.6752 47.4663 37.7438C47.512 37.8124 47.5349 37.9038 47.5578 37.9724C47.7636 38.4755 47.855 39.0243 47.855 39.573H48.7697C49.57 39.573 50.2331 38.9099 50.2331 38.1096V36.3032H46.4602C46.4602 36.3032 46.6431 36.4861 46.7346 36.5776" fill="#0D6B83"/>
<path d="M21.125 23.933C19.7531 23.933 17.8552 23.9559 16.4832 23.9559C15.3857 23.9559 14.6082 24.0473 14.1052 25.1906C13.5107 26.5626 13.0762 27.9345 12.4588 29.2836C12.3674 29.4666 12.2759 29.6723 12.1159 29.7867C11.9787 29.8781 11.8415 29.901 11.6814 29.9239C10.904 30.0839 10.1265 30.244 9.37195 30.3812C8.96037 30.4727 8.48018 30.5641 8.22866 30.93C8 31.2501 8 31.6159 8 31.9818C8 33.9025 8 35.8233 8 37.744C8 38.2013 8 38.6815 8.27439 39.0474C8.57165 39.4589 9.14329 39.619 9.66921 39.619H11.247C11.2927 37.8812 12.4817 36.2349 14.1052 35.6175C15.3857 35.1373 16.9177 35.3202 18.0838 36.0519C18.6555 36.4178 19.1128 36.9208 19.4558 37.4925C19.5473 37.6525 20.2561 39.5961 20.0732 39.5961C20.7592 39.5961 21.4451 39.5961 22.1311 39.5961C22.1311 34.7943 22.1311 25.0534 22.1311 24.962C22.1311 23.933 21.6509 23.9101 21.125 23.933ZM20.5305 29.3751C20.5305 29.8553 20.1418 30.2211 19.6845 30.2211H15.0656C14.5854 30.2211 13.9223 29.9925 14.1052 29.2836C14.4482 28.0489 15.0656 25.8995 15.0656 25.8995C15.2256 25.3507 15.7515 25.0077 16.4832 25.0077H19.8674C20.2332 25.0077 20.5076 25.2821 20.5076 25.648V29.3751H20.5305Z" fill="#0D6B83"/>
<path d="M18.8384 38.5212C18.8384 38.5212 18.7927 38.4069 18.7698 38.3383C18.7698 38.2925 18.7241 38.2468 18.7012 38.2011C18.6555 38.1096 18.6097 38.0181 18.5411 37.9267C18.4268 37.7666 18.3125 37.6066 18.1981 37.4694C18.1981 37.4694 18.0381 37.2864 17.9466 37.195C17.8094 37.0806 17.6722 36.9663 17.5122 36.8749C17.4207 36.8063 17.3064 36.7605 17.2149 36.6919L17.0777 36.6233C17.0777 36.6233 16.9634 36.5776 16.8948 36.5547C16.8262 36.5319 16.7576 36.509 16.6661 36.4861C16.5518 36.4633 16.4603 36.4175 16.346 36.3947C16.3003 36.3947 16.2317 36.3947 16.1859 36.3718C16.0716 36.3718 15.9573 36.3489 15.843 36.3261C15.7972 36.3261 15.7286 36.3261 15.66 36.3261C15.2484 36.3261 14.8597 36.3947 14.4939 36.5319C14.2195 36.6233 13.9908 36.7605 13.7622 36.9206C13.6707 36.9892 13.5792 37.0578 13.5106 37.1264C13.4192 37.195 13.3506 37.2636 13.2591 37.355C13.2591 37.355 13.1219 37.5151 13.0533 37.5837C12.9619 37.698 12.8933 37.8124 12.8018 37.9267C12.7332 38.0181 12.6875 38.1325 12.6189 38.2239C12.6189 38.2697 12.5731 38.3383 12.5503 38.384C12.5503 38.4297 12.5045 38.4755 12.5045 38.5212C12.4588 38.6127 12.4359 38.727 12.4131 38.8185C12.3216 39.1386 12.2759 39.4587 12.2759 39.8017C12.2759 41.6996 13.8079 43.2316 15.6829 43.2316C17.5579 43.2316 19.0899 41.6996 19.0899 39.8017C19.0899 39.7331 19.0899 39.6874 19.0899 39.6188C19.0899 39.2529 18.9984 38.8871 18.8613 38.5441L18.8384 38.5212ZM15.6829 41.6538C14.6539 41.6538 13.8079 40.8078 13.8079 39.7788C13.8079 39.7102 13.8079 39.6645 13.8079 39.5959C13.8994 38.6355 14.6997 37.9038 15.66 37.9038C16.689 37.9038 17.535 38.7499 17.535 39.7788C17.535 40.8078 16.689 41.6538 15.66 41.6538" fill="#0D6B83"/>
<path d="M44.2654 36.2808C41.1328 35.5262 38.7547 39.3677 40.8584 41.8143C41.7959 42.9119 43.4422 43.3006 44.7685 42.7747C46.0947 42.2259 46.9865 40.7853 46.8721 39.3448C46.8493 39.0018 46.7578 38.6817 46.6435 38.3616C46.2319 37.3555 45.3401 36.5323 44.2654 36.2808ZM45.3172 39.8021C45.2486 40.4652 44.7913 41.0826 44.1739 41.3341C43.4422 41.6314 42.5505 41.4256 42.0474 40.8311C40.8813 39.5048 42.1618 37.3783 43.8767 37.7899C44.6313 37.9728 45.2486 38.6588 45.3172 39.4591C45.3172 39.5734 45.3172 39.6878 45.3172 39.8021Z" fill="#0D6B83"/>
<path d="M24.0975 23.407H50.4847C50.8735 23.407 51.2164 23.0869 51.2164 22.6753V20.7317C51.2164 20.343 50.8963 20 50.4847 20H24.0975C23.7088 20 23.3887 20.3201 23.3887 20.7088V22.6982C23.3887 23.0869 23.7088 23.407 24.0975 23.407Z" fill="#0D6B83"/>
<path d="M24.0975 27.3398H49.8902C50.2789 27.3398 50.6219 27.0197 50.6219 26.6081V24.6417C50.6219 24.2529 50.3018 23.91 49.8902 23.91H24.0975C23.7088 23.91 23.3887 24.2301 23.3887 24.6188V26.6081C23.3887 26.9968 23.7088 27.317 24.0975 27.317" fill="#0D6B83"/>
<path d="M52.2454 27.8428H24.0975C23.7088 27.8428 23.3887 28.1629 23.3887 28.5516V30.541C23.3887 30.9297 23.7088 31.2498 24.0975 31.2498H52.2683C52.657 31.2498 53 30.9297 53 30.5181V28.5516C53 28.1629 52.6799 27.8199 52.2683 27.8199" fill="#0D6B83"/>
<path d="M51.3994 31.7758H24.0975C23.7088 31.7758 23.3887 32.0959 23.3887 32.4846V34.474C23.3887 34.8627 23.7088 35.1828 24.0975 35.1828H51.3994C51.7881 35.1828 52.1311 34.8627 52.1311 34.4511V32.4846C52.1311 32.0959 51.811 31.7529 51.3994 31.7529" fill="#0D6B83"/>
</svg>
