<svg width="61" height="61" viewBox="0 0 61 61" fill="none" xmlns="http://www.w3.org/2000/svg">
<rect width="60.9352" height="60.9352" rx="3.85666" fill="#0D6B83"/>
<path d="M27.3929 23.0764L26.1557 24.3137V23.2753C26.1557 23.2753 26.2219 23.2421 26.2551 23.209L27.7023 21.7618C27.9564 21.5077 27.9564 21.0879 27.7023 20.8338C27.4482 20.5797 27.0284 20.5797 26.7743 20.8338L26.1557 21.4525V19.6628C26.1557 19.2983 25.8574 19 25.4928 19C25.1283 19 24.83 19.2983 24.83 19.6628V22.6014L23.5927 21.3641C23.3386 21.11 22.9188 21.11 22.6647 21.3641C22.4107 21.6182 22.4107 22.038 22.6647 22.2921L24.7416 24.3689C24.7416 24.3689 24.8079 24.4131 24.841 24.4352V25.4737L23.6038 24.2364C23.3497 23.9823 22.9299 23.9823 22.6758 24.2364C22.4217 24.4905 22.4217 24.9102 22.6758 25.1643L24.7527 27.2412C24.7527 27.2412 24.8189 27.2854 24.8521 27.3075V28.9425C24.8521 29.307 25.1504 29.6053 25.5149 29.6053C25.8795 29.6053 26.1778 29.307 26.1778 28.9425V26.1586C26.1778 26.1586 26.244 26.1254 26.2772 26.0923L28.354 24.0154C28.6081 23.7613 28.6081 23.3415 28.354 23.0875C28.1 22.8334 27.6802 22.8334 27.4261 23.0875" fill="#A3D6D2"/>
<path d="M36.3631 23.0764L35.1258 24.3137V23.2753C35.1258 23.2753 35.1921 23.2421 35.2252 23.209L36.6724 21.7618C36.9265 21.5077 36.9265 21.0879 36.6724 20.8338C36.4183 20.5797 35.9985 20.5797 35.7445 20.8338L35.1258 21.4525V19.6628C35.1258 19.2983 34.8275 19 34.463 19C34.0984 19 33.8001 19.2983 33.8001 19.6628V22.6014L32.5629 21.3641C32.3088 21.11 31.889 21.11 31.6349 21.3641C31.3808 21.6182 31.3808 22.038 31.6349 22.2921L33.7118 24.3689C33.7118 24.3689 33.7781 24.4131 33.8112 24.4352V25.4737L32.5739 24.2364C32.3198 23.9823 31.9 23.9823 31.6459 24.2364C31.3919 24.4905 31.3919 24.9102 31.6459 25.1643L33.7228 27.2412C33.7228 27.2412 33.7891 27.2854 33.8222 27.3075V28.9425C33.8222 29.307 34.1205 29.6053 34.4851 29.6053C34.8496 29.6053 35.1479 29.307 35.1479 28.9425V26.1586C35.1479 26.1586 35.2142 26.1254 35.2473 26.0923L37.3242 24.0154C37.5783 23.7613 37.5783 23.3415 37.3242 23.0875C37.0701 22.8334 36.6503 22.8334 36.3962 23.0875" fill="#A3D6D2"/>
<path d="M27.3929 35.3278L26.1557 36.5651V35.5267C26.1557 35.5267 26.2219 35.4935 26.2551 35.4604L27.7023 34.0132C27.9564 33.7591 27.9564 33.3393 27.7023 33.0852C27.4482 32.8312 27.0284 32.8312 26.7743 33.0852L26.1557 33.7039V31.9032C26.1557 31.5386 25.8574 31.2404 25.4928 31.2404C25.1283 31.2404 24.83 31.5386 24.83 31.9032V34.8528L23.5927 33.6155C23.3386 33.3614 22.9188 33.3614 22.6647 33.6155C22.4107 33.8696 22.4107 34.2894 22.6647 34.5435L24.7416 36.6203C24.7416 36.6203 24.8079 36.6645 24.841 36.6866V37.7251L23.6038 36.4878C23.3497 36.2337 22.9299 36.2337 22.6758 36.4878C22.4217 36.7419 22.4217 37.1617 22.6758 37.4157L24.7527 39.4926C24.7527 39.4926 24.8189 39.5368 24.8521 39.5589V41.1939C24.8521 41.5584 25.1504 41.8567 25.5149 41.8567C25.8795 41.8567 26.1778 41.5584 26.1778 41.1939V38.41C26.1778 38.41 26.244 38.3768 26.2772 38.3437L28.354 36.2668C28.6081 36.0127 28.6081 35.5929 28.354 35.3389C28.1 35.0848 27.6802 35.0848 27.4261 35.3389" fill="#A3D6D2"/>
<path d="M36.3631 35.3278L35.1258 36.5651V35.5267C35.1258 35.5267 35.1921 35.4935 35.2252 35.4604L36.6724 34.0132C36.9265 33.7591 36.9265 33.3393 36.6724 33.0852C36.4183 32.8312 35.9985 32.8312 35.7445 33.0852L35.1258 33.7039V31.9032C35.1258 31.5386 34.8275 31.2404 34.463 31.2404C34.0984 31.2404 33.8001 31.5386 33.8001 31.9032V34.8528L32.5629 33.6155C32.3088 33.3614 31.889 33.3614 31.6349 33.6155C31.3808 33.8696 31.3808 34.2894 31.6349 34.5435L33.7118 36.6203C33.7118 36.6203 33.7781 36.6645 33.8112 36.6866V37.7251L32.5739 36.4878C32.3198 36.2337 31.9 36.2337 31.6459 36.4878C31.3919 36.7419 31.3919 37.1617 31.6459 37.4157L33.7228 39.4926C33.7228 39.4926 33.7891 39.5368 33.8222 39.5589V41.1939C33.8222 41.5584 34.1205 41.8567 34.4851 41.8567C34.8496 41.8567 35.1479 41.5584 35.1479 41.1939V38.41C35.1479 38.41 35.2142 38.3768 35.2473 38.3437L37.3242 36.2668C37.5783 36.0127 37.5783 35.5929 37.3242 35.3389C37.0701 35.0848 36.6503 35.0848 36.3962 35.3389" fill="#A3D6D2"/>
<path d="M22.9188 29.2077L21.6815 30.445V29.4065C21.6815 29.4065 21.7478 29.3734 21.7809 29.3403L23.2281 27.8931C23.4822 27.639 23.4822 27.2192 23.2281 26.9651C22.974 26.711 22.5542 26.711 22.3001 26.9651L21.6815 27.5838V25.7831C21.6815 25.4185 21.3832 25.1202 21.0186 25.1202C20.6541 25.1202 20.3558 25.4185 20.3558 25.7831V28.7327L19.1185 27.4954C18.8644 27.2413 18.4446 27.2413 18.1906 27.4954C17.9365 27.7495 17.9365 28.1693 18.1906 28.4233L20.2674 30.5002C20.2674 30.5002 20.3337 30.5444 20.3669 30.5665V31.6049L19.1296 30.3677C18.8755 30.1136 18.4557 30.1136 18.2016 30.3677C17.9475 30.6217 17.9475 31.0415 18.2016 31.2956L20.2785 33.3725C20.2785 33.3725 20.3448 33.4167 20.3779 33.4388V35.0738C20.3779 35.4383 20.6762 35.7366 21.0407 35.7366C21.4053 35.7366 21.7036 35.4383 21.7036 35.0738V32.2899C21.7036 32.2899 21.7699 32.2567 21.803 32.2236L23.8799 30.1467C24.134 29.8926 24.134 29.4728 23.8799 29.2187C23.6258 28.9647 23.206 28.9647 22.9519 29.2187" fill="#A3D6D2"/>
<path d="M31.878 29.2077L30.6407 30.445V29.4065C30.6407 29.4065 30.707 29.3734 30.7401 29.3403L32.1873 27.8931C32.4414 27.639 32.4414 27.2192 32.1873 26.9651C31.9332 26.711 31.5134 26.711 31.2593 26.9651L30.6407 27.5838V25.7831C30.6407 25.4185 30.3424 25.1202 29.9779 25.1202C29.6133 25.1202 29.315 25.4185 29.315 25.7831V28.7327L28.0778 27.4954C27.8237 27.2413 27.4039 27.2413 27.1498 27.4954C26.8957 27.7495 26.8957 28.1693 27.1498 28.4233L29.2267 30.5002C29.2267 30.5002 29.2929 30.5444 29.3261 30.5665V31.6049L28.0888 30.3677C27.8347 30.1136 27.4149 30.1136 27.1608 30.3677C26.9068 30.6217 26.9068 31.0415 27.1608 31.2956L29.2377 33.3725C29.2377 33.3725 29.304 33.4167 29.3371 33.4388V35.0738C29.3371 35.4383 29.6354 35.7366 30 35.7366C30.3645 35.7366 30.6628 35.4383 30.6628 35.0738V32.2899C30.6628 32.2899 30.7291 32.2567 30.7622 32.2236L32.8391 30.1467C33.0932 29.8926 33.0932 29.4728 32.8391 29.2187C32.585 28.9647 32.1652 28.9647 31.9111 29.2187" fill="#A3D6D2"/>
<path d="M41.7763 29.2077C41.5222 28.9536 41.1024 28.9536 40.8483 29.2077L39.611 30.445V29.4065C39.611 29.4065 39.6773 29.3734 39.7105 29.3403L41.1576 27.8931C41.4117 27.639 41.4117 27.2192 41.1576 26.9651C40.9036 26.711 40.4838 26.711 40.2297 26.9651L39.611 27.5838V25.7831C39.611 25.4185 39.3128 25.1202 38.9482 25.1202C38.5837 25.1202 38.2854 25.4185 38.2854 25.7831V28.7327L37.0481 27.4954C36.794 27.2413 36.3742 27.2413 36.1201 27.4954C35.866 27.7495 35.866 28.1693 36.1201 28.4233L38.197 30.5002C38.197 30.5002 38.2633 30.5444 38.2964 30.5665V31.6049L37.0591 30.3677C36.8051 30.1136 36.3853 30.1136 36.1312 30.3677C35.8771 30.6217 35.8771 31.0415 36.1312 31.2956L38.208 33.3725C38.208 33.3725 38.2743 33.4167 38.3075 33.4388V35.0738C38.3075 35.4383 38.6057 35.7366 38.9703 35.7366C39.3349 35.7366 39.6331 35.4383 39.6331 35.0738V32.2899C39.6331 32.2899 39.6994 32.2567 39.7326 32.2236L41.8094 30.1467C42.0635 29.8926 42.0635 29.4728 41.8094 29.2187" fill="#A3D6D2"/>
</svg>
