<svg width="436" height="229" viewBox="0 0 436 229" fill="none" xmlns="http://www.w3.org/2000/svg">
<path d="M126.407 213.999C126.407 214.883 126.242 215.622 125.913 216.217C125.583 216.808 125.105 217.253 124.479 217.554C123.852 217.851 123.096 218 122.212 218H120.031V210.147H122.448C123.261 210.147 123.963 210.294 124.554 210.588C125.145 210.878 125.601 211.309 125.923 211.882C126.246 212.452 126.407 213.157 126.407 213.999ZM125.064 214.036C125.064 213.392 124.962 212.862 124.758 212.446C124.557 212.031 124.26 211.723 123.866 211.522C123.476 211.318 122.994 211.216 122.421 211.216H121.32V216.92H122.233C123.182 216.92 123.891 216.679 124.36 216.195C124.829 215.712 125.064 214.992 125.064 214.036ZM132.546 218H128.099V210.147H132.546V211.232H129.388V213.365H132.347V214.444H129.388V216.91H132.546V218ZM139.109 218L138.341 215.819H135.339L134.571 218H133.212L136.134 210.115H137.562L140.479 218H139.109ZM138.008 214.713L137.262 212.564C137.233 212.471 137.192 212.341 137.138 212.172C137.084 212 137.031 211.827 136.977 211.651C136.923 211.472 136.879 211.322 136.843 211.2C136.807 211.347 136.762 211.512 136.708 211.694C136.658 211.873 136.608 212.042 136.558 212.199C136.512 212.357 136.476 212.479 136.451 212.564L135.699 214.713H138.008ZM144.239 218H142.944V211.243H140.646V210.147H146.532V211.243H144.239V218ZM153.928 218H152.645V214.455H149.024V218H147.735V210.147H149.024V213.359H152.645V210.147H153.928V218ZM160.54 215.862C160.54 216.328 160.425 216.729 160.196 217.065C159.971 217.402 159.645 217.66 159.219 217.839C158.796 218.018 158.291 218.107 157.704 218.107C157.418 218.107 157.144 218.091 156.882 218.059C156.621 218.027 156.374 217.98 156.141 217.919C155.912 217.855 155.702 217.778 155.513 217.688V216.475C155.831 216.614 156.188 216.741 156.582 216.856C156.975 216.967 157.376 217.022 157.785 217.022C158.118 217.022 158.393 216.979 158.612 216.894C158.834 216.804 158.999 216.679 159.106 216.518C159.213 216.353 159.267 216.161 159.267 215.943C159.267 215.71 159.204 215.513 159.079 215.352C158.954 215.191 158.764 215.044 158.51 214.912C158.259 214.776 157.944 214.631 157.564 214.477C157.307 214.373 157.06 214.255 156.823 214.122C156.59 213.99 156.383 213.834 156.2 213.655C156.018 213.476 155.873 213.264 155.765 213.021C155.661 212.774 155.609 212.484 155.609 212.151C155.609 211.707 155.715 211.327 155.926 211.012C156.141 210.697 156.442 210.455 156.829 210.287C157.219 210.119 157.674 210.035 158.193 210.035C158.605 210.035 158.991 210.078 159.353 210.164C159.718 210.25 160.076 210.371 160.427 210.529L160.019 211.565C159.697 211.433 159.383 211.327 159.079 211.249C158.778 211.17 158.47 211.13 158.155 211.13C157.883 211.13 157.652 211.172 157.462 211.254C157.273 211.336 157.128 211.453 157.027 211.603C156.931 211.75 156.882 211.925 156.882 212.129C156.882 212.359 156.938 212.552 157.049 212.709C157.163 212.863 157.339 213.005 157.575 213.134C157.815 213.263 158.123 213.406 158.499 213.563C158.932 213.743 159.299 213.931 159.6 214.127C159.904 214.324 160.137 214.561 160.298 214.836C160.459 215.109 160.54 215.451 160.54 215.862Z" fill="#4D4D4D"/>
<rect x="88" y="206" width="22" height="15" rx="3.86" fill="#084555"/>
<path d="M35.3774 211.13C35.0015 211.13 34.6649 211.198 34.3677 211.334C34.0741 211.471 33.8252 211.667 33.6211 211.925C33.417 212.18 33.2612 212.489 33.1538 212.854C33.0464 213.216 32.9927 213.624 32.9927 214.079C32.9927 214.688 33.0786 215.212 33.2505 215.653C33.4224 216.09 33.6838 216.426 34.0347 216.663C34.3856 216.895 34.8296 217.012 35.3667 217.012C35.6997 217.012 36.0238 216.979 36.3389 216.915C36.654 216.851 36.9798 216.763 37.3164 216.652V217.748C36.9977 217.873 36.6755 217.964 36.3496 218.021C36.0238 218.079 35.6478 218.107 35.2217 218.107C34.4196 218.107 33.7536 217.941 33.2236 217.608C32.6973 217.275 32.3034 216.806 32.042 216.201C31.7842 215.596 31.6553 214.887 31.6553 214.074C31.6553 213.479 31.7376 212.935 31.9023 212.441C32.0671 211.947 32.307 211.521 32.6221 211.163C32.9372 210.801 33.3257 210.523 33.7876 210.33C34.2531 210.133 34.7848 210.035 35.3828 210.035C35.7767 210.035 36.1634 210.079 36.543 210.169C36.9261 210.255 37.2806 210.378 37.6064 210.54L37.1553 211.603C36.8831 211.474 36.5985 211.363 36.3013 211.27C36.0041 211.177 35.6961 211.13 35.3774 211.13ZM43.8691 218L43.1011 215.819H40.0986L39.3306 218H37.9717L40.8936 210.115H42.3223L45.2388 218H43.8691ZM42.7681 214.713L42.0215 212.564C41.9928 212.471 41.9517 212.341 41.8979 212.172C41.8442 212 41.7905 211.827 41.7368 211.651C41.6831 211.472 41.6383 211.322 41.6025 211.2C41.5667 211.347 41.522 211.512 41.4683 211.694C41.4181 211.873 41.368 212.042 41.3179 212.199C41.2713 212.357 41.2355 212.479 41.2104 212.564L40.4585 214.713H42.7681ZM50.8086 215.862C50.8086 216.328 50.694 216.729 50.4648 217.065C50.2393 217.402 49.9134 217.66 49.4873 217.839C49.0648 218.018 48.5599 218.107 47.9727 218.107C47.6862 218.107 47.4123 218.091 47.1509 218.059C46.8895 218.027 46.6424 217.98 46.4097 217.919C46.1805 217.855 45.971 217.778 45.7812 217.688V216.475C46.0999 216.614 46.4562 216.741 46.8501 216.856C47.244 216.967 47.645 217.022 48.0532 217.022C48.3862 217.022 48.6619 216.979 48.8804 216.894C49.1024 216.804 49.2671 216.679 49.3745 216.518C49.4819 216.353 49.5356 216.161 49.5356 215.943C49.5356 215.71 49.473 215.513 49.3477 215.352C49.2223 215.191 49.0326 215.044 48.7783 214.912C48.5277 214.776 48.2126 214.631 47.833 214.477C47.5752 214.373 47.3281 214.255 47.0918 214.122C46.859 213.99 46.6514 213.834 46.4688 213.655C46.2861 213.476 46.1411 213.264 46.0337 213.021C45.9299 212.774 45.8779 212.484 45.8779 212.151C45.8779 211.707 45.9836 211.327 46.1948 211.012C46.4097 210.697 46.7104 210.455 47.0972 210.287C47.4875 210.119 47.9422 210.035 48.4614 210.035C48.8732 210.035 49.2599 210.078 49.6216 210.164C49.9868 210.25 50.3449 210.371 50.6958 210.529L50.2876 211.565C49.9653 211.433 49.652 211.327 49.3477 211.249C49.0469 211.17 48.7389 211.13 48.4238 211.13C48.1517 211.13 47.9207 211.172 47.731 211.254C47.5412 211.336 47.3962 211.453 47.2959 211.603C47.1992 211.75 47.1509 211.925 47.1509 212.129C47.1509 212.359 47.2064 212.552 47.3174 212.709C47.432 212.863 47.6074 213.005 47.8438 213.134C48.0837 213.263 48.3916 213.406 48.7676 213.563C49.2008 213.743 49.5679 213.931 49.8687 214.127C50.173 214.324 50.4058 214.561 50.5669 214.836C50.728 215.109 50.8086 215.451 50.8086 215.862ZM56.7705 218H52.3232V210.147H56.7705V211.232H53.6123V213.365H56.5718V214.444H53.6123V216.91H56.7705V218ZM63.001 215.862C63.001 216.328 62.8864 216.729 62.6572 217.065C62.4316 217.402 62.1058 217.66 61.6797 217.839C61.2572 218.018 60.7523 218.107 60.165 218.107C59.8786 218.107 59.6047 218.091 59.3433 218.059C59.0819 218.027 58.8348 217.98 58.6021 217.919C58.3729 217.855 58.1634 217.778 57.9736 217.688V216.475C58.2923 216.614 58.6486 216.741 59.0425 216.856C59.4364 216.967 59.8374 217.022 60.2456 217.022C60.5786 217.022 60.8543 216.979 61.0728 216.894C61.2948 216.804 61.4595 216.679 61.5669 216.518C61.6743 216.353 61.728 216.161 61.728 215.943C61.728 215.71 61.6654 215.513 61.54 215.352C61.4147 215.191 61.2249 215.044 60.9707 214.912C60.7201 214.776 60.4049 214.631 60.0254 214.477C59.7676 214.373 59.5205 214.255 59.2842 214.122C59.0514 213.99 58.8438 213.834 58.6611 213.655C58.4785 213.476 58.3335 213.264 58.2261 213.021C58.1222 212.774 58.0703 212.484 58.0703 212.151C58.0703 211.707 58.1759 211.327 58.3872 211.012C58.6021 210.697 58.9028 210.455 59.2896 210.287C59.6799 210.119 60.1346 210.035 60.6538 210.035C61.0656 210.035 61.4523 210.078 61.814 210.164C62.1792 210.25 62.5373 210.371 62.8882 210.529L62.48 211.565C62.1577 211.433 61.8444 211.327 61.54 211.249C61.2393 211.17 60.9313 211.13 60.6162 211.13C60.3441 211.13 60.1131 211.172 59.9233 211.254C59.7336 211.336 59.5885 211.453 59.4883 211.603C59.3916 211.75 59.3433 211.925 59.3433 212.129C59.3433 212.359 59.3988 212.552 59.5098 212.709C59.6243 212.863 59.7998 213.005 60.0361 213.134C60.276 213.263 60.584 213.406 60.96 213.563C61.3932 213.743 61.7603 213.931 62.061 214.127C62.3654 214.324 62.5981 214.561 62.7593 214.836C62.9204 215.109 63.001 215.451 63.001 215.862Z" fill="#4D4D4D"/>
<path d="M240.07 171.668C240.07 172.176 239.945 172.613 239.695 172.98C239.449 173.348 239.094 173.629 238.629 173.824C238.168 174.02 237.617 174.117 236.977 174.117C236.664 174.117 236.365 174.1 236.08 174.064C235.795 174.029 235.525 173.979 235.271 173.912C235.021 173.842 234.793 173.758 234.586 173.66V172.336C234.934 172.488 235.322 172.627 235.752 172.752C236.182 172.873 236.619 172.934 237.064 172.934C237.428 172.934 237.729 172.887 237.967 172.793C238.209 172.695 238.389 172.559 238.506 172.383C238.623 172.203 238.682 171.994 238.682 171.756C238.682 171.502 238.613 171.287 238.477 171.111C238.34 170.936 238.133 170.775 237.855 170.631C237.582 170.482 237.238 170.324 236.824 170.156C236.543 170.043 236.273 169.914 236.016 169.77C235.762 169.625 235.535 169.455 235.336 169.26C235.137 169.064 234.979 168.834 234.861 168.568C234.748 168.299 234.691 167.982 234.691 167.619C234.691 167.135 234.807 166.721 235.037 166.377C235.271 166.033 235.6 165.77 236.021 165.586C236.447 165.402 236.943 165.311 237.51 165.311C237.959 165.311 238.381 165.357 238.775 165.451C239.174 165.545 239.564 165.678 239.947 165.85L239.502 166.98C239.15 166.836 238.809 166.721 238.477 166.635C238.148 166.549 237.812 166.506 237.469 166.506C237.172 166.506 236.92 166.551 236.713 166.641C236.506 166.73 236.348 166.857 236.238 167.021C236.133 167.182 236.08 167.373 236.08 167.596C236.08 167.846 236.141 168.057 236.262 168.229C236.387 168.396 236.578 168.551 236.836 168.691C237.098 168.832 237.434 168.988 237.844 169.16C238.316 169.355 238.717 169.561 239.045 169.775C239.377 169.99 239.631 170.248 239.807 170.549C239.982 170.846 240.07 171.219 240.07 171.668ZM242.959 167.514V174H241.582V167.514H242.959ZM242.279 165.029C242.49 165.029 242.672 165.086 242.824 165.199C242.98 165.312 243.059 165.508 243.059 165.785C243.059 166.059 242.98 166.254 242.824 166.371C242.672 166.484 242.49 166.541 242.279 166.541C242.061 166.541 241.875 166.484 241.723 166.371C241.574 166.254 241.5 166.059 241.5 165.785C241.5 165.508 241.574 165.312 241.723 165.199C241.875 165.086 242.061 165.029 242.279 165.029ZM247.518 167.391C248.096 167.391 248.592 167.51 249.006 167.748C249.42 167.986 249.738 168.324 249.961 168.762C250.184 169.199 250.295 169.723 250.295 170.332V171.07H245.965C245.98 171.699 246.148 172.184 246.469 172.523C246.793 172.863 247.246 173.033 247.828 173.033C248.242 173.033 248.613 172.994 248.941 172.916C249.273 172.834 249.615 172.715 249.967 172.559V173.678C249.643 173.83 249.312 173.941 248.977 174.012C248.641 174.082 248.238 174.117 247.77 174.117C247.133 174.117 246.572 173.994 246.088 173.748C245.607 173.498 245.23 173.127 244.957 172.635C244.688 172.143 244.553 171.531 244.553 170.801C244.553 170.074 244.676 169.457 244.922 168.949C245.168 168.441 245.514 168.055 245.959 167.789C246.404 167.523 246.924 167.391 247.518 167.391ZM247.518 168.428C247.084 168.428 246.732 168.568 246.463 168.85C246.197 169.131 246.041 169.543 245.994 170.086H248.947C248.943 169.762 248.889 169.475 248.783 169.225C248.682 168.975 248.525 168.779 248.314 168.639C248.107 168.498 247.842 168.428 247.518 168.428ZM255.135 167.391C255.244 167.391 255.363 167.396 255.492 167.408C255.621 167.42 255.732 167.436 255.826 167.455L255.697 168.744C255.615 168.721 255.514 168.703 255.393 168.691C255.275 168.68 255.17 168.674 255.076 168.674C254.83 168.674 254.596 168.715 254.373 168.797C254.15 168.875 253.953 168.996 253.781 169.16C253.609 169.32 253.475 169.521 253.377 169.764C253.279 170.006 253.23 170.287 253.23 170.607V174H251.848V167.514H252.926L253.113 168.656H253.178C253.307 168.426 253.467 168.215 253.658 168.023C253.85 167.832 254.068 167.68 254.314 167.566C254.564 167.449 254.838 167.391 255.135 167.391ZM260.314 167.391C260.424 167.391 260.543 167.396 260.672 167.408C260.801 167.42 260.912 167.436 261.006 167.455L260.877 168.744C260.795 168.721 260.693 168.703 260.572 168.691C260.455 168.68 260.35 168.674 260.256 168.674C260.01 168.674 259.775 168.715 259.553 168.797C259.33 168.875 259.133 168.996 258.961 169.16C258.789 169.32 258.654 169.521 258.557 169.764C258.459 170.006 258.41 170.287 258.41 170.607V174H257.027V167.514H258.105L258.293 168.656H258.357C258.486 168.426 258.646 168.215 258.838 168.023C259.029 167.832 259.248 167.68 259.494 167.566C259.744 167.449 260.018 167.391 260.314 167.391ZM264.75 167.391C265.57 167.391 266.189 167.572 266.607 167.936C267.029 168.299 267.24 168.865 267.24 169.635V174H266.262L265.998 173.08H265.951C265.768 173.314 265.578 173.508 265.383 173.66C265.188 173.812 264.961 173.926 264.703 174C264.449 174.078 264.139 174.117 263.771 174.117C263.385 174.117 263.039 174.047 262.734 173.906C262.43 173.762 262.189 173.543 262.014 173.25C261.838 172.957 261.75 172.586 261.75 172.137C261.75 171.469 261.998 170.967 262.494 170.631C262.994 170.295 263.748 170.109 264.756 170.074L265.881 170.033V169.693C265.881 169.244 265.775 168.924 265.564 168.732C265.357 168.541 265.064 168.445 264.686 168.445C264.361 168.445 264.047 168.492 263.742 168.586C263.438 168.68 263.141 168.795 262.852 168.932L262.406 167.959C262.723 167.791 263.082 167.654 263.484 167.549C263.891 167.443 264.312 167.391 264.75 167.391ZM265.875 170.9L265.037 170.93C264.35 170.953 263.867 171.07 263.59 171.281C263.312 171.492 263.174 171.781 263.174 172.148C263.174 172.469 263.27 172.703 263.461 172.852C263.652 172.996 263.904 173.068 264.217 173.068C264.693 173.068 265.088 172.934 265.4 172.664C265.717 172.391 265.875 171.99 265.875 171.463V170.9ZM272.426 174V165.434H273.832V172.805H277.471V174H272.426ZM281.396 167.391C281.975 167.391 282.471 167.51 282.885 167.748C283.299 167.986 283.617 168.324 283.84 168.762C284.062 169.199 284.174 169.723 284.174 170.332V171.07H279.844C279.859 171.699 280.027 172.184 280.348 172.523C280.672 172.863 281.125 173.033 281.707 173.033C282.121 173.033 282.492 172.994 282.82 172.916C283.152 172.834 283.494 172.715 283.846 172.559V173.678C283.521 173.83 283.191 173.941 282.855 174.012C282.52 174.082 282.117 174.117 281.648 174.117C281.012 174.117 280.451 173.994 279.967 173.748C279.486 173.498 279.109 173.127 278.836 172.635C278.566 172.143 278.432 171.531 278.432 170.801C278.432 170.074 278.555 169.457 278.801 168.949C279.047 168.441 279.393 168.055 279.838 167.789C280.283 167.523 280.803 167.391 281.396 167.391ZM281.396 168.428C280.963 168.428 280.611 168.568 280.342 168.85C280.076 169.131 279.92 169.543 279.873 170.086H282.826C282.822 169.762 282.768 169.475 282.662 169.225C282.561 168.975 282.404 168.779 282.193 168.639C281.986 168.498 281.721 168.428 281.396 168.428ZM291.469 170.742C291.469 171.281 291.398 171.76 291.258 172.178C291.117 172.596 290.912 172.949 290.643 173.238C290.373 173.523 290.049 173.742 289.67 173.895C289.291 174.043 288.863 174.117 288.387 174.117C287.941 174.117 287.533 174.043 287.162 173.895C286.791 173.742 286.469 173.523 286.195 173.238C285.926 172.949 285.717 172.596 285.568 172.178C285.42 171.76 285.346 171.281 285.346 170.742C285.346 170.027 285.469 169.422 285.715 168.926C285.965 168.426 286.32 168.045 286.781 167.783C287.242 167.521 287.791 167.391 288.428 167.391C289.025 167.391 289.553 167.521 290.01 167.783C290.467 168.045 290.824 168.426 291.082 168.926C291.34 169.426 291.469 170.031 291.469 170.742ZM286.764 170.742C286.764 171.215 286.82 171.619 286.934 171.955C287.051 172.291 287.23 172.549 287.473 172.729C287.715 172.904 288.027 172.992 288.41 172.992C288.793 172.992 289.105 172.904 289.348 172.729C289.59 172.549 289.768 172.291 289.881 171.955C289.994 171.619 290.051 171.215 290.051 170.742C290.051 170.27 289.994 169.869 289.881 169.541C289.768 169.209 289.59 168.957 289.348 168.785C289.105 168.609 288.791 168.521 288.404 168.521C287.834 168.521 287.418 168.713 287.156 169.096C286.895 169.479 286.764 170.027 286.764 170.742ZM296.432 167.391C297.162 167.391 297.73 167.58 298.137 167.959C298.547 168.334 298.752 168.938 298.752 169.77V174H297.375V170.027C297.375 169.523 297.271 169.146 297.064 168.896C296.857 168.643 296.537 168.516 296.104 168.516C295.475 168.516 295.037 168.709 294.791 169.096C294.549 169.482 294.428 170.043 294.428 170.777V174H293.051V167.514H294.123L294.316 168.393H294.393C294.533 168.166 294.707 167.98 294.914 167.836C295.125 167.688 295.359 167.576 295.617 167.502C295.879 167.428 296.15 167.391 296.432 167.391ZM303.264 167.391C303.842 167.391 304.338 167.51 304.752 167.748C305.166 167.986 305.484 168.324 305.707 168.762C305.93 169.199 306.041 169.723 306.041 170.332V171.07H301.711C301.727 171.699 301.895 172.184 302.215 172.523C302.539 172.863 302.992 173.033 303.574 173.033C303.988 173.033 304.359 172.994 304.688 172.916C305.02 172.834 305.361 172.715 305.713 172.559V173.678C305.389 173.83 305.059 173.941 304.723 174.012C304.387 174.082 303.984 174.117 303.516 174.117C302.879 174.117 302.318 173.994 301.834 173.748C301.354 173.498 300.977 173.127 300.703 172.635C300.434 172.143 300.299 171.531 300.299 170.801C300.299 170.074 300.422 169.457 300.668 168.949C300.914 168.441 301.26 168.055 301.705 167.789C302.15 167.523 302.67 167.391 303.264 167.391ZM303.264 168.428C302.83 168.428 302.479 168.568 302.209 168.85C301.943 169.131 301.787 169.543 301.74 170.086H304.693C304.689 169.762 304.635 169.475 304.529 169.225C304.428 168.975 304.271 168.779 304.061 168.639C303.854 168.498 303.588 168.428 303.264 168.428Z" fill="#4D4D4D"/>
<path d="M46.582 169.348H49.7812V173.648C49.332 173.797 48.8672 173.912 48.3867 173.994C47.9062 174.076 47.3672 174.117 46.7695 174.117C45.8984 174.117 45.1602 173.945 44.5547 173.602C43.9531 173.254 43.4961 172.752 43.1836 172.096C42.8711 171.436 42.7148 170.641 42.7148 169.711C42.7148 168.816 42.8887 168.041 43.2363 167.385C43.584 166.725 44.0898 166.215 44.7539 165.855C45.418 165.492 46.2227 165.311 47.168 165.311C47.6328 165.311 48.082 165.357 48.5156 165.451C48.9531 165.541 49.3535 165.666 49.7168 165.826L49.2246 166.986C48.9355 166.85 48.6113 166.734 48.252 166.641C47.8926 166.547 47.5195 166.5 47.1328 166.5C46.5195 166.5 45.9902 166.633 45.5449 166.898C45.1035 167.164 44.7637 167.539 44.5254 168.023C44.2871 168.504 44.168 169.072 44.168 169.729C44.168 170.365 44.2637 170.924 44.4551 171.404C44.6465 171.885 44.9453 172.26 45.3516 172.529C45.7617 172.795 46.291 172.928 46.9395 172.928C47.2637 172.928 47.5391 172.91 47.7656 172.875C47.9922 172.84 48.2012 172.801 48.3926 172.758V170.549H46.582V169.348ZM57.3457 167.514V174H56.2617L56.0742 173.127H55.998C55.8613 173.35 55.6875 173.535 55.4766 173.684C55.2656 173.828 55.0312 173.936 54.7734 174.006C54.5156 174.08 54.2441 174.117 53.959 174.117C53.4707 174.117 53.0527 174.035 52.7051 173.871C52.3613 173.703 52.0977 173.445 51.9141 173.098C51.7305 172.75 51.6387 172.301 51.6387 171.75V167.514H53.0215V171.492C53.0215 171.996 53.123 172.373 53.3262 172.623C53.5332 172.873 53.8535 172.998 54.2871 172.998C54.7051 172.998 55.0371 172.912 55.2832 172.74C55.5293 172.568 55.7031 172.314 55.8047 171.979C55.9102 171.643 55.9629 171.23 55.9629 170.742V167.514H57.3457ZM60.6973 167.514V174H59.3203V167.514H60.6973ZM60.0176 165.029C60.2285 165.029 60.4102 165.086 60.5625 165.199C60.7188 165.312 60.7969 165.508 60.7969 165.785C60.7969 166.059 60.7188 166.254 60.5625 166.371C60.4102 166.484 60.2285 166.541 60.0176 166.541C59.7988 166.541 59.6133 166.484 59.4609 166.371C59.3125 166.254 59.2383 166.059 59.2383 165.785C59.2383 165.508 59.3125 165.312 59.4609 165.199C59.6133 165.086 59.7988 165.029 60.0176 165.029ZM66.0527 167.391C66.7832 167.391 67.3516 167.58 67.7578 167.959C68.168 168.334 68.373 168.938 68.373 169.77V174H66.9961V170.027C66.9961 169.523 66.8926 169.146 66.6855 168.896C66.4785 168.643 66.1582 168.516 65.7246 168.516C65.0957 168.516 64.6582 168.709 64.4121 169.096C64.1699 169.482 64.0488 170.043 64.0488 170.777V174H62.6719V167.514H63.7441L63.9375 168.393H64.0137C64.1543 168.166 64.3281 167.98 64.5352 167.836C64.7461 167.688 64.9805 167.576 65.2383 167.502C65.5 167.428 65.7715 167.391 66.0527 167.391ZM72.8848 167.391C73.4629 167.391 73.959 167.51 74.373 167.748C74.7871 167.986 75.1055 168.324 75.3281 168.762C75.5508 169.199 75.6621 169.723 75.6621 170.332V171.07H71.332C71.3477 171.699 71.5156 172.184 71.8359 172.523C72.1602 172.863 72.6133 173.033 73.1953 173.033C73.6094 173.033 73.9805 172.994 74.3086 172.916C74.6406 172.834 74.9824 172.715 75.334 172.559V173.678C75.0098 173.83 74.6797 173.941 74.3438 174.012C74.0078 174.082 73.6055 174.117 73.1367 174.117C72.5 174.117 71.9395 173.994 71.4551 173.748C70.9746 173.498 70.5977 173.127 70.3242 172.635C70.0547 172.143 69.9199 171.531 69.9199 170.801C69.9199 170.074 70.043 169.457 70.2891 168.949C70.5352 168.441 70.8809 168.055 71.3262 167.789C71.7715 167.523 72.291 167.391 72.8848 167.391ZM72.8848 168.428C72.4512 168.428 72.0996 168.568 71.8301 168.85C71.5645 169.131 71.4082 169.543 71.3613 170.086H74.3145C74.3105 169.762 74.2559 169.475 74.1504 169.225C74.0488 168.975 73.8926 168.779 73.6816 168.639C73.4746 168.498 73.209 168.428 72.8848 168.428ZM79.7578 167.391C80.5781 167.391 81.1973 167.572 81.6152 167.936C82.0371 168.299 82.248 168.865 82.248 169.635V174H81.2695L81.0059 173.08H80.959C80.7754 173.314 80.5859 173.508 80.3906 173.66C80.1953 173.812 79.9688 173.926 79.7109 174C79.457 174.078 79.1465 174.117 78.7793 174.117C78.3926 174.117 78.0469 174.047 77.7422 173.906C77.4375 173.762 77.1973 173.543 77.0215 173.25C76.8457 172.957 76.7578 172.586 76.7578 172.137C76.7578 171.469 77.0059 170.967 77.502 170.631C78.002 170.295 78.7559 170.109 79.7637 170.074L80.8887 170.033V169.693C80.8887 169.244 80.7832 168.924 80.5723 168.732C80.3652 168.541 80.0723 168.445 79.6934 168.445C79.3691 168.445 79.0547 168.492 78.75 168.586C78.4453 168.68 78.1484 168.795 77.8594 168.932L77.4141 167.959C77.7305 167.791 78.0898 167.654 78.4922 167.549C78.8984 167.443 79.3203 167.391 79.7578 167.391ZM80.8828 170.9L80.0449 170.93C79.3574 170.953 78.875 171.07 78.5977 171.281C78.3203 171.492 78.1816 171.781 78.1816 172.148C78.1816 172.469 78.2773 172.703 78.4688 172.852C78.6602 172.996 78.9121 173.068 79.2246 173.068C79.7012 173.068 80.0957 172.934 80.4082 172.664C80.7246 172.391 80.8828 171.99 80.8828 171.463V170.9Z" fill="#4D4D4D"/>
<path d="M149.125 174V165.434H150.531V172.805H154.17V174H149.125ZM156.889 167.514V174H155.512V167.514H156.889ZM156.209 165.029C156.42 165.029 156.602 165.086 156.754 165.199C156.91 165.312 156.988 165.508 156.988 165.785C156.988 166.059 156.91 166.254 156.754 166.371C156.602 166.484 156.42 166.541 156.209 166.541C155.99 166.541 155.805 166.484 155.652 166.371C155.504 166.254 155.43 166.059 155.43 165.785C155.43 165.508 155.504 165.312 155.652 165.199C155.805 165.086 155.99 165.029 156.209 165.029ZM160.24 164.883V167.08C160.24 167.334 160.232 167.584 160.217 167.83C160.205 168.072 160.193 168.262 160.182 168.398H160.24C160.416 168.117 160.66 167.881 160.973 167.689C161.289 167.494 161.693 167.396 162.186 167.396C162.955 167.396 163.574 167.68 164.043 168.246C164.512 168.809 164.746 169.643 164.746 170.748C164.746 171.482 164.639 172.1 164.424 172.6C164.209 173.1 163.906 173.479 163.516 173.736C163.129 173.99 162.674 174.117 162.15 174.117C161.658 174.117 161.26 174.027 160.955 173.848C160.654 173.664 160.418 173.451 160.246 173.209H160.146L159.895 174H158.863V164.883H160.24ZM161.822 168.516C161.432 168.516 161.121 168.594 160.891 168.75C160.664 168.906 160.5 169.141 160.398 169.453C160.297 169.762 160.244 170.154 160.24 170.631V170.754C160.24 171.477 160.354 172.029 160.58 172.412C160.811 172.795 161.229 172.986 161.834 172.986C162.314 172.986 162.684 172.793 162.941 172.406C163.199 172.016 163.328 171.457 163.328 170.73C163.328 169.996 163.199 169.443 162.941 169.072C162.688 168.701 162.314 168.516 161.822 168.516ZM168.924 167.391C169.502 167.391 169.998 167.51 170.412 167.748C170.826 167.986 171.145 168.324 171.367 168.762C171.59 169.199 171.701 169.723 171.701 170.332V171.07H167.371C167.387 171.699 167.555 172.184 167.875 172.523C168.199 172.863 168.652 173.033 169.234 173.033C169.648 173.033 170.02 172.994 170.348 172.916C170.68 172.834 171.021 172.715 171.373 172.559V173.678C171.049 173.83 170.719 173.941 170.383 174.012C170.047 174.082 169.645 174.117 169.176 174.117C168.539 174.117 167.979 173.994 167.494 173.748C167.014 173.498 166.637 173.127 166.363 172.635C166.094 172.143 165.959 171.531 165.959 170.801C165.959 170.074 166.082 169.457 166.328 168.949C166.574 168.441 166.92 168.055 167.365 167.789C167.811 167.523 168.33 167.391 168.924 167.391ZM168.924 168.428C168.49 168.428 168.139 168.568 167.869 168.85C167.604 169.131 167.447 169.543 167.4 170.086H170.354C170.35 169.762 170.295 169.475 170.189 169.225C170.088 168.975 169.932 168.779 169.721 168.639C169.514 168.498 169.248 168.428 168.924 168.428ZM176.541 167.391C176.65 167.391 176.77 167.396 176.898 167.408C177.027 167.42 177.139 167.436 177.232 167.455L177.104 168.744C177.021 168.721 176.92 168.703 176.799 168.691C176.682 168.68 176.576 168.674 176.482 168.674C176.236 168.674 176.002 168.715 175.779 168.797C175.557 168.875 175.359 168.996 175.188 169.16C175.016 169.32 174.881 169.521 174.783 169.764C174.686 170.006 174.637 170.287 174.637 170.607V174H173.254V167.514H174.332L174.52 168.656H174.584C174.713 168.426 174.873 168.215 175.064 168.023C175.256 167.832 175.475 167.68 175.721 167.566C175.971 167.449 176.244 167.391 176.541 167.391ZM179.811 167.514V174H178.434V167.514H179.811ZM179.131 165.029C179.342 165.029 179.523 165.086 179.676 165.199C179.832 165.312 179.91 165.508 179.91 165.785C179.91 166.059 179.832 166.254 179.676 166.371C179.523 166.484 179.342 166.541 179.131 166.541C178.912 166.541 178.727 166.484 178.574 166.371C178.426 166.254 178.352 166.059 178.352 165.785C178.352 165.508 178.426 165.312 178.574 165.199C178.727 165.086 178.912 165.029 179.131 165.029ZM184.328 167.391C185.148 167.391 185.768 167.572 186.186 167.936C186.607 168.299 186.818 168.865 186.818 169.635V174H185.84L185.576 173.08H185.529C185.346 173.314 185.156 173.508 184.961 173.66C184.766 173.812 184.539 173.926 184.281 174C184.027 174.078 183.717 174.117 183.35 174.117C182.963 174.117 182.617 174.047 182.312 173.906C182.008 173.762 181.768 173.543 181.592 173.25C181.416 172.957 181.328 172.586 181.328 172.137C181.328 171.469 181.576 170.967 182.072 170.631C182.572 170.295 183.326 170.109 184.334 170.074L185.459 170.033V169.693C185.459 169.244 185.354 168.924 185.143 168.732C184.936 168.541 184.643 168.445 184.264 168.445C183.939 168.445 183.625 168.492 183.32 168.586C183.016 168.68 182.719 168.795 182.43 168.932L181.984 167.959C182.301 167.791 182.66 167.654 183.062 167.549C183.469 167.443 183.891 167.391 184.328 167.391ZM185.453 170.9L184.615 170.93C183.928 170.953 183.445 171.07 183.168 171.281C182.891 171.492 182.752 171.781 182.752 172.148C182.752 172.469 182.848 172.703 183.039 172.852C183.23 172.996 183.482 173.068 183.795 173.068C184.271 173.068 184.666 172.934 184.979 172.664C185.295 172.391 185.453 171.99 185.453 171.463V170.9Z" fill="#4D4D4D"/>
<path d="M371.096 174H369.684V166.629H367.176V165.434H373.598V166.629H371.096V174ZM380.512 170.742C380.512 171.281 380.441 171.76 380.301 172.178C380.16 172.596 379.955 172.949 379.686 173.238C379.416 173.523 379.092 173.742 378.713 173.895C378.334 174.043 377.906 174.117 377.43 174.117C376.984 174.117 376.576 174.043 376.205 173.895C375.834 173.742 375.512 173.523 375.238 173.238C374.969 172.949 374.76 172.596 374.611 172.178C374.463 171.76 374.389 171.281 374.389 170.742C374.389 170.027 374.512 169.422 374.758 168.926C375.008 168.426 375.363 168.045 375.824 167.783C376.285 167.521 376.834 167.391 377.471 167.391C378.068 167.391 378.596 167.521 379.053 167.783C379.51 168.045 379.867 168.426 380.125 168.926C380.383 169.426 380.512 170.031 380.512 170.742ZM375.807 170.742C375.807 171.215 375.863 171.619 375.977 171.955C376.094 172.291 376.273 172.549 376.516 172.729C376.758 172.904 377.07 172.992 377.453 172.992C377.836 172.992 378.148 172.904 378.391 172.729C378.633 172.549 378.811 172.291 378.924 171.955C379.037 171.619 379.094 171.215 379.094 170.742C379.094 170.27 379.037 169.869 378.924 169.541C378.811 169.209 378.633 168.957 378.391 168.785C378.148 168.609 377.834 168.521 377.447 168.521C376.877 168.521 376.461 168.713 376.199 169.096C375.938 169.479 375.807 170.027 375.807 170.742ZM384.508 173.004C384.688 173.004 384.865 172.988 385.041 172.957C385.217 172.922 385.377 172.881 385.521 172.834V173.877C385.369 173.943 385.172 174 384.93 174.047C384.688 174.094 384.436 174.117 384.174 174.117C383.807 174.117 383.477 174.057 383.184 173.936C382.891 173.811 382.658 173.598 382.486 173.297C382.314 172.996 382.229 172.58 382.229 172.049V168.562H381.344V167.947L382.293 167.461L382.744 166.072H383.611V167.514H385.469V168.562H383.611V172.031C383.611 172.359 383.693 172.604 383.857 172.764C384.021 172.924 384.238 173.004 384.508 173.004ZM389.383 167.391C390.203 167.391 390.822 167.572 391.24 167.936C391.662 168.299 391.873 168.865 391.873 169.635V174H390.895L390.631 173.08H390.584C390.4 173.314 390.211 173.508 390.016 173.66C389.82 173.812 389.594 173.926 389.336 174C389.082 174.078 388.771 174.117 388.404 174.117C388.018 174.117 387.672 174.047 387.367 173.906C387.062 173.762 386.822 173.543 386.646 173.25C386.471 172.957 386.383 172.586 386.383 172.137C386.383 171.469 386.631 170.967 387.127 170.631C387.627 170.295 388.381 170.109 389.389 170.074L390.514 170.033V169.693C390.514 169.244 390.408 168.924 390.197 168.732C389.99 168.541 389.697 168.445 389.318 168.445C388.994 168.445 388.68 168.492 388.375 168.586C388.07 168.68 387.773 168.795 387.484 168.932L387.039 167.959C387.355 167.791 387.715 167.654 388.117 167.549C388.523 167.443 388.945 167.391 389.383 167.391ZM390.508 170.9L389.67 170.93C388.982 170.953 388.5 171.07 388.223 171.281C387.945 171.492 387.807 171.781 387.807 172.148C387.807 172.469 387.902 172.703 388.094 172.852C388.285 172.996 388.537 173.068 388.85 173.068C389.326 173.068 389.721 172.934 390.033 172.664C390.35 172.391 390.508 171.99 390.508 171.463V170.9ZM395.184 174H393.801V164.883H395.184V174ZM401.512 172.148C401.512 172.574 401.408 172.934 401.201 173.227C400.994 173.52 400.691 173.742 400.293 173.895C399.898 174.043 399.414 174.117 398.84 174.117C398.387 174.117 397.996 174.084 397.668 174.018C397.344 173.955 397.037 173.857 396.748 173.725V172.535C397.057 172.68 397.402 172.805 397.785 172.91C398.172 173.016 398.537 173.068 398.881 173.068C399.334 173.068 399.66 172.998 399.859 172.857C400.059 172.713 400.158 172.521 400.158 172.283C400.158 172.143 400.117 172.018 400.035 171.908C399.957 171.795 399.809 171.68 399.59 171.562C399.375 171.441 399.059 171.297 398.641 171.129C398.23 170.965 397.885 170.801 397.604 170.637C397.322 170.473 397.109 170.275 396.965 170.045C396.82 169.811 396.748 169.512 396.748 169.148C396.748 168.574 396.975 168.139 397.428 167.842C397.885 167.541 398.488 167.391 399.238 167.391C399.637 167.391 400.012 167.432 400.363 167.514C400.719 167.592 401.066 167.707 401.406 167.859L400.973 168.896C400.68 168.768 400.385 168.662 400.088 168.58C399.795 168.494 399.496 168.451 399.191 168.451C398.836 168.451 398.564 168.506 398.377 168.615C398.193 168.725 398.102 168.881 398.102 169.084C398.102 169.236 398.146 169.365 398.236 169.471C398.326 169.576 398.48 169.682 398.699 169.787C398.922 169.893 399.23 170.023 399.625 170.18C400.012 170.328 400.346 170.484 400.627 170.648C400.912 170.809 401.131 171.006 401.283 171.24C401.436 171.475 401.512 171.777 401.512 172.148Z" fill="#4D4D4D"/>
<path d="M346.984 13H341.371V12.1855L343.662 9.85938C344.088 9.42969 344.445 9.04688 344.734 8.71094C345.027 8.375 345.25 8.04492 345.402 7.7207C345.555 7.39258 345.631 7.0332 345.631 6.64258C345.631 6.1582 345.486 5.78906 345.197 5.53516C344.912 5.27734 344.535 5.14844 344.066 5.14844C343.656 5.14844 343.293 5.21875 342.977 5.35938C342.66 5.5 342.336 5.69922 342.004 5.95703L341.482 5.30078C341.709 5.10938 341.955 4.93945 342.221 4.79102C342.49 4.64258 342.777 4.52539 343.082 4.43945C343.391 4.35352 343.719 4.31055 344.066 4.31055C344.594 4.31055 345.049 4.40234 345.432 4.58594C345.814 4.76953 346.109 5.03125 346.316 5.37109C346.527 5.71094 346.633 6.11523 346.633 6.58398C346.633 7.03711 346.543 7.45898 346.363 7.84961C346.184 8.23633 345.932 8.62109 345.607 9.00391C345.283 9.38281 344.904 9.78516 344.471 10.2109L342.607 12.0684V12.1094H346.984V13ZM351.068 4.31055C351.564 4.31055 352.004 4.38867 352.387 4.54492C352.77 4.70117 353.068 4.93164 353.283 5.23633C353.502 5.53711 353.611 5.9082 353.611 6.34961C353.611 6.69727 353.535 7.00195 353.383 7.26367C353.234 7.52148 353.033 7.74805 352.779 7.94336C352.525 8.13477 352.244 8.30664 351.936 8.45898C352.303 8.62695 352.633 8.81641 352.926 9.02734C353.223 9.23828 353.457 9.48633 353.629 9.77148C353.801 10.0566 353.887 10.3945 353.887 10.7852C353.887 11.2656 353.77 11.6816 353.535 12.0332C353.305 12.3809 352.98 12.6484 352.562 12.8359C352.145 13.0234 351.654 13.1172 351.092 13.1172C350.486 13.1172 349.971 13.0273 349.545 12.8477C349.123 12.6641 348.801 12.4023 348.578 12.0625C348.359 11.7188 348.25 11.3066 348.25 10.8262C348.25 10.4316 348.334 10.0898 348.502 9.80078C348.67 9.50781 348.893 9.25586 349.17 9.04492C349.447 8.83398 349.75 8.65625 350.078 8.51172C349.793 8.35547 349.531 8.17773 349.293 7.97852C349.059 7.7793 348.871 7.54688 348.73 7.28125C348.594 7.01172 348.525 6.69922 348.525 6.34375C348.525 5.91016 348.635 5.54297 348.854 5.24219C349.076 4.9375 349.379 4.70703 349.762 4.55078C350.148 4.39062 350.584 4.31055 351.068 4.31055ZM349.205 10.832C349.205 11.2695 349.359 11.6309 349.668 11.916C349.977 12.1973 350.443 12.3379 351.068 12.3379C351.662 12.3379 352.121 12.1973 352.445 11.916C352.77 11.6309 352.932 11.2578 352.932 10.7969C352.932 10.5117 352.857 10.2617 352.709 10.0469C352.561 9.82812 352.35 9.63281 352.076 9.46094C351.803 9.28906 351.48 9.13281 351.109 8.99219L350.898 8.91602C350.539 9.06445 350.232 9.23047 349.979 9.41406C349.729 9.59375 349.537 9.79883 349.404 10.0293C349.271 10.2598 349.205 10.5273 349.205 10.832ZM351.057 5.10742C350.596 5.10742 350.219 5.21875 349.926 5.44141C349.633 5.66016 349.486 5.97656 349.486 6.39062C349.486 6.6875 349.557 6.93945 349.697 7.14648C349.842 7.34961 350.037 7.52539 350.283 7.67383C350.529 7.81836 350.805 7.95312 351.109 8.07812C351.406 7.95312 351.67 7.81641 351.9 7.66797C352.131 7.51562 352.312 7.33594 352.445 7.12891C352.578 6.92188 352.645 6.67383 352.645 6.38477C352.645 5.9707 352.498 5.6543 352.205 5.43555C351.916 5.2168 351.533 5.10742 351.057 5.10742ZM356.652 11.6055L356.729 11.7402C356.658 12.0254 356.568 12.3301 356.459 12.6543C356.354 12.9785 356.236 13.3027 356.107 13.627C355.982 13.9551 355.855 14.2617 355.727 14.5469H355C355.082 14.2344 355.162 13.9043 355.24 13.5566C355.318 13.2129 355.389 12.873 355.451 12.5371C355.518 12.1973 355.57 11.8867 355.609 11.6055H356.652ZM358.299 9.33789C358.299 8.82227 358.334 8.31836 358.404 7.82617C358.479 7.33398 358.602 6.87695 358.773 6.45508C358.945 6.0293 359.18 5.65625 359.477 5.33594C359.773 5.01562 360.143 4.76562 360.584 4.58594C361.029 4.40234 361.562 4.31055 362.184 4.31055C362.359 4.31055 362.549 4.32031 362.752 4.33984C362.955 4.35547 363.123 4.38281 363.256 4.42188V5.25977C363.111 5.20898 362.945 5.17188 362.758 5.14844C362.574 5.125 362.389 5.11328 362.201 5.11328C361.475 5.11328 360.902 5.27148 360.484 5.58789C360.07 5.9043 359.771 6.33398 359.588 6.87695C359.404 7.41602 359.299 8.02344 359.271 8.69922H359.336C359.457 8.50391 359.611 8.32812 359.799 8.17188C359.986 8.01172 360.213 7.88477 360.479 7.79102C360.748 7.69727 361.061 7.65039 361.416 7.65039C361.916 7.65039 362.352 7.75195 362.723 7.95508C363.098 8.1582 363.387 8.45312 363.59 8.83984C363.797 9.22656 363.9 9.69531 363.9 10.2461C363.9 10.8359 363.791 11.3457 363.572 11.7754C363.354 12.2051 363.041 12.5371 362.635 12.7715C362.232 13.002 361.752 13.1172 361.193 13.1172C360.775 13.1172 360.391 13.0371 360.039 12.877C359.688 12.7168 359.381 12.4785 359.119 12.1621C358.861 11.8457 358.66 11.4531 358.516 10.9844C358.371 10.5117 358.299 9.96289 358.299 9.33789ZM361.182 12.2969C361.713 12.2969 362.139 12.127 362.459 11.7871C362.779 11.4473 362.939 10.9336 362.939 10.2461C362.939 9.68359 362.797 9.23828 362.512 8.91016C362.227 8.58203 361.797 8.41797 361.223 8.41797C360.832 8.41797 360.492 8.5 360.203 8.66406C359.914 8.82422 359.689 9.02734 359.529 9.27344C359.369 9.51953 359.289 9.76953 359.289 10.0234C359.289 10.2812 359.326 10.543 359.4 10.8086C359.479 11.0742 359.596 11.3203 359.752 11.5469C359.908 11.7734 360.105 11.9551 360.344 12.0918C360.582 12.2285 360.861 12.2969 361.182 12.2969ZM368.699 13H367.75V6.92969C367.75 6.69922 367.75 6.50195 367.75 6.33789C367.754 6.16992 367.758 6.01758 367.762 5.88086C367.77 5.74023 367.779 5.59766 367.791 5.45312C367.67 5.57812 367.557 5.68555 367.451 5.77539C367.346 5.86133 367.215 5.96875 367.059 6.09766L366.08 6.88281L365.57 6.2207L367.891 4.43359H368.699V13ZM372.033 9.33789C372.033 8.82227 372.068 8.31836 372.139 7.82617C372.213 7.33398 372.336 6.87695 372.508 6.45508C372.68 6.0293 372.914 5.65625 373.211 5.33594C373.508 5.01562 373.877 4.76562 374.318 4.58594C374.764 4.40234 375.297 4.31055 375.918 4.31055C376.094 4.31055 376.283 4.32031 376.486 4.33984C376.689 4.35547 376.857 4.38281 376.99 4.42188V5.25977C376.846 5.20898 376.68 5.17188 376.492 5.14844C376.309 5.125 376.123 5.11328 375.936 5.11328C375.209 5.11328 374.637 5.27148 374.219 5.58789C373.805 5.9043 373.506 6.33398 373.322 6.87695C373.139 7.41602 373.033 8.02344 373.006 8.69922H373.07C373.191 8.50391 373.346 8.32812 373.533 8.17188C373.721 8.01172 373.947 7.88477 374.213 7.79102C374.482 7.69727 374.795 7.65039 375.15 7.65039C375.65 7.65039 376.086 7.75195 376.457 7.95508C376.832 8.1582 377.121 8.45312 377.324 8.83984C377.531 9.22656 377.635 9.69531 377.635 10.2461C377.635 10.8359 377.525 11.3457 377.307 11.7754C377.088 12.2051 376.775 12.5371 376.369 12.7715C375.967 13.002 375.486 13.1172 374.928 13.1172C374.51 13.1172 374.125 13.0371 373.773 12.877C373.422 12.7168 373.115 12.4785 372.854 12.1621C372.596 11.8457 372.395 11.4531 372.25 10.9844C372.105 10.5117 372.033 9.96289 372.033 9.33789ZM374.916 12.2969C375.447 12.2969 375.873 12.127 376.193 11.7871C376.514 11.4473 376.674 10.9336 376.674 10.2461C376.674 9.68359 376.531 9.23828 376.246 8.91016C375.961 8.58203 375.531 8.41797 374.957 8.41797C374.566 8.41797 374.227 8.5 373.938 8.66406C373.648 8.82422 373.424 9.02734 373.264 9.27344C373.104 9.51953 373.023 9.76953 373.023 10.0234C373.023 10.2812 373.061 10.543 373.135 10.8086C373.213 11.0742 373.33 11.3203 373.486 11.5469C373.643 11.7734 373.84 11.9551 374.078 12.0918C374.316 12.2285 374.596 12.2969 374.916 12.2969Z" fill="#4D4D4D"/>
<path d="M283.602 121.432C283.602 121.814 283.527 122.146 283.379 122.428C283.23 122.709 283.023 122.939 282.758 123.119C282.492 123.295 282.18 123.418 281.82 123.488V123.535C282.5 123.621 283.01 123.84 283.35 124.191C283.693 124.543 283.865 125.004 283.865 125.574C283.865 126.07 283.748 126.51 283.514 126.893C283.283 127.275 282.928 127.576 282.447 127.795C281.971 128.01 281.359 128.117 280.613 128.117C280.16 128.117 279.74 128.08 279.354 128.006C278.971 127.936 278.604 127.816 278.252 127.648V126.734C278.607 126.91 278.994 127.049 279.412 127.15C279.83 127.248 280.234 127.297 280.625 127.297C281.406 127.297 281.971 127.143 282.318 126.834C282.666 126.521 282.84 126.096 282.84 125.557C282.84 125.186 282.742 124.887 282.547 124.66C282.355 124.43 282.078 124.262 281.715 124.156C281.355 124.047 280.922 123.992 280.414 123.992H279.559V123.16H280.42C280.885 123.16 281.279 123.092 281.604 122.955C281.928 122.818 282.174 122.627 282.342 122.381C282.514 122.131 282.6 121.836 282.6 121.496C282.6 121.062 282.455 120.729 282.166 120.494C281.877 120.256 281.484 120.137 280.988 120.137C280.684 120.137 280.406 120.168 280.156 120.23C279.906 120.293 279.672 120.379 279.453 120.488C279.234 120.598 279.016 120.725 278.797 120.869L278.305 120.201C278.617 119.959 278.998 119.75 279.447 119.574C279.896 119.398 280.406 119.311 280.977 119.311C281.852 119.311 282.508 119.51 282.945 119.908C283.383 120.307 283.602 120.814 283.602 121.432ZM286.719 126.605L286.795 126.74C286.725 127.025 286.635 127.33 286.525 127.654C286.42 127.979 286.303 128.303 286.174 128.627C286.049 128.955 285.922 129.262 285.793 129.547H285.066C285.148 129.234 285.229 128.904 285.307 128.557C285.385 128.213 285.455 127.873 285.518 127.537C285.584 127.197 285.637 126.887 285.676 126.605H286.719ZM293.902 123.084C293.902 123.604 293.865 124.109 293.791 124.602C293.721 125.094 293.598 125.553 293.422 125.979C293.25 126.404 293.016 126.777 292.719 127.098C292.422 127.418 292.049 127.67 291.6 127.854C291.154 128.033 290.621 128.123 290 128.123C289.832 128.123 289.641 128.111 289.426 128.088C289.211 128.068 289.035 128.039 288.898 128V127.156C289.043 127.207 289.213 127.248 289.408 127.279C289.604 127.307 289.795 127.32 289.982 127.32C290.713 127.32 291.287 127.164 291.705 126.852C292.123 126.535 292.424 126.107 292.607 125.568C292.791 125.025 292.895 124.416 292.918 123.74H292.848C292.73 123.928 292.576 124.102 292.385 124.262C292.197 124.418 291.969 124.545 291.699 124.643C291.43 124.736 291.115 124.783 290.756 124.783C290.26 124.783 289.826 124.682 289.455 124.479C289.088 124.275 288.801 123.98 288.594 123.594C288.391 123.207 288.289 122.74 288.289 122.193C288.289 121.604 288.4 121.094 288.623 120.664C288.85 120.23 289.166 119.896 289.572 119.662C289.979 119.428 290.457 119.311 291.008 119.311C291.43 119.311 291.816 119.391 292.168 119.551C292.52 119.711 292.824 119.951 293.082 120.271C293.344 120.588 293.545 120.98 293.686 121.449C293.83 121.918 293.902 122.463 293.902 123.084ZM291.008 120.137C290.488 120.137 290.066 120.307 289.742 120.646C289.422 120.986 289.262 121.498 289.262 122.182C289.262 122.748 289.4 123.195 289.678 123.523C289.955 123.852 290.383 124.016 290.961 124.016C291.359 124.016 291.703 123.936 291.992 123.775C292.285 123.615 292.51 123.412 292.666 123.166C292.826 122.92 292.906 122.668 292.906 122.41C292.906 122.152 292.867 121.891 292.789 121.625C292.715 121.359 292.6 121.115 292.443 120.893C292.287 120.666 292.09 120.484 291.852 120.348C291.613 120.207 291.332 120.137 291.008 120.137ZM297.852 122.762C298.434 122.762 298.939 122.861 299.369 123.061C299.799 123.256 300.131 123.541 300.365 123.916C300.604 124.291 300.723 124.746 300.723 125.281C300.723 125.867 300.596 126.373 300.342 126.799C300.088 127.221 299.723 127.547 299.246 127.777C298.77 128.004 298.199 128.117 297.535 128.117C297.09 128.117 296.676 128.078 296.293 128C295.91 127.922 295.588 127.805 295.326 127.648V126.723C295.611 126.895 295.957 127.031 296.363 127.133C296.77 127.234 297.164 127.285 297.547 127.285C297.98 127.285 298.359 127.217 298.684 127.08C299.012 126.939 299.266 126.729 299.445 126.447C299.629 126.162 299.721 125.805 299.721 125.375C299.721 124.805 299.545 124.365 299.193 124.057C298.846 123.744 298.295 123.588 297.541 123.588C297.299 123.588 297.033 123.607 296.744 123.646C296.455 123.686 296.217 123.729 296.029 123.775L295.537 123.453L295.865 119.434H300.125V120.324H296.697L296.48 122.908C296.629 122.877 296.82 122.846 297.055 122.814C297.289 122.779 297.555 122.762 297.852 122.762ZM302.1 124.338C302.1 123.822 302.135 123.318 302.205 122.826C302.279 122.334 302.402 121.877 302.574 121.455C302.746 121.029 302.98 120.656 303.277 120.336C303.574 120.016 303.943 119.766 304.385 119.586C304.83 119.402 305.363 119.311 305.984 119.311C306.16 119.311 306.35 119.32 306.553 119.34C306.756 119.355 306.924 119.383 307.057 119.422V120.26C306.912 120.209 306.746 120.172 306.559 120.148C306.375 120.125 306.189 120.113 306.002 120.113C305.275 120.113 304.703 120.271 304.285 120.588C303.871 120.904 303.572 121.334 303.389 121.877C303.205 122.416 303.1 123.023 303.072 123.699H303.137C303.258 123.504 303.412 123.328 303.6 123.172C303.787 123.012 304.014 122.885 304.279 122.791C304.549 122.697 304.861 122.65 305.217 122.65C305.717 122.65 306.152 122.752 306.523 122.955C306.898 123.158 307.188 123.453 307.391 123.84C307.598 124.227 307.701 124.695 307.701 125.246C307.701 125.836 307.592 126.346 307.373 126.775C307.154 127.205 306.842 127.537 306.436 127.771C306.033 128.002 305.553 128.117 304.994 128.117C304.576 128.117 304.191 128.037 303.84 127.877C303.488 127.717 303.182 127.479 302.92 127.162C302.662 126.846 302.461 126.453 302.316 125.984C302.172 125.512 302.1 124.963 302.1 124.338ZM304.982 127.297C305.514 127.297 305.939 127.127 306.26 126.787C306.58 126.447 306.74 125.934 306.74 125.246C306.74 124.684 306.598 124.238 306.312 123.91C306.027 123.582 305.598 123.418 305.023 123.418C304.633 123.418 304.293 123.5 304.004 123.664C303.715 123.824 303.49 124.027 303.33 124.273C303.17 124.52 303.09 124.77 303.09 125.023C303.09 125.281 303.127 125.543 303.201 125.809C303.279 126.074 303.396 126.32 303.553 126.547C303.709 126.773 303.906 126.955 304.145 127.092C304.383 127.229 304.662 127.297 304.982 127.297Z" fill="#4D4D4D"/>
<path d="M236.992 82H236.043V75.9297C236.043 75.6992 236.043 75.502 236.043 75.3379C236.047 75.1699 236.051 75.0176 236.055 74.8809C236.062 74.7402 236.072 74.5977 236.084 74.4531C235.963 74.5781 235.85 74.6855 235.744 74.7754C235.639 74.8613 235.508 74.9688 235.352 75.0977L234.373 75.8828L233.863 75.2207L236.184 73.4336H236.992V82ZM246.279 80.0137H244.996V82H244.047V80.0137H239.904V79.1934L243.982 73.3867H244.996V79.1348H246.279V80.0137ZM244.047 79.1348V76.334C244.047 76.1191 244.049 75.9258 244.053 75.7539C244.057 75.5781 244.062 75.416 244.07 75.2676C244.078 75.1152 244.084 74.9707 244.088 74.834C244.096 74.6973 244.102 74.5625 244.105 74.4297H244.059C243.984 74.5859 243.898 74.752 243.801 74.9277C243.707 75.0996 243.611 75.2539 243.514 75.3906L240.871 79.1348H244.047ZM248.652 80.6055L248.729 80.7402C248.658 81.0254 248.568 81.3301 248.459 81.6543C248.354 81.9785 248.236 82.3027 248.107 82.627C247.982 82.9551 247.855 83.2617 247.727 83.5469H247C247.082 83.2344 247.162 82.9043 247.24 82.5566C247.318 82.2129 247.389 81.873 247.451 81.5371C247.518 81.1973 247.57 80.8867 247.609 80.6055H248.652ZM253.832 82H252.883V75.9297C252.883 75.6992 252.883 75.502 252.883 75.3379C252.887 75.1699 252.891 75.0176 252.895 74.8809C252.902 74.7402 252.912 74.5977 252.924 74.4531C252.803 74.5781 252.689 74.6855 252.584 74.7754C252.479 74.8613 252.348 74.9688 252.191 75.0977L251.213 75.8828L250.703 75.2207L253.023 73.4336H253.832V82ZM262.691 82H257.078V81.1855L259.369 78.8594C259.795 78.4297 260.152 78.0469 260.441 77.7109C260.734 77.375 260.957 77.0449 261.109 76.7207C261.262 76.3926 261.338 76.0332 261.338 75.6426C261.338 75.1582 261.193 74.7891 260.904 74.5352C260.619 74.2773 260.242 74.1484 259.773 74.1484C259.363 74.1484 259 74.2188 258.684 74.3594C258.367 74.5 258.043 74.6992 257.711 74.957L257.189 74.3008C257.416 74.1094 257.662 73.9395 257.928 73.791C258.197 73.6426 258.484 73.5254 258.789 73.4395C259.098 73.3535 259.426 73.3105 259.773 73.3105C260.301 73.3105 260.756 73.4023 261.139 73.5859C261.521 73.7695 261.816 74.0312 262.023 74.3711C262.234 74.7109 262.34 75.1152 262.34 75.584C262.34 76.0371 262.25 76.459 262.07 76.8496C261.891 77.2363 261.639 77.6211 261.314 78.0039C260.99 78.3828 260.611 78.7852 260.178 79.2109L258.314 81.0684V81.1094H262.691V82ZM269.986 80.0137H268.703V82H267.754V80.0137H263.611V79.1934L267.689 73.3867H268.703V79.1348H269.986V80.0137ZM267.754 79.1348V76.334C267.754 76.1191 267.756 75.9258 267.76 75.7539C267.764 75.5781 267.77 75.416 267.777 75.2676C267.785 75.1152 267.791 74.9707 267.795 74.834C267.803 74.6973 267.809 74.5625 267.812 74.4297H267.766C267.691 74.5859 267.605 74.752 267.508 74.9277C267.414 75.0996 267.318 75.2539 267.221 75.3906L264.578 79.1348H267.754Z" fill="#4D4D4D"/>
<path d="M178.346 121.014H177.062V123H176.113V121.014H171.971V120.193L176.049 114.387H177.062V120.135H178.346V121.014ZM176.113 120.135V117.334C176.113 117.119 176.115 116.926 176.119 116.754C176.123 116.578 176.129 116.416 176.137 116.268C176.145 116.115 176.15 115.971 176.154 115.834C176.162 115.697 176.168 115.562 176.172 115.43H176.125C176.051 115.586 175.965 115.752 175.867 115.928C175.773 116.1 175.678 116.254 175.58 116.391L172.938 120.135H176.113ZM180.719 121.605L180.795 121.74C180.725 122.025 180.635 122.33 180.525 122.654C180.42 122.979 180.303 123.303 180.174 123.627C180.049 123.955 179.922 124.262 179.793 124.547H179.066C179.148 124.234 179.229 123.904 179.307 123.557C179.385 123.213 179.455 122.873 179.518 122.537C179.584 122.197 179.637 121.887 179.676 121.605H180.719ZM185.107 114.311C185.604 114.311 186.043 114.389 186.426 114.545C186.809 114.701 187.107 114.932 187.322 115.236C187.541 115.537 187.65 115.908 187.65 116.35C187.65 116.697 187.574 117.002 187.422 117.264C187.273 117.521 187.072 117.748 186.818 117.943C186.564 118.135 186.283 118.307 185.975 118.459C186.342 118.627 186.672 118.816 186.965 119.027C187.262 119.238 187.496 119.486 187.668 119.771C187.84 120.057 187.926 120.395 187.926 120.785C187.926 121.266 187.809 121.682 187.574 122.033C187.344 122.381 187.02 122.648 186.602 122.836C186.184 123.023 185.693 123.117 185.131 123.117C184.525 123.117 184.01 123.027 183.584 122.848C183.162 122.664 182.84 122.402 182.617 122.062C182.398 121.719 182.289 121.307 182.289 120.826C182.289 120.432 182.373 120.09 182.541 119.801C182.709 119.508 182.932 119.256 183.209 119.045C183.486 118.834 183.789 118.656 184.117 118.512C183.832 118.355 183.57 118.178 183.332 117.979C183.098 117.779 182.91 117.547 182.77 117.281C182.633 117.012 182.564 116.699 182.564 116.344C182.564 115.91 182.674 115.543 182.893 115.242C183.115 114.938 183.418 114.707 183.801 114.551C184.188 114.391 184.623 114.311 185.107 114.311ZM183.244 120.832C183.244 121.27 183.398 121.631 183.707 121.916C184.016 122.197 184.482 122.338 185.107 122.338C185.701 122.338 186.16 122.197 186.484 121.916C186.809 121.631 186.971 121.258 186.971 120.797C186.971 120.512 186.896 120.262 186.748 120.047C186.6 119.828 186.389 119.633 186.115 119.461C185.842 119.289 185.52 119.133 185.148 118.992L184.938 118.916C184.578 119.064 184.271 119.23 184.018 119.414C183.768 119.594 183.576 119.799 183.443 120.029C183.311 120.26 183.244 120.527 183.244 120.832ZM185.096 115.107C184.635 115.107 184.258 115.219 183.965 115.441C183.672 115.66 183.525 115.977 183.525 116.391C183.525 116.688 183.596 116.939 183.736 117.146C183.881 117.35 184.076 117.525 184.322 117.674C184.568 117.818 184.844 117.953 185.148 118.078C185.445 117.953 185.709 117.816 185.939 117.668C186.17 117.516 186.352 117.336 186.484 117.129C186.617 116.922 186.684 116.674 186.684 116.385C186.684 115.971 186.537 115.654 186.244 115.436C185.955 115.217 185.572 115.107 185.096 115.107ZM192.766 123H191.816V116.93C191.816 116.699 191.816 116.502 191.816 116.338C191.82 116.17 191.824 116.018 191.828 115.881C191.836 115.74 191.846 115.598 191.857 115.453C191.736 115.578 191.623 115.686 191.518 115.775C191.412 115.861 191.281 115.969 191.125 116.098L190.146 116.883L189.637 116.221L191.957 114.434H192.766V123ZM201.672 118.705C201.672 119.4 201.619 120.021 201.514 120.568C201.408 121.115 201.242 121.578 201.016 121.957C200.789 122.336 200.496 122.625 200.137 122.824C199.777 123.02 199.346 123.117 198.842 123.117C198.205 123.117 197.678 122.943 197.26 122.596C196.846 122.248 196.535 121.746 196.328 121.09C196.125 120.43 196.023 119.635 196.023 118.705C196.023 117.791 196.115 117.006 196.299 116.35C196.486 115.689 196.787 115.184 197.201 114.832C197.615 114.477 198.162 114.299 198.842 114.299C199.486 114.299 200.018 114.475 200.436 114.826C200.854 115.174 201.164 115.678 201.367 116.338C201.57 116.994 201.672 117.783 201.672 118.705ZM197.002 118.705C197.002 119.502 197.062 120.166 197.184 120.697C197.305 121.229 197.5 121.627 197.77 121.893C198.043 122.154 198.4 122.285 198.842 122.285C199.283 122.285 199.639 122.154 199.908 121.893C200.182 121.631 200.379 121.234 200.5 120.703C200.625 120.172 200.688 119.506 200.688 118.705C200.688 117.92 200.627 117.264 200.506 116.736C200.385 116.205 200.189 115.807 199.92 115.541C199.65 115.271 199.291 115.137 198.842 115.137C198.393 115.137 198.033 115.271 197.764 115.541C197.494 115.807 197.299 116.205 197.178 116.736C197.061 117.264 197.002 117.92 197.002 118.705Z" fill="#4D4D4D"/>
<path d="M131.992 98H131.043V91.9297C131.043 91.6992 131.043 91.502 131.043 91.3379C131.047 91.1699 131.051 91.0176 131.055 90.8809C131.062 90.7402 131.072 90.5977 131.084 90.4531C130.963 90.5781 130.85 90.6855 130.744 90.7754C130.639 90.8613 130.508 90.9688 130.352 91.0977L129.373 91.8828L128.863 91.2207L131.184 89.4336H131.992V98ZM140.898 93.7051C140.898 94.4004 140.846 95.0215 140.74 95.5684C140.635 96.1152 140.469 96.5781 140.242 96.957C140.016 97.3359 139.723 97.625 139.363 97.8242C139.004 98.0195 138.572 98.1172 138.068 98.1172C137.432 98.1172 136.904 97.9434 136.486 97.5957C136.072 97.248 135.762 96.7461 135.555 96.0898C135.352 95.4297 135.25 94.6348 135.25 93.7051C135.25 92.791 135.342 92.0059 135.525 91.3496C135.713 90.6895 136.014 90.1836 136.428 89.832C136.842 89.4766 137.389 89.2988 138.068 89.2988C138.713 89.2988 139.244 89.4746 139.662 89.8262C140.08 90.1738 140.391 90.6777 140.594 91.3379C140.797 91.9941 140.898 92.7832 140.898 93.7051ZM136.229 93.7051C136.229 94.502 136.289 95.166 136.41 95.6973C136.531 96.2285 136.727 96.627 136.996 96.8926C137.27 97.1543 137.627 97.2852 138.068 97.2852C138.51 97.2852 138.865 97.1543 139.135 96.8926C139.408 96.6309 139.605 96.2344 139.727 95.7031C139.852 95.1719 139.914 94.5059 139.914 93.7051C139.914 92.9199 139.854 92.2637 139.732 91.7363C139.611 91.2051 139.416 90.8066 139.146 90.541C138.877 90.2715 138.518 90.1367 138.068 90.1367C137.619 90.1367 137.26 90.2715 136.99 90.541C136.721 90.8066 136.525 91.2051 136.404 91.7363C136.287 92.2637 136.229 92.9199 136.229 93.7051ZM143.652 96.6055L143.729 96.7402C143.658 97.0254 143.568 97.3301 143.459 97.6543C143.354 97.9785 143.236 98.3027 143.107 98.627C142.982 98.9551 142.855 99.2617 142.727 99.5469H142C142.082 99.2344 142.162 98.9043 142.24 98.5566C142.318 98.2129 142.389 97.873 142.451 97.5371C142.518 97.1973 142.57 96.8867 142.609 96.6055H143.652ZM145.299 94.3379C145.299 93.8223 145.334 93.3184 145.404 92.8262C145.479 92.334 145.602 91.877 145.773 91.4551C145.945 91.0293 146.18 90.6562 146.477 90.3359C146.773 90.0156 147.143 89.7656 147.584 89.5859C148.029 89.4023 148.562 89.3105 149.184 89.3105C149.359 89.3105 149.549 89.3203 149.752 89.3398C149.955 89.3555 150.123 89.3828 150.256 89.4219V90.2598C150.111 90.209 149.945 90.1719 149.758 90.1484C149.574 90.125 149.389 90.1133 149.201 90.1133C148.475 90.1133 147.902 90.2715 147.484 90.5879C147.07 90.9043 146.771 91.334 146.588 91.877C146.404 92.416 146.299 93.0234 146.271 93.6992H146.336C146.457 93.5039 146.611 93.3281 146.799 93.1719C146.986 93.0117 147.213 92.8848 147.479 92.791C147.748 92.6973 148.061 92.6504 148.416 92.6504C148.916 92.6504 149.352 92.752 149.723 92.9551C150.098 93.1582 150.387 93.4531 150.59 93.8398C150.797 94.2266 150.9 94.6953 150.9 95.2461C150.9 95.8359 150.791 96.3457 150.572 96.7754C150.354 97.2051 150.041 97.5371 149.635 97.7715C149.232 98.002 148.752 98.1172 148.193 98.1172C147.775 98.1172 147.391 98.0371 147.039 97.877C146.688 97.7168 146.381 97.4785 146.119 97.1621C145.861 96.8457 145.66 96.4531 145.516 95.9844C145.371 95.5117 145.299 94.9629 145.299 94.3379ZM148.182 97.2969C148.713 97.2969 149.139 97.127 149.459 96.7871C149.779 96.4473 149.939 95.9336 149.939 95.2461C149.939 94.6836 149.797 94.2383 149.512 93.9102C149.227 93.582 148.797 93.418 148.223 93.418C147.832 93.418 147.492 93.5 147.203 93.6641C146.914 93.8242 146.689 94.0273 146.529 94.2734C146.369 94.5195 146.289 94.7695 146.289 95.0234C146.289 95.2812 146.326 95.543 146.4 95.8086C146.479 96.0742 146.596 96.3203 146.752 96.5469C146.908 96.7734 147.105 96.9551 147.344 97.0918C147.582 97.2285 147.861 97.2969 148.182 97.2969ZM153.186 98L156.701 90.3242H152.031V89.4336H157.744V90.1836L154.252 98H153.186ZM161.775 89.3105C162.271 89.3105 162.711 89.3887 163.094 89.5449C163.477 89.7012 163.775 89.9316 163.99 90.2363C164.209 90.5371 164.318 90.9082 164.318 91.3496C164.318 91.6973 164.242 92.002 164.09 92.2637C163.941 92.5215 163.74 92.748 163.486 92.9434C163.232 93.1348 162.951 93.3066 162.643 93.459C163.01 93.627 163.34 93.8164 163.633 94.0273C163.93 94.2383 164.164 94.4863 164.336 94.7715C164.508 95.0566 164.594 95.3945 164.594 95.7852C164.594 96.2656 164.477 96.6816 164.242 97.0332C164.012 97.3809 163.688 97.6484 163.27 97.8359C162.852 98.0234 162.361 98.1172 161.799 98.1172C161.193 98.1172 160.678 98.0273 160.252 97.8477C159.83 97.6641 159.508 97.4023 159.285 97.0625C159.066 96.7188 158.957 96.3066 158.957 95.8262C158.957 95.4316 159.041 95.0898 159.209 94.8008C159.377 94.5078 159.6 94.2559 159.877 94.0449C160.154 93.834 160.457 93.6562 160.785 93.5117C160.5 93.3555 160.238 93.1777 160 92.9785C159.766 92.7793 159.578 92.5469 159.438 92.2812C159.301 92.0117 159.232 91.6992 159.232 91.3438C159.232 90.9102 159.342 90.543 159.561 90.2422C159.783 89.9375 160.086 89.707 160.469 89.5508C160.855 89.3906 161.291 89.3105 161.775 89.3105ZM159.912 95.832C159.912 96.2695 160.066 96.6309 160.375 96.916C160.684 97.1973 161.15 97.3379 161.775 97.3379C162.369 97.3379 162.828 97.1973 163.152 96.916C163.477 96.6309 163.639 96.2578 163.639 95.7969C163.639 95.5117 163.564 95.2617 163.416 95.0469C163.268 94.8281 163.057 94.6328 162.783 94.4609C162.51 94.2891 162.188 94.1328 161.816 93.9922L161.605 93.916C161.246 94.0645 160.939 94.2305 160.686 94.4141C160.436 94.5938 160.244 94.7988 160.111 95.0293C159.979 95.2598 159.912 95.5273 159.912 95.832ZM161.764 90.1074C161.303 90.1074 160.926 90.2188 160.633 90.4414C160.34 90.6602 160.193 90.9766 160.193 91.3906C160.193 91.6875 160.264 91.9395 160.404 92.1465C160.549 92.3496 160.744 92.5254 160.99 92.6738C161.236 92.8184 161.512 92.9531 161.816 93.0781C162.113 92.9531 162.377 92.8164 162.607 92.668C162.838 92.5156 163.02 92.3359 163.152 92.1289C163.285 91.9219 163.352 91.6738 163.352 91.3848C163.352 90.9707 163.205 90.6543 162.912 90.4355C162.623 90.2168 162.24 90.1074 161.764 90.1074Z" fill="#4D4D4D"/>
<path d="M72.418 135H66.8047V134.186L69.0957 131.859C69.5215 131.43 69.8789 131.047 70.168 130.711C70.4609 130.375 70.6836 130.045 70.8359 129.721C70.9883 129.393 71.0645 129.033 71.0645 128.643C71.0645 128.158 70.9199 127.789 70.6309 127.535C70.3457 127.277 69.9688 127.148 69.5 127.148C69.0898 127.148 68.7266 127.219 68.4102 127.359C68.0938 127.5 67.7695 127.699 67.4375 127.957L66.916 127.301C67.1426 127.109 67.3887 126.939 67.6543 126.791C67.9238 126.643 68.2109 126.525 68.5156 126.439C68.8242 126.354 69.1523 126.311 69.5 126.311C70.0273 126.311 70.4824 126.402 70.8652 126.586C71.248 126.77 71.543 127.031 71.75 127.371C71.9609 127.711 72.0664 128.115 72.0664 128.584C72.0664 129.037 71.9766 129.459 71.7969 129.85C71.6172 130.236 71.3652 130.621 71.041 131.004C70.7168 131.383 70.3379 131.785 69.9043 132.211L68.041 134.068V134.109H72.418V135ZM75.2188 133.605L75.2949 133.74C75.2246 134.025 75.1348 134.33 75.0254 134.654C74.9199 134.979 74.8027 135.303 74.6738 135.627C74.5488 135.955 74.4219 136.262 74.293 136.547H73.5664C73.6484 136.234 73.7285 135.904 73.8066 135.557C73.8848 135.213 73.9551 134.873 74.0176 134.537C74.084 134.197 74.1367 133.887 74.1758 133.605H75.2188ZM79.4844 129.762C80.0664 129.762 80.5723 129.861 81.002 130.061C81.4316 130.256 81.7637 130.541 81.998 130.916C82.2363 131.291 82.3555 131.746 82.3555 132.281C82.3555 132.867 82.2285 133.373 81.9746 133.799C81.7207 134.221 81.3555 134.547 80.8789 134.777C80.4023 135.004 79.832 135.117 79.168 135.117C78.7227 135.117 78.3086 135.078 77.9258 135C77.543 134.922 77.2207 134.805 76.959 134.648V133.723C77.2441 133.895 77.5898 134.031 77.9961 134.133C78.4023 134.234 78.7969 134.285 79.1797 134.285C79.6133 134.285 79.9922 134.217 80.3164 134.08C80.6445 133.939 80.8984 133.729 81.0781 133.447C81.2617 133.162 81.3535 132.805 81.3535 132.375C81.3535 131.805 81.1777 131.365 80.8262 131.057C80.4785 130.744 79.9277 130.588 79.1738 130.588C78.9316 130.588 78.666 130.607 78.377 130.646C78.0879 130.686 77.8496 130.729 77.6621 130.775L77.1699 130.453L77.498 126.434H81.7578V127.324H78.3301L78.1133 129.908C78.2617 129.877 78.4531 129.846 78.6875 129.814C78.9219 129.779 79.1875 129.762 79.4844 129.762ZM89.6855 133.014H88.4023V135H87.4531V133.014H83.3105V132.193L87.3887 126.387H88.4023V132.135H89.6855V133.014ZM87.4531 132.135V129.334C87.4531 129.119 87.4551 128.926 87.459 128.754C87.4629 128.578 87.4688 128.416 87.4766 128.268C87.4844 128.115 87.4902 127.971 87.4941 127.834C87.502 127.697 87.5078 127.562 87.5117 127.43H87.4648C87.3906 127.586 87.3047 127.752 87.207 127.928C87.1133 128.1 87.0176 128.254 86.9199 128.391L84.2773 132.135H87.4531ZM96.5527 133.014H95.2695V135H94.3203V133.014H90.1777V132.193L94.2559 126.387H95.2695V132.135H96.5527V133.014ZM94.3203 132.135V129.334C94.3203 129.119 94.3223 128.926 94.3262 128.754C94.3301 128.578 94.3359 128.416 94.3438 128.268C94.3516 128.115 94.3574 127.971 94.3613 127.834C94.3691 127.697 94.375 127.562 94.3789 127.43H94.332C94.2578 127.586 94.1719 127.752 94.0742 127.928C93.9805 128.1 93.8848 128.254 93.7871 128.391L91.1445 132.135H94.3203Z" fill="#4D4D4D"/>
<path d="M31.1016 122.432C31.1016 122.814 31.0273 123.146 30.8789 123.428C30.7305 123.709 30.5234 123.939 30.2578 124.119C29.9922 124.295 29.6797 124.418 29.3203 124.488V124.535C30 124.621 30.5098 124.84 30.8496 125.191C31.1934 125.543 31.3652 126.004 31.3652 126.574C31.3652 127.07 31.248 127.51 31.0137 127.893C30.7832 128.275 30.4277 128.576 29.9473 128.795C29.4707 129.01 28.8594 129.117 28.1133 129.117C27.6602 129.117 27.2402 129.08 26.8535 129.006C26.4707 128.936 26.1035 128.816 25.752 128.648V127.734C26.1074 127.91 26.4941 128.049 26.9121 128.15C27.3301 128.248 27.7344 128.297 28.125 128.297C28.9062 128.297 29.4707 128.143 29.8184 127.834C30.166 127.521 30.3398 127.096 30.3398 126.557C30.3398 126.186 30.2422 125.887 30.0469 125.66C29.8555 125.43 29.5781 125.262 29.2148 125.156C28.8555 125.047 28.4219 124.992 27.9141 124.992H27.0586V124.16H27.9199C28.3848 124.16 28.7793 124.092 29.1035 123.955C29.4277 123.818 29.6738 123.627 29.8418 123.381C30.0137 123.131 30.0996 122.836 30.0996 122.496C30.0996 122.062 29.9551 121.729 29.666 121.494C29.377 121.256 28.9844 121.137 28.4883 121.137C28.1836 121.137 27.9062 121.168 27.6562 121.23C27.4062 121.293 27.1719 121.379 26.9531 121.488C26.7344 121.598 26.5156 121.725 26.2969 121.869L25.8047 121.201C26.1172 120.959 26.498 120.75 26.9473 120.574C27.3965 120.398 27.9062 120.311 28.4766 120.311C29.3516 120.311 30.0078 120.51 30.4453 120.908C30.8828 121.307 31.1016 121.814 31.1016 122.432ZM34.2188 127.605L34.2949 127.74C34.2246 128.025 34.1348 128.33 34.0254 128.654C33.9199 128.979 33.8027 129.303 33.6738 129.627C33.5488 129.955 33.4219 130.262 33.293 130.547H32.5664C32.6484 130.234 32.7285 129.904 32.8066 129.557C32.8848 129.213 32.9551 128.873 33.0176 128.537C33.084 128.197 33.1367 127.887 33.1758 127.605H34.2188ZM38.6074 120.311C39.1035 120.311 39.543 120.389 39.9258 120.545C40.3086 120.701 40.6074 120.932 40.8223 121.236C41.041 121.537 41.1504 121.908 41.1504 122.35C41.1504 122.697 41.0742 123.002 40.9219 123.264C40.7734 123.521 40.5723 123.748 40.3184 123.943C40.0645 124.135 39.7832 124.307 39.4746 124.459C39.8418 124.627 40.1719 124.816 40.4648 125.027C40.7617 125.238 40.9961 125.486 41.168 125.771C41.3398 126.057 41.4258 126.395 41.4258 126.785C41.4258 127.266 41.3086 127.682 41.0742 128.033C40.8438 128.381 40.5195 128.648 40.1016 128.836C39.6836 129.023 39.1934 129.117 38.6309 129.117C38.0254 129.117 37.5098 129.027 37.084 128.848C36.6621 128.664 36.3398 128.402 36.1172 128.062C35.8984 127.719 35.7891 127.307 35.7891 126.826C35.7891 126.432 35.873 126.09 36.041 125.801C36.209 125.508 36.4316 125.256 36.709 125.045C36.9863 124.834 37.2891 124.656 37.6172 124.512C37.332 124.355 37.0703 124.178 36.832 123.979C36.5977 123.779 36.4102 123.547 36.2695 123.281C36.1328 123.012 36.0645 122.699 36.0645 122.344C36.0645 121.91 36.1738 121.543 36.3926 121.242C36.6152 120.938 36.918 120.707 37.3008 120.551C37.6875 120.391 38.123 120.311 38.6074 120.311ZM36.7441 126.832C36.7441 127.27 36.8984 127.631 37.207 127.916C37.5156 128.197 37.9824 128.338 38.6074 128.338C39.2012 128.338 39.6602 128.197 39.9844 127.916C40.3086 127.631 40.4707 127.258 40.4707 126.797C40.4707 126.512 40.3965 126.262 40.248 126.047C40.0996 125.828 39.8887 125.633 39.6152 125.461C39.3418 125.289 39.0195 125.133 38.6484 124.992L38.4375 124.916C38.0781 125.064 37.7715 125.23 37.5176 125.414C37.2676 125.594 37.0762 125.799 36.9434 126.029C36.8105 126.26 36.7441 126.527 36.7441 126.832ZM38.5957 121.107C38.1348 121.107 37.7578 121.219 37.4648 121.441C37.1719 121.66 37.0254 121.977 37.0254 122.391C37.0254 122.688 37.0957 122.939 37.2363 123.146C37.3809 123.35 37.5762 123.525 37.8223 123.674C38.0684 123.818 38.3438 123.953 38.6484 124.078C38.9453 123.953 39.209 123.816 39.4395 123.668C39.6699 123.516 39.8516 123.336 39.9844 123.129C40.1172 122.922 40.1836 122.674 40.1836 122.385C40.1836 121.971 40.0371 121.654 39.7441 121.436C39.4551 121.217 39.0723 121.107 38.5957 121.107ZM46.2656 129H45.3164V122.93C45.3164 122.699 45.3164 122.502 45.3164 122.338C45.3203 122.17 45.3242 122.018 45.3281 121.881C45.3359 121.74 45.3457 121.598 45.3574 121.453C45.2363 121.578 45.123 121.686 45.0176 121.775C44.9121 121.861 44.7812 121.969 44.625 122.098L43.6465 122.883L43.1367 122.221L45.457 120.434H46.2656V129ZM55.5527 127.014H54.2695V129H53.3203V127.014H49.1777V126.193L53.2559 120.387H54.2695V126.135H55.5527V127.014ZM53.3203 126.135V123.334C53.3203 123.119 53.3223 122.926 53.3262 122.754C53.3301 122.578 53.3359 122.416 53.3438 122.268C53.3516 122.115 53.3574 121.971 53.3613 121.834C53.3691 121.697 53.375 121.562 53.3789 121.43H53.332C53.2578 121.586 53.1719 121.752 53.0742 121.928C52.9805 122.1 52.8848 122.254 52.7871 122.391L50.1445 126.135H53.3203Z" fill="#4D4D4D"/>
<path d="M385.492 94H384.543V87.9297C384.543 87.6992 384.543 87.502 384.543 87.3379C384.547 87.1699 384.551 87.0176 384.555 86.8809C384.562 86.7402 384.572 86.5977 384.584 86.4531C384.463 86.5781 384.35 86.6855 384.244 86.7754C384.139 86.8613 384.008 86.9688 383.852 87.0977L382.873 87.8828L382.363 87.2207L384.684 85.4336H385.492V94ZM392.359 94H391.41V87.9297C391.41 87.6992 391.41 87.502 391.41 87.3379C391.414 87.1699 391.418 87.0176 391.422 86.8809C391.43 86.7402 391.439 86.5977 391.451 86.4531C391.33 86.5781 391.217 86.6855 391.111 86.7754C391.006 86.8613 390.875 86.9688 390.719 87.0977L389.74 87.8828L389.23 87.2207L391.551 85.4336H392.359V94ZM397.152 92.6055L397.229 92.7402C397.158 93.0254 397.068 93.3301 396.959 93.6543C396.854 93.9785 396.736 94.3027 396.607 94.627C396.482 94.9551 396.355 95.2617 396.227 95.5469H395.5C395.582 95.2344 395.662 94.9043 395.74 94.5566C395.818 94.2129 395.889 93.873 395.951 93.5371C396.018 93.1973 396.07 92.8867 396.109 92.6055H397.152ZM404.008 87.4316C404.008 87.8145 403.934 88.1465 403.785 88.4277C403.637 88.709 403.43 88.9395 403.164 89.1191C402.898 89.2949 402.586 89.418 402.227 89.4883V89.5352C402.906 89.6211 403.416 89.8398 403.756 90.1914C404.1 90.543 404.271 91.0039 404.271 91.5742C404.271 92.0703 404.154 92.5098 403.92 92.8926C403.689 93.2754 403.334 93.5762 402.854 93.7949C402.377 94.0098 401.766 94.1172 401.02 94.1172C400.566 94.1172 400.146 94.0801 399.76 94.0059C399.377 93.9355 399.01 93.8164 398.658 93.6484V92.7344C399.014 92.9102 399.4 93.0488 399.818 93.1504C400.236 93.248 400.641 93.2969 401.031 93.2969C401.812 93.2969 402.377 93.1426 402.725 92.834C403.072 92.5215 403.246 92.0957 403.246 91.5566C403.246 91.1855 403.148 90.8867 402.953 90.6602C402.762 90.4297 402.484 90.2617 402.121 90.1562C401.762 90.0469 401.328 89.9922 400.82 89.9922H399.965V89.1602H400.826C401.291 89.1602 401.686 89.0918 402.01 88.9551C402.334 88.8184 402.58 88.627 402.748 88.3809C402.92 88.1309 403.006 87.8359 403.006 87.4961C403.006 87.0625 402.861 86.7285 402.572 86.4941C402.283 86.2559 401.891 86.1367 401.395 86.1367C401.09 86.1367 400.812 86.168 400.562 86.2305C400.312 86.293 400.078 86.3789 399.859 86.4883C399.641 86.5977 399.422 86.7246 399.203 86.8691L398.711 86.2012C399.023 85.959 399.404 85.75 399.854 85.5742C400.303 85.3984 400.812 85.3105 401.383 85.3105C402.258 85.3105 402.914 85.5098 403.352 85.9082C403.789 86.3066 404.008 86.8145 404.008 87.4316ZM409.199 94H408.25V87.9297C408.25 87.6992 408.25 87.502 408.25 87.3379C408.254 87.1699 408.258 87.0176 408.262 86.8809C408.27 86.7402 408.279 86.5977 408.291 86.4531C408.17 86.5781 408.057 86.6855 407.951 86.7754C407.846 86.8613 407.715 86.9688 407.559 87.0977L406.58 87.8828L406.07 87.2207L408.391 85.4336H409.199V94ZM418.105 89.7051C418.105 90.4004 418.053 91.0215 417.947 91.5684C417.842 92.1152 417.676 92.5781 417.449 92.957C417.223 93.3359 416.93 93.625 416.57 93.8242C416.211 94.0195 415.779 94.1172 415.275 94.1172C414.639 94.1172 414.111 93.9434 413.693 93.5957C413.279 93.248 412.969 92.7461 412.762 92.0898C412.559 91.4297 412.457 90.6348 412.457 89.7051C412.457 88.791 412.549 88.0059 412.732 87.3496C412.92 86.6895 413.221 86.1836 413.635 85.832C414.049 85.4766 414.596 85.2988 415.275 85.2988C415.92 85.2988 416.451 85.4746 416.869 85.8262C417.287 86.1738 417.598 86.6777 417.801 87.3379C418.004 87.9941 418.105 88.7832 418.105 89.7051ZM413.436 89.7051C413.436 90.502 413.496 91.166 413.617 91.6973C413.738 92.2285 413.934 92.627 414.203 92.8926C414.477 93.1543 414.834 93.2852 415.275 93.2852C415.717 93.2852 416.072 93.1543 416.342 92.8926C416.615 92.6309 416.812 92.2344 416.934 91.7031C417.059 91.1719 417.121 90.5059 417.121 89.7051C417.121 88.9199 417.061 88.2637 416.939 87.7363C416.818 87.2051 416.623 86.8066 416.354 86.541C416.084 86.2715 415.725 86.1367 415.275 86.1367C414.826 86.1367 414.467 86.2715 414.197 86.541C413.928 86.8066 413.732 87.2051 413.611 87.7363C413.494 88.2637 413.436 88.9199 413.436 89.7051Z" fill="#4D4D4D"/>
<rect y="206" width="22" height="15" rx="3.86" fill="#0D6B83"/>
<line x1="7" y1="155.5" x2="436" y2="157.5" stroke="#646363"/>
<rect x="343" y="22" width="31" height="133" fill="#0D6B83"/>
<rect x="236" y="90" width="31" height="65" fill="#0D6B83"/>
<rect x="131" y="106" width="31" height="49" fill="#0D6B83"/>
<rect x="66" y="143" width="31" height="12" fill="#084555"/>
<rect x="25" y="137" width="31" height="18" fill="#0D6B83"/>
<rect x="172" y="131" width="31" height="24" fill="#084555"/>
<rect x="277" y="136" width="31" height="19" fill="#084555"/>
<rect x="384" y="102" width="31" height="53" fill="#084555"/>
</svg>
