<svg width="37" height="30" viewBox="0 0 37 30" fill="none" xmlns="http://www.w3.org/2000/svg">
<g clip-path="url(#clip0_806_602)">
<path fill-rule="evenodd" clip-rule="evenodd" d="M37 17.1429C36.7109 15.4286 33.3867 12.7143 32.2304 11.2857C31.0742 9.85717 24.1367 4.57146 18.789 5.57146C19.5117 4.71432 22.1133 5.14289 23.414 5.14289C27.3164 4.57146 31.3633 4.28574 35.2656 3.57146C39.1679 2.85717 34.3984 1.00003 33.2422 0.285745C32.0859 -0.428541 28.3281 0.714316 26.0156 1.14289C23.2911 1.99002 20.6728 3.14025 18.2109 4.57146C17.9219 4.71432 17.9219 4.71432 17.6328 4.4286C16.5047 4.66933 15.4284 5.10455 14.4531 5.71432C14.0216 5.9407 13.6517 6.26671 13.3749 6.66465C13.0981 7.06259 12.9226 7.52069 12.8633 8.00003C12.8633 8.57146 12.5742 8.71432 12.2851 9.14289C11.9961 9.57146 11.1289 8.85717 9.97264 9.71432C8.81639 10.5715 9.10545 8.71432 8.81639 8.28574C8.52733 7.85717 8.3828 4.85717 8.23826 3.14289C7.78334 4.88325 7.83343 6.71507 8.3828 8.4286C8.6367 9.10963 8.92615 9.77719 9.24998 10.4286C9.13099 10.7975 9.08199 11.185 9.10545 11.5715C8.52733 12 7.80467 11.4286 7.37108 11C6.93748 10.5715 7.37108 11.4286 7.51561 11.4286C7.66014 11.4286 9.39451 12.1429 10.1172 13C10.8398 13.8572 5.92576 17.2857 4.04686 18.2857C6.35936 18.1429 9.82811 15.2857 11.1289 13.2857C12.4297 11.2857 12.2851 12.7143 12.5742 12C12.8633 11.2857 12.5742 11 13.0078 10.8572C13.4414 10.7143 13.5859 11.1429 14.0195 10.7143C13.77 11.5569 13.4309 12.371 13.0078 13.1429L11.707 15.7143L9.82811 17.7143C7.81034 20.037 5.22229 21.808 2.31248 22.8572C-1.58986 23.7143 -1.56499e-05 24.1429 2.74608 23.1429C4.10084 22.6414 5.40695 22.0198 6.64842 21.2857C7.51561 20.8572 8.09373 19.8572 8.96092 19.2857L11.418 16.7143C12.5866 14.9199 13.6483 13.0596 14.5976 11.1429C14.806 10.738 14.9521 10.3047 15.0312 9.85717C15.3203 9.85717 15.1758 10.5715 15.3203 10.7143C15.4648 10.8572 15.3203 11 15.4648 11.1429C15.6094 11.2857 16.1875 11.1429 16.1875 11C16.1875 10.8572 16.4765 9.4286 16.4765 10.5715C16.4765 11.7143 16.1875 11.4286 16.332 12C16.1004 13.9321 15.7137 15.8428 15.1758 17.7143C14.164 19.8572 13.5859 22.2857 12.4297 24.2857C11.0543 25.9314 9.44821 27.3745 7.66014 28.5715C6.79295 29 2.89061 30.7143 6.0703 29.8572C8.59097 28.695 10.8141 26.9859 12.5742 24.8572C13.9281 22.464 14.9952 19.9231 15.7539 17.2857L16.6211 13.2857C16.7656 13 16.6211 11.7143 17.3437 12C18.0664 12.2857 18.2109 11.7143 17.6328 11.7143C17.4324 11.5675 17.2738 11.372 17.1725 11.1467C17.0712 10.9214 17.0306 10.674 17.0547 10.4286C17.3151 10.7003 17.4688 11.0549 17.4883 11.4286C18.0664 11.4286 17.7773 10.8572 17.9219 10.4286V11.7143C18.2652 11.6673 18.5863 11.5197 18.8439 11.2905C19.1016 11.0613 19.2838 10.7611 19.3672 10.4286C19.6562 10.4286 19.6562 10.2857 19.6562 10.1429L19.9453 9.85717L20.6679 9.28574C20.8125 8.57146 21.2461 9.4286 20.8125 9.57146C22.1133 12.7143 22.4023 17 24.2812 20.1429C25.565 22.5256 27.3371 24.6176 29.4844 26.2857C29.8905 26.8313 30.3778 27.3129 30.9297 27.7143C31.258 28.1983 31.7056 28.5917 32.2304 28.8572C32.9975 29.2439 33.8307 29.4861 34.6875 29.5715C34.6875 29.2857 33.6758 29 33.3867 28.8572C33.0976 28.7143 30.6406 26.7143 29.3398 25.5715C27.7728 24.2719 26.4936 22.6671 25.582 20.8572C24.2824 19.1218 23.3933 17.1202 22.9804 15C22.3412 13.0979 21.9053 11.1348 21.6797 9.14289C22.2578 9.28574 22.4023 10.1429 22.8359 10.5715C23.2695 11 25.2929 9.57146 26.0156 9.14289C26.7383 8.71432 26.1601 9.4286 26.0156 9.57146C25.4664 10.305 24.8362 10.9758 24.1367 11.5715C24.7148 12 25.4375 12.7143 26.1601 12.7143C27.0531 12.1997 27.8381 11.5208 28.4726 10.7143C28.3281 11.7143 27.3164 12.4286 26.7383 13.1429C28.9062 14.8572 29.0508 13.4286 30.7851 12.5715C30.4961 12.4286 30.6406 12.7143 30.4961 12.8572C30.3515 13 30.3515 13 30.3515 13.1429L29.1953 14.1429C29.3398 14.7143 30.0625 14.8572 30.4961 15.1429C30.9297 15.4286 31.6523 14.1429 32.2304 14.1429C32.8086 14.1429 32.0859 14.1429 32.0859 14.4286L31.6523 14.8572C30.9297 15.5715 31.0742 15.5715 31.7969 16C32.5195 16.4286 32.9531 16.1429 34.1094 15.5715L33.8203 16C33.6758 16.2857 33.2422 16.4286 33.5312 16.8572C33.8203 17.2857 37.1445 19 37 17V17.1429ZM24.8594 2.14289C27.75 1.14289 31.2187 -0.428541 34.1094 1.28574H33.5312C31.9094 0.901383 30.2133 0.950691 28.6172 1.4286C27.8945 1.28574 25.1484 2.71432 24.8594 2.28574V2.14289ZM10.8398 12.2857C10.7248 12.4184 10.5612 12.5004 10.3851 12.5138C10.2089 12.5272 10.0345 12.4708 9.90037 12.3572C9.76621 12.2435 9.68323 12.0818 9.66967 11.9077C9.65612 11.7335 9.71311 11.5612 9.82811 11.4286C9.87556 11.3629 9.93563 11.3072 10.0049 11.2644C10.0741 11.2217 10.1512 11.1929 10.2318 11.1797C10.3123 11.1664 10.3947 11.1689 10.4742 11.1871C10.5537 11.2053 10.6289 11.2388 10.6953 11.2857C10.7617 11.3326 10.8182 11.392 10.8614 11.4605C10.9046 11.5289 10.9337 11.6051 10.9472 11.6847C10.9606 11.7643 10.958 11.8457 10.9396 11.9244C10.9212 12.003 10.8873 12.0772 10.8398 12.1429" fill="#02252D"/>
</g>
<defs>
<clipPath id="clip0_806_602">
<rect width="37" height="30" fill="white"/>
</clipPath>
</defs>
</svg>
