<svg width="32" height="32" viewBox="0 0 32 32" fill="none" xmlns="http://www.w3.org/2000/svg">
<path fill-rule="evenodd" clip-rule="evenodd" d="M10.3398 0.320599L11.3846 1.21608C12.2731 1.93776 13.2842 2.49384 14.3695 2.8578L16.0112 3.15629C17.4186 3.38332 18.8134 3.6822 20.1901 4.05178C23.0258 5.09651 25.1153 7.48446 27.0555 9.57392C28.213 10.3875 29.0975 11.5321 29.5927 12.8574C29.7126 13.1398 29.7637 13.4467 29.742 13.7528C29.9373 14.277 29.9888 14.8438 29.8912 15.3946C29.9152 15.7494 29.8644 16.1054 29.742 16.4393C29.4435 16.7378 28.6972 16.887 28.3987 17.3348C27.7163 18.6303 27.3097 20.0532 27.2048 21.5137C28.0303 22.34 28.7796 23.2391 29.4435 24.2001C29.8912 24.7971 30.7867 25.2449 31.2344 25.9911C31.6822 26.7373 32.1299 27.3343 31.8314 27.7821C31.5329 28.2298 31.0852 28.8268 30.6374 29.1253L28.8465 30.3193C28.3987 30.767 27.6525 30.9163 27.2048 31.364L25.8615 31.0655V30.767C25.8615 29.8715 27.0555 28.8268 27.6525 28.5283C28.2495 28.2298 27.951 27.4836 27.6525 27.1851C27.354 26.8866 26.16 26.5881 25.7123 26.2896C24.3894 25.5667 23.1398 24.7169 21.9811 23.7524C21.6826 23.4539 21.6826 23.0062 21.3841 22.5584C21.0856 22.1107 19.2947 24.0509 18.9962 25.0956C18.6977 26.1403 20.3394 28.8268 18.5484 29.4238C16.7575 30.0208 16.9067 29.4238 16.1605 29.4238L15.1157 29.7223C13.9631 29.8538 12.7957 29.7523 11.6831 29.4238L12.2801 28.8268C13.1755 28.3791 14.2203 28.3791 14.668 27.6328C14.9164 26.1453 14.8657 24.6231 14.5188 23.1554C14.5188 22.8569 14.8173 22.5584 14.668 22.1107C14.4589 21.6953 14.4059 21.2186 14.5188 20.7675C15.4753 19.0349 16.9315 17.6307 18.6977 16.7378L20.6379 15.6931C18.9032 15.9535 17.1355 15.525 15.7127 14.4991C15.5635 14.7976 15.7127 15.2453 15.5635 15.6931C15.5353 16.2022 15.4348 16.7047 15.265 17.1855C15.1157 17.7825 15.7127 18.2303 15.4142 18.678C15.1157 19.1257 13.3248 19.4242 12.7278 20.0212C12.4477 20.4508 12.1984 20.8997 11.9816 21.3644C11.398 21.8205 10.8493 22.3194 10.3398 22.8569C9.5936 23.7524 8.99662 24.6479 8.10113 25.5434C7.20565 26.4388 9.14586 27.4836 8.69812 27.9313C8.71093 28.0869 8.67461 28.2426 8.59429 28.3765C8.51397 28.5103 8.39369 28.6156 8.25038 28.6775C8.39963 28.976 8.39963 28.976 8.69812 29.1253C8.53228 29.4915 8.33241 29.8412 8.10113 30.17C7.14008 30.5375 6.07724 30.5375 5.11619 30.17C4.66845 30.0208 4.5192 27.9313 4.66845 27.3343C5.13426 25.3867 5.78391 23.4877 6.60866 21.6629C6.86941 21.1096 7.22273 20.6049 7.65339 20.1705C6.16092 20.1705 5.56393 21.0659 4.8177 21.6629L3.17598 23.0062C3.24664 23.2535 3.40607 23.4661 3.62372 23.6031V23.9016C3.32523 24.7971 2.13125 24.7971 1.08652 24.7971C0.636591 24.5681 0.270835 24.2023 0.0417892 23.7524C-0.107458 23.3047 0.191036 23.0062 0.191036 22.7077C0.288521 21.8363 0.715723 21.0353 1.38501 20.469C3.07284 19.0544 4.92732 17.8514 6.90716 16.887C7.95189 16.29 9.5936 15.6931 10.0413 14.6483C10.4891 13.6036 10.0413 11.2156 10.0413 10.1709C10.0413 9.12618 9.8921 8.52919 10.6383 8.2307C11.3846 7.9322 10.4891 8.08145 10.4891 7.9322C9.15239 8.1059 7.80711 8.20555 6.45941 8.2307C6.01167 8.2307 5.56393 8.37994 5.11619 8.08145C4.66845 7.78295 4.5192 7.33521 4.22071 7.03672C3.92221 6.73822 4.5192 6.14124 4.66845 5.6935V4.94726L5.56393 3.75328C5.56393 3.30554 5.11619 2.70855 5.11619 2.55931L5.86243 1.96232C6.2568 1.30248 6.83169 0.769206 7.51925 0.425426C8.20681 0.0816462 8.97835 -0.058298 9.74285 0.0221053L10.3398 0.320599Z" fill="#02252D"/>
</svg>
