<svg width="32" height="30" viewBox="0 0 32 30" fill="none" xmlns="http://www.w3.org/2000/svg">
<path d="M0 10.6849H0.0821918C0.792384 10.8957 1.46005 11.2295 2.05479 11.6712L2.30137 12.0822C3.00191 12.3359 3.64464 12.7271 4.19178 13.2329C5.13562 12.8799 6.15238 12.7669 7.15068 12.9041C8.03445 12.196 9.07883 11.7161 10.1918 11.5068C10.274 10.8493 10.6849 10.6849 11.2603 10.9315L12 9.20548L11.5068 8.71233C11.4727 8.63341 11.4148 8.56717 11.341 8.52293C11.2673 8.4787 11.1816 8.4587 11.0959 8.46575L10.1096 8.21918L8.87671 7.80822C8.7603 7.77291 8.65439 7.70943 8.56837 7.62341C8.48235 7.53739 8.41887 7.43148 8.38356 7.31507V7.15068C7.50628 6.77616 6.721 6.21524 6.08219 5.50685C6 5.42466 6 5.17808 6 5.0137C6 4.84932 6 4.76712 5.91781 4.76712C5.49467 4.16504 5.26529 3.44821 5.26027 2.71233C5.28011 2.32458 5.33513 1.93944 5.42466 1.56164C5.5948 1.06642 5.94758 0.654837 6.41096 0.410959L6.82192 0.0821918C6.79888 0.578356 6.74398 1.07253 6.65753 1.56164L6.41096 2.21918C6.32877 2.21918 6.32877 2.30137 6.32877 2.38356C6.42945 2.73114 6.48471 3.09029 6.49315 3.45205C6.53463 3.80701 6.53463 4.16559 6.49315 4.52055C7.19376 4.94938 7.83019 5.47513 8.38356 6.08219C8.463 6.23805 8.57949 6.37201 8.72279 6.47233C8.8661 6.57265 9.03185 6.63624 9.20548 6.65753C10.1028 6.85264 10.9453 7.24578 11.6712 7.80822H11.8356C12.3288 7.72603 12.5753 7.80822 12.7397 8.21918L14.2192 7.39726C14.1054 7.05372 14.1082 6.68225 14.2271 6.34045C14.346 5.99865 14.5743 5.70563 14.8767 5.50685C15.1213 5.38207 15.3944 5.32396 15.6686 5.33839C15.9427 5.35282 16.2083 5.43928 16.4384 5.58904C16.73 5.77574 16.942 6.0641 17.0331 6.3982C17.1242 6.7323 17.088 7.08833 16.9315 7.39726L18.4932 8.30137C18.7397 7.80822 18.9863 7.72603 19.5616 7.89041C20.137 8.0548 21.9452 6.49315 22.4384 6.65753C23.0576 5.77836 23.8386 5.0252 24.7397 4.43836C24.658 4.25755 24.6158 4.06142 24.6158 3.86301C24.6158 3.66461 24.658 3.46848 24.7397 3.28767C24.8413 2.9967 24.8967 2.69165 24.9041 2.38356C24.8985 2.2317 24.8404 2.08648 24.7397 1.9726C24.5066 1.54483 24.3931 1.06217 24.411 0.575342V0C24.9549 0.380398 25.4278 0.853329 25.8082 1.39726C25.866 1.51198 25.8961 1.63866 25.8961 1.76712C25.8961 1.89559 25.866 2.02226 25.8082 2.13699C25.9335 2.24708 26.018 2.3963 26.0478 2.56042C26.0777 2.72454 26.0512 2.89394 25.9726 3.0411L25.3973 4.76712C25.3755 4.76712 25.3546 4.77578 25.3391 4.7912C25.3237 4.80661 25.3151 4.82752 25.3151 4.84932C25.5616 5.42466 25.1507 5.67123 24.8219 5.91781L23.8356 6.65753L23.3425 6.9863C23.0137 7.06849 22.7671 7.15068 22.6849 7.56164L22.4384 7.72603C21.6152 8.13377 20.7233 8.38463 19.8082 8.46575C19.791 8.60899 19.7363 8.74517 19.6497 8.86059C19.5632 8.97601 19.4477 9.06661 19.3151 9.12329L19.9726 10.9315C20.0812 10.8587 20.2071 10.816 20.3376 10.8077C20.4681 10.7993 20.5985 10.8258 20.7154 10.8843C20.8324 10.9427 20.9317 11.0311 21.0034 11.1405C21.075 11.2499 21.1164 11.3763 21.1233 11.5068C22.3562 11.7534 23.6712 12.411 23.9178 12.9041C24.9926 12.8229 26.0735 12.906 27.1233 13.1507C27.6319 12.655 28.252 12.2886 28.9315 12.0822C29.0604 11.8042 29.2549 11.5617 29.4983 11.3755C29.7417 11.1894 30.0267 11.0652 30.3288 11.0137L31.0685 10.7671C30.9041 11.0959 30.7397 11.589 30.4932 12C30.2466 12.411 30 12.7397 29.5069 12.7397C29.0137 12.7397 28.9315 13.3973 28.5205 13.5616L27.1233 13.9726C26.7123 14.5479 26.137 14.3014 25.6438 14.137L23.8356 13.5616C23.8356 13.5616 23.7534 13.4795 23.7534 13.5616C23.5983 13.6626 23.4109 13.7018 23.2283 13.6713C23.0457 13.6409 22.8811 13.5431 22.7671 13.3973C22.1068 13.0345 21.4749 12.6224 20.8767 12.1644C20.8549 12.1644 20.834 12.1557 20.8186 12.1403C20.8032 12.1249 20.7945 12.104 20.7945 12.0822H20.137C20.2165 12.5545 20.3263 13.0212 20.4658 13.4795L21.2877 15.4521C21.2877 15.4957 21.305 15.5375 21.3358 15.5683C21.3666 15.5991 21.4085 15.6164 21.4521 15.6164C22.3461 16.0039 23.1558 16.5623 23.8356 17.2603C23.96 17.4612 24.0438 17.6846 24.0822 17.9178C24.7978 18.2908 25.4386 18.7923 25.9726 19.3973C26.175 19.5912 26.293 19.8568 26.3014 20.137C26.3014 20.2192 26.3836 20.3014 26.4658 20.3836C27.1635 20.746 27.6937 21.3646 27.9452 22.1096C27.9452 22.1918 27.9452 22.1918 28.0274 22.1918C28.2856 22.4127 28.4873 22.6919 28.616 23.0064C28.7446 23.3209 28.7965 23.6615 28.7671 24C28.7671 24.1644 28.8493 24.411 28.8493 24.4932L27.9452 23.9178C27.6075 23.6342 27.3521 23.2652 27.2055 22.8493C27.2055 22.7671 27.2055 22.6849 27.1233 22.6849C26.4495 22.1829 25.9819 21.4523 25.8082 20.6301C25.4795 20.7123 25.3151 20.4658 25.0685 20.3014C24.5128 19.743 24.042 19.106 23.6712 18.411H23.5069C23.0137 18.411 22.7671 18.0822 22.4384 17.7534L21.863 17.2603C21.9452 17.589 21.9452 17.7534 22.0274 18C22.1096 18.2466 22.1096 18.9863 22.1918 19.4795L22.3562 19.8082C23.0697 20.2204 23.6863 20.781 24.1644 21.4521C24.3288 21.6164 24.3288 21.863 24.411 22.1918C25.1084 22.7316 25.6946 23.4015 26.137 24.1644C26.2192 24.3288 26.3014 24.4932 26.2192 24.5753C26.137 24.6575 26.4658 25.1507 26.6301 25.4795L27.1233 26.9589C27.2055 27.2055 27.1233 27.4521 27.2877 27.7808C27.4241 28.2695 27.3952 28.7897 27.2055 29.2603C27.1905 29.514 27.135 29.7638 27.0411 30L26.8767 29.7534C26.8767 29.589 26.8767 29.5068 26.7945 29.4247C26.402 29.0621 26.1662 28.5609 26.137 28.0274C26.0548 27.9452 26.137 27.863 26.137 27.6986C26.1588 27.6986 26.1797 27.69 26.1951 27.6746C26.2105 27.6591 26.2192 27.6382 26.2192 27.6164C26.2192 27.5946 26.2105 27.5737 26.1951 27.5583C26.1797 27.5429 26.1588 27.5342 26.137 27.5342C25.7264 26.8413 25.5532 26.0332 25.6438 25.2329C24.7303 24.5439 24.0898 23.554 23.8356 22.4384C23.708 22.4384 23.5822 22.4086 23.468 22.3516C23.3539 22.2945 23.2546 22.2117 23.1781 22.1096L22.274 21.0411C22.2688 20.9778 22.2393 20.9189 22.1918 20.8767L21.4521 23.3425C21.2823 23.7522 21.0613 24.1388 20.7945 24.4932C20.5967 24.906 20.3482 25.2925 20.0548 25.6438C19.5557 26.1966 18.9734 26.6681 18.3288 27.0411C17.619 27.4747 16.8152 27.731 15.9854 27.7883C15.1556 27.8455 14.3242 27.702 13.5616 27.3699C12.9112 27.113 12.3229 26.7208 11.8356 26.2192C10.875 25.4561 10.1603 24.427 9.78082 23.2603C9.45205 22.4384 9.28767 21.6986 9.0411 20.8767L8.21918 22.0274C7.9726 22.274 7.72603 22.5205 7.39726 22.4384C7.20055 22.9549 6.95275 23.4505 6.65753 23.9178C6.41096 24.411 6.24658 24.9863 5.58904 25.0685C5.65916 25.894 5.48782 26.7221 5.09589 27.4521C5.0137 27.7808 5.09589 28.0274 5.0137 28.274C4.93151 28.5205 4.60274 29.0137 4.43836 29.3425L4.19178 29.9178C4.19178 29.2603 3.69863 28.7671 3.86301 28.1096C4.0274 27.4521 4.0274 27.6986 4.0274 27.4521C4.0274 27.2055 4.10959 27.2877 4.10959 27.1233C4.10959 26.9589 4.19178 26.5479 4.27397 26.3014C4.48822 25.8192 4.73538 25.3524 5.0137 24.9041V24.7397C4.96796 24.6327 4.95147 24.5154 4.96591 24.3998C4.98035 24.2843 5.0252 24.1747 5.09589 24.0822C5.55597 23.3321 6.13953 22.6652 6.82192 22.1096C6.90411 22.1096 6.82192 22.0274 6.90411 21.9452C6.9863 21.863 6.9863 21.4521 7.15068 21.2877C7.68638 20.7249 8.26332 20.2029 8.87671 19.726C8.9589 19.6438 9.0411 19.5616 9.0411 19.4795C9.13669 18.6883 9.19155 17.8927 9.20548 17.0959L8.46575 18C8.21918 18.2466 7.9726 18.411 7.72603 18.3288L6.16438 20.2192C6.11248 20.3485 6.02082 20.458 5.90264 20.5319C5.78445 20.6058 5.64586 20.6402 5.50685 20.6301C5.1879 21.2277 4.83101 21.8042 4.43836 22.3562C4.21204 22.7716 3.93604 23.158 3.61644 23.5069C3.38839 23.746 3.14097 23.966 2.87671 24.1644L2.30137 24.6575L2.79452 22.6849C2.79452 22.6027 2.87671 22.5205 2.9589 22.4384C3.0411 22.3562 3.28767 21.7808 3.61644 21.4521C3.95913 21.0543 4.34507 20.6959 4.76712 20.3836C4.76712 20.3014 4.84932 20.2192 4.84932 20.0548C4.84932 19.8904 5.0137 19.5616 5.17808 19.4795C5.77058 18.915 6.4023 18.3931 7.06849 17.9178L7.23288 17.7534C7.19732 17.6111 7.21036 17.461 7.26993 17.327C7.32951 17.1929 7.43219 17.0827 7.56164 17.0137L9.45205 15.7808H9.53425C9.94521 15.7808 10.0274 15.4521 10.1096 15.2055L11.0959 12.1644H10.5205C10.2308 12.3631 9.95608 12.5828 9.69863 12.8219L8.30137 13.5616C8.19323 13.6326 8.06988 13.677 7.94134 13.6913C7.81281 13.7056 7.68272 13.6893 7.56164 13.6438H7.31507C6.53521 14.0135 5.70386 14.2629 4.84932 14.3836H4.43836C4.19178 14.137 3.78082 14.137 3.53425 14.0548L1.9726 13.1507C1.80822 13.0685 1.80822 12.9041 1.64384 12.8219L1.06849 12.411C0.744944 12.0973 0.516952 11.6983 0.410959 11.2603C0.322486 11.0381 0.181473 10.8407 0 10.6849H0Z" fill="#02252D"/>
</svg>
