<svg width="495" height="305" viewBox="0 0 495 305" fill="none" xmlns="http://www.w3.org/2000/svg">
<g clip-path="url(#clip0_1058_8)">
<path d="M34.6211 9.03125H33.3496V11H32.418V9.03125H28.252V8.18164L32.3184 2.38672H33.3496V8.14648H34.6211V9.03125ZM32.418 8.14648V5.29883C32.418 4.74023 32.4375 4.10938 32.4766 3.40625H32.4297C32.2422 3.78125 32.0664 4.0918 31.9023 4.33789L29.2246 8.14648H32.418ZM38.1309 5.76758C39.0332 5.76758 39.7422 5.99219 40.2578 6.44141C40.7773 6.88672 41.0371 7.49805 41.0371 8.27539C41.0371 9.16211 40.7539 9.85742 40.1875 10.3613C39.625 10.8652 38.8477 11.1172 37.8555 11.1172C36.8906 11.1172 36.1543 10.9629 35.6465 10.6543V9.7168C35.9199 9.89258 36.2598 10.0312 36.666 10.1328C37.0723 10.2305 37.4727 10.2793 37.8672 10.2793C38.5547 10.2793 39.0879 10.1172 39.4668 9.79297C39.8496 9.46875 40.041 9 40.041 8.38672C40.041 7.19141 39.3086 6.59375 37.8438 6.59375C37.4727 6.59375 36.9766 6.65039 36.3555 6.76367L35.8516 6.44141L36.1738 2.43359H40.4336V3.33008H37.0059L36.7891 5.90234C37.2383 5.8125 37.6855 5.76758 38.1309 5.76758ZM43.7852 9.60547L43.873 9.74023C43.7715 10.1309 43.625 10.584 43.4336 11.0996C43.2422 11.6191 43.043 12.1016 42.8359 12.5469H42.1035C42.209 12.1406 42.3242 11.6387 42.4492 11.041C42.5781 10.4434 42.668 9.96484 42.7188 9.60547H43.7852ZM50.9395 6.70508C50.9395 8.18555 50.7051 9.29102 50.2363 10.0215C49.7715 10.752 49.0586 11.1172 48.0977 11.1172C47.1758 11.1172 46.4746 10.7441 45.9941 9.99805C45.5137 9.24805 45.2734 8.15039 45.2734 6.70508C45.2734 5.21289 45.5059 4.10547 45.9707 3.38281C46.4355 2.66016 47.1445 2.29883 48.0977 2.29883C49.0273 2.29883 49.7324 2.67578 50.2129 3.42969C50.6973 4.18359 50.9395 5.27539 50.9395 6.70508ZM46.2578 6.70508C46.2578 7.95117 46.4043 8.85938 46.6973 9.42969C46.9902 9.99609 47.457 10.2793 48.0977 10.2793C48.7461 10.2793 49.2148 9.99219 49.5039 9.41797C49.7969 8.83984 49.9434 7.93555 49.9434 6.70508C49.9434 5.47461 49.7969 4.57422 49.5039 4.00391C49.2148 3.42969 48.7461 3.14258 48.0977 3.14258C47.457 3.14258 46.9902 3.42578 46.6973 3.99219C46.4043 4.55469 46.2578 5.45898 46.2578 6.70508ZM57.8066 6.70508C57.8066 8.18555 57.5723 9.29102 57.1035 10.0215C56.6387 10.752 55.9258 11.1172 54.9648 11.1172C54.043 11.1172 53.3418 10.7441 52.8613 9.99805C52.3809 9.24805 52.1406 8.15039 52.1406 6.70508C52.1406 5.21289 52.373 4.10547 52.8379 3.38281C53.3027 2.66016 54.0117 2.29883 54.9648 2.29883C55.8945 2.29883 56.5996 2.67578 57.0801 3.42969C57.5645 4.18359 57.8066 5.27539 57.8066 6.70508ZM53.125 6.70508C53.125 7.95117 53.2715 8.85938 53.5645 9.42969C53.8574 9.99609 54.3242 10.2793 54.9648 10.2793C55.6133 10.2793 56.082 9.99219 56.3711 9.41797C56.6641 8.83984 56.8105 7.93555 56.8105 6.70508C56.8105 5.47461 56.6641 4.57422 56.3711 4.00391C56.082 3.42969 55.6133 3.14258 54.9648 3.14258C54.3242 3.14258 53.8574 3.42578 53.5645 3.99219C53.2715 4.55469 53.125 5.45898 53.125 6.70508ZM64.6738 6.70508C64.6738 8.18555 64.4395 9.29102 63.9707 10.0215C63.5059 10.752 62.793 11.1172 61.832 11.1172C60.9102 11.1172 60.209 10.7441 59.7285 9.99805C59.248 9.24805 59.0078 8.15039 59.0078 6.70508C59.0078 5.21289 59.2402 4.10547 59.7051 3.38281C60.1699 2.66016 60.8789 2.29883 61.832 2.29883C62.7617 2.29883 63.4668 2.67578 63.9473 3.42969C64.4316 4.18359 64.6738 5.27539 64.6738 6.70508ZM59.9922 6.70508C59.9922 7.95117 60.1387 8.85938 60.4316 9.42969C60.7246 9.99609 61.1914 10.2793 61.832 10.2793C62.4805 10.2793 62.9492 9.99219 63.2383 9.41797C63.5312 8.83984 63.6777 7.93555 63.6777 6.70508C63.6777 5.47461 63.5312 4.57422 63.2383 4.00391C62.9492 3.42969 62.4805 3.14258 61.832 3.14258C61.1914 3.14258 60.7246 3.42578 60.4316 3.99219C60.1387 4.55469 59.9922 5.45898 59.9922 6.70508Z" fill="#231F20"/>
<path d="M75 217H490M75 7H490H75ZM75 30.0629H490H75ZM75 53.6108H490H75ZM75 76.6737H490H75ZM75 100.213H490H75ZM75 123.276H490H75ZM75 146.339H490H75ZM75 169.878H490H75ZM75 192.941H490H75Z" stroke="#DDDDDD" stroke-width="0.39" stroke-linejoin="round"/>
<path d="M34.6211 33.0312H33.3496V35H32.418V33.0312H28.252V32.1816L32.3184 26.3867H33.3496V32.1465H34.6211V33.0312ZM32.418 32.1465V29.2988C32.418 28.7402 32.4375 28.1094 32.4766 27.4062H32.4297C32.2422 27.7812 32.0664 28.0918 31.9023 28.3379L29.2246 32.1465H32.418ZM41.1309 30.7051C41.1309 32.1855 40.8965 33.291 40.4277 34.0215C39.9629 34.752 39.25 35.1172 38.2891 35.1172C37.3672 35.1172 36.666 34.7441 36.1855 33.998C35.7051 33.248 35.4648 32.1504 35.4648 30.7051C35.4648 29.2129 35.6973 28.1055 36.1621 27.3828C36.627 26.6602 37.3359 26.2988 38.2891 26.2988C39.2188 26.2988 39.9238 26.6758 40.4043 27.4297C40.8887 28.1836 41.1309 29.2754 41.1309 30.7051ZM36.4492 30.7051C36.4492 31.9512 36.5957 32.8594 36.8887 33.4297C37.1816 33.9961 37.6484 34.2793 38.2891 34.2793C38.9375 34.2793 39.4062 33.9922 39.6953 33.418C39.9883 32.8398 40.1348 31.9355 40.1348 30.7051C40.1348 29.4746 39.9883 28.5742 39.6953 28.0039C39.4062 27.4297 38.9375 27.1426 38.2891 27.1426C37.6484 27.1426 37.1816 27.4258 36.8887 27.9922C36.5957 28.5547 36.4492 29.459 36.4492 30.7051ZM43.7852 33.6055L43.873 33.7402C43.7715 34.1309 43.625 34.584 43.4336 35.0996C43.2422 35.6191 43.043 36.1016 42.8359 36.5469H42.1035C42.209 36.1406 42.3242 35.6387 42.4492 35.041C42.5781 34.4434 42.668 33.9648 42.7188 33.6055H43.7852ZM50.9395 30.7051C50.9395 32.1855 50.7051 33.291 50.2363 34.0215C49.7715 34.752 49.0586 35.1172 48.0977 35.1172C47.1758 35.1172 46.4746 34.7441 45.9941 33.998C45.5137 33.248 45.2734 32.1504 45.2734 30.7051C45.2734 29.2129 45.5059 28.1055 45.9707 27.3828C46.4355 26.6602 47.1445 26.2988 48.0977 26.2988C49.0273 26.2988 49.7324 26.6758 50.2129 27.4297C50.6973 28.1836 50.9395 29.2754 50.9395 30.7051ZM46.2578 30.7051C46.2578 31.9512 46.4043 32.8594 46.6973 33.4297C46.9902 33.9961 47.457 34.2793 48.0977 34.2793C48.7461 34.2793 49.2148 33.9922 49.5039 33.418C49.7969 32.8398 49.9434 31.9355 49.9434 30.7051C49.9434 29.4746 49.7969 28.5742 49.5039 28.0039C49.2148 27.4297 48.7461 27.1426 48.0977 27.1426C47.457 27.1426 46.9902 27.4258 46.6973 27.9922C46.4043 28.5547 46.2578 29.459 46.2578 30.7051ZM57.8066 30.7051C57.8066 32.1855 57.5723 33.291 57.1035 34.0215C56.6387 34.752 55.9258 35.1172 54.9648 35.1172C54.043 35.1172 53.3418 34.7441 52.8613 33.998C52.3809 33.248 52.1406 32.1504 52.1406 30.7051C52.1406 29.2129 52.373 28.1055 52.8379 27.3828C53.3027 26.6602 54.0117 26.2988 54.9648 26.2988C55.8945 26.2988 56.5996 26.6758 57.0801 27.4297C57.5645 28.1836 57.8066 29.2754 57.8066 30.7051ZM53.125 30.7051C53.125 31.9512 53.2715 32.8594 53.5645 33.4297C53.8574 33.9961 54.3242 34.2793 54.9648 34.2793C55.6133 34.2793 56.082 33.9922 56.3711 33.418C56.6641 32.8398 56.8105 31.9355 56.8105 30.7051C56.8105 29.4746 56.6641 28.5742 56.3711 28.0039C56.082 27.4297 55.6133 27.1426 54.9648 27.1426C54.3242 27.1426 53.8574 27.4258 53.5645 27.9922C53.2715 28.5547 53.125 29.459 53.125 30.7051ZM64.6738 30.7051C64.6738 32.1855 64.4395 33.291 63.9707 34.0215C63.5059 34.752 62.793 35.1172 61.832 35.1172C60.9102 35.1172 60.209 34.7441 59.7285 33.998C59.248 33.248 59.0078 32.1504 59.0078 30.7051C59.0078 29.2129 59.2402 28.1055 59.7051 27.3828C60.1699 26.6602 60.8789 26.2988 61.832 26.2988C62.7617 26.2988 63.4668 26.6758 63.9473 27.4297C64.4316 28.1836 64.6738 29.2754 64.6738 30.7051ZM59.9922 30.7051C59.9922 31.9512 60.1387 32.8594 60.4316 33.4297C60.7246 33.9961 61.1914 34.2793 61.832 34.2793C62.4805 34.2793 62.9492 33.9922 63.2383 33.418C63.5312 32.8398 63.6777 31.9355 63.6777 30.7051C63.6777 29.4746 63.5312 28.5742 63.2383 28.0039C62.9492 27.4297 62.4805 27.1426 61.832 27.1426C61.1914 27.1426 60.7246 27.4258 60.4316 27.9922C60.1387 28.5547 59.9922 29.459 59.9922 30.7051Z" fill="#231F20"/>
<path d="M33.8945 52.4492C33.8945 52.9961 33.7402 53.4434 33.4316 53.791C33.127 54.1387 32.6934 54.3711 32.1309 54.4883V54.5352C32.8184 54.6211 33.3281 54.8398 33.6602 55.1914C33.9922 55.543 34.1582 56.0039 34.1582 56.5742C34.1582 57.3906 33.875 58.0195 33.3086 58.4609C32.7422 58.8984 31.9375 59.1172 30.8945 59.1172C30.4414 59.1172 30.0254 59.082 29.6465 59.0117C29.2715 58.9453 28.9062 58.8262 28.5508 58.6543V57.7285C28.9219 57.9121 29.3164 58.0527 29.7344 58.1504C30.1562 58.2441 30.5547 58.291 30.9297 58.291C32.4102 58.291 33.1504 57.7109 33.1504 56.5508C33.1504 55.5117 32.334 54.9922 30.7012 54.9922H29.8574V54.1543H30.7129C31.3809 54.1543 31.9102 54.0078 32.3008 53.7148C32.6914 53.418 32.8867 53.0078 32.8867 52.4844C32.8867 52.0664 32.7422 51.7383 32.4531 51.5C32.168 51.2617 31.7793 51.1426 31.2871 51.1426C30.9121 51.1426 30.5586 51.1934 30.2266 51.2949C29.8945 51.3965 29.5156 51.584 29.0898 51.8574L28.5977 51.2012C28.9492 50.9238 29.3535 50.707 29.8105 50.5508C30.2715 50.3906 30.7559 50.3105 31.2637 50.3105C32.0957 50.3105 32.7422 50.502 33.2031 50.8848C33.6641 51.2637 33.8945 51.7852 33.8945 52.4492ZM38.1309 53.7676C39.0332 53.7676 39.7422 53.9922 40.2578 54.4414C40.7773 54.8867 41.0371 55.498 41.0371 56.2754C41.0371 57.1621 40.7539 57.8574 40.1875 58.3613C39.625 58.8652 38.8477 59.1172 37.8555 59.1172C36.8906 59.1172 36.1543 58.9629 35.6465 58.6543V57.7168C35.9199 57.8926 36.2598 58.0312 36.666 58.1328C37.0723 58.2305 37.4727 58.2793 37.8672 58.2793C38.5547 58.2793 39.0879 58.1172 39.4668 57.793C39.8496 57.4688 40.041 57 40.041 56.3867C40.041 55.1914 39.3086 54.5938 37.8438 54.5938C37.4727 54.5938 36.9766 54.6504 36.3555 54.7637L35.8516 54.4414L36.1738 50.4336H40.4336V51.3301H37.0059L36.7891 53.9023C37.2383 53.8125 37.6855 53.7676 38.1309 53.7676ZM43.7852 57.6055L43.873 57.7402C43.7715 58.1309 43.625 58.584 43.4336 59.0996C43.2422 59.6191 43.043 60.1016 42.8359 60.5469H42.1035C42.209 60.1406 42.3242 59.6387 42.4492 59.041C42.5781 58.4434 42.668 57.9648 42.7188 57.6055H43.7852ZM50.9395 54.7051C50.9395 56.1855 50.7051 57.291 50.2363 58.0215C49.7715 58.752 49.0586 59.1172 48.0977 59.1172C47.1758 59.1172 46.4746 58.7441 45.9941 57.998C45.5137 57.248 45.2734 56.1504 45.2734 54.7051C45.2734 53.2129 45.5059 52.1055 45.9707 51.3828C46.4355 50.6602 47.1445 50.2988 48.0977 50.2988C49.0273 50.2988 49.7324 50.6758 50.2129 51.4297C50.6973 52.1836 50.9395 53.2754 50.9395 54.7051ZM46.2578 54.7051C46.2578 55.9512 46.4043 56.8594 46.6973 57.4297C46.9902 57.9961 47.457 58.2793 48.0977 58.2793C48.7461 58.2793 49.2148 57.9922 49.5039 57.418C49.7969 56.8398 49.9434 55.9355 49.9434 54.7051C49.9434 53.4746 49.7969 52.5742 49.5039 52.0039C49.2148 51.4297 48.7461 51.1426 48.0977 51.1426C47.457 51.1426 46.9902 51.4258 46.6973 51.9922C46.4043 52.5547 46.2578 53.459 46.2578 54.7051ZM57.8066 54.7051C57.8066 56.1855 57.5723 57.291 57.1035 58.0215C56.6387 58.752 55.9258 59.1172 54.9648 59.1172C54.043 59.1172 53.3418 58.7441 52.8613 57.998C52.3809 57.248 52.1406 56.1504 52.1406 54.7051C52.1406 53.2129 52.373 52.1055 52.8379 51.3828C53.3027 50.6602 54.0117 50.2988 54.9648 50.2988C55.8945 50.2988 56.5996 50.6758 57.0801 51.4297C57.5645 52.1836 57.8066 53.2754 57.8066 54.7051ZM53.125 54.7051C53.125 55.9512 53.2715 56.8594 53.5645 57.4297C53.8574 57.9961 54.3242 58.2793 54.9648 58.2793C55.6133 58.2793 56.082 57.9922 56.3711 57.418C56.6641 56.8398 56.8105 55.9355 56.8105 54.7051C56.8105 53.4746 56.6641 52.5742 56.3711 52.0039C56.082 51.4297 55.6133 51.1426 54.9648 51.1426C54.3242 51.1426 53.8574 51.4258 53.5645 51.9922C53.2715 52.5547 53.125 53.459 53.125 54.7051ZM64.6738 54.7051C64.6738 56.1855 64.4395 57.291 63.9707 58.0215C63.5059 58.752 62.793 59.1172 61.832 59.1172C60.9102 59.1172 60.209 58.7441 59.7285 57.998C59.248 57.248 59.0078 56.1504 59.0078 54.7051C59.0078 53.2129 59.2402 52.1055 59.7051 51.3828C60.1699 50.6602 60.8789 50.2988 61.832 50.2988C62.7617 50.2988 63.4668 50.6758 63.9473 51.4297C64.4316 52.1836 64.6738 53.2754 64.6738 54.7051ZM59.9922 54.7051C59.9922 55.9512 60.1387 56.8594 60.4316 57.4297C60.7246 57.9961 61.1914 58.2793 61.832 58.2793C62.4805 58.2793 62.9492 57.9922 63.2383 57.418C63.5312 56.8398 63.6777 55.9355 63.6777 54.7051C63.6777 53.4746 63.5312 52.5742 63.2383 52.0039C62.9492 51.4297 62.4805 51.1426 61.832 51.1426C61.1914 51.1426 60.7246 51.4258 60.4316 51.9922C60.1387 52.5547 59.9922 53.459 59.9922 54.7051Z" fill="#231F20"/>
<path d="M33.8945 75.4492C33.8945 75.9961 33.7402 76.4434 33.4316 76.791C33.127 77.1387 32.6934 77.3711 32.1309 77.4883V77.5352C32.8184 77.6211 33.3281 77.8398 33.6602 78.1914C33.9922 78.543 34.1582 79.0039 34.1582 79.5742C34.1582 80.3906 33.875 81.0195 33.3086 81.4609C32.7422 81.8984 31.9375 82.1172 30.8945 82.1172C30.4414 82.1172 30.0254 82.082 29.6465 82.0117C29.2715 81.9453 28.9062 81.8262 28.5508 81.6543V80.7285C28.9219 80.9121 29.3164 81.0527 29.7344 81.1504C30.1562 81.2441 30.5547 81.291 30.9297 81.291C32.4102 81.291 33.1504 80.7109 33.1504 79.5508C33.1504 78.5117 32.334 77.9922 30.7012 77.9922H29.8574V77.1543H30.7129C31.3809 77.1543 31.9102 77.0078 32.3008 76.7148C32.6914 76.418 32.8867 76.0078 32.8867 75.4844C32.8867 75.0664 32.7422 74.7383 32.4531 74.5C32.168 74.2617 31.7793 74.1426 31.2871 74.1426C30.9121 74.1426 30.5586 74.1934 30.2266 74.2949C29.8945 74.3965 29.5156 74.584 29.0898 74.8574L28.5977 74.2012C28.9492 73.9238 29.3535 73.707 29.8105 73.5508C30.2715 73.3906 30.7559 73.3105 31.2637 73.3105C32.0957 73.3105 32.7422 73.502 33.2031 73.8848C33.6641 74.2637 33.8945 74.7852 33.8945 75.4492ZM41.1309 77.7051C41.1309 79.1855 40.8965 80.291 40.4277 81.0215C39.9629 81.752 39.25 82.1172 38.2891 82.1172C37.3672 82.1172 36.666 81.7441 36.1855 80.998C35.7051 80.248 35.4648 79.1504 35.4648 77.7051C35.4648 76.2129 35.6973 75.1055 36.1621 74.3828C36.627 73.6602 37.3359 73.2988 38.2891 73.2988C39.2188 73.2988 39.9238 73.6758 40.4043 74.4297C40.8887 75.1836 41.1309 76.2754 41.1309 77.7051ZM36.4492 77.7051C36.4492 78.9512 36.5957 79.8594 36.8887 80.4297C37.1816 80.9961 37.6484 81.2793 38.2891 81.2793C38.9375 81.2793 39.4062 80.9922 39.6953 80.418C39.9883 79.8398 40.1348 78.9355 40.1348 77.7051C40.1348 76.4746 39.9883 75.5742 39.6953 75.0039C39.4062 74.4297 38.9375 74.1426 38.2891 74.1426C37.6484 74.1426 37.1816 74.4258 36.8887 74.9922C36.5957 75.5547 36.4492 76.459 36.4492 77.7051ZM43.7852 80.6055L43.873 80.7402C43.7715 81.1309 43.625 81.584 43.4336 82.0996C43.2422 82.6191 43.043 83.1016 42.8359 83.5469H42.1035C42.209 83.1406 42.3242 82.6387 42.4492 82.041C42.5781 81.4434 42.668 80.9648 42.7188 80.6055H43.7852ZM50.9395 77.7051C50.9395 79.1855 50.7051 80.291 50.2363 81.0215C49.7715 81.752 49.0586 82.1172 48.0977 82.1172C47.1758 82.1172 46.4746 81.7441 45.9941 80.998C45.5137 80.248 45.2734 79.1504 45.2734 77.7051C45.2734 76.2129 45.5059 75.1055 45.9707 74.3828C46.4355 73.6602 47.1445 73.2988 48.0977 73.2988C49.0273 73.2988 49.7324 73.6758 50.2129 74.4297C50.6973 75.1836 50.9395 76.2754 50.9395 77.7051ZM46.2578 77.7051C46.2578 78.9512 46.4043 79.8594 46.6973 80.4297C46.9902 80.9961 47.457 81.2793 48.0977 81.2793C48.7461 81.2793 49.2148 80.9922 49.5039 80.418C49.7969 79.8398 49.9434 78.9355 49.9434 77.7051C49.9434 76.4746 49.7969 75.5742 49.5039 75.0039C49.2148 74.4297 48.7461 74.1426 48.0977 74.1426C47.457 74.1426 46.9902 74.4258 46.6973 74.9922C46.4043 75.5547 46.2578 76.459 46.2578 77.7051ZM57.8066 77.7051C57.8066 79.1855 57.5723 80.291 57.1035 81.0215C56.6387 81.752 55.9258 82.1172 54.9648 82.1172C54.043 82.1172 53.3418 81.7441 52.8613 80.998C52.3809 80.248 52.1406 79.1504 52.1406 77.7051C52.1406 76.2129 52.373 75.1055 52.8379 74.3828C53.3027 73.6602 54.0117 73.2988 54.9648 73.2988C55.8945 73.2988 56.5996 73.6758 57.0801 74.4297C57.5645 75.1836 57.8066 76.2754 57.8066 77.7051ZM53.125 77.7051C53.125 78.9512 53.2715 79.8594 53.5645 80.4297C53.8574 80.9961 54.3242 81.2793 54.9648 81.2793C55.6133 81.2793 56.082 80.9922 56.3711 80.418C56.6641 79.8398 56.8105 78.9355 56.8105 77.7051C56.8105 76.4746 56.6641 75.5742 56.3711 75.0039C56.082 74.4297 55.6133 74.1426 54.9648 74.1426C54.3242 74.1426 53.8574 74.4258 53.5645 74.9922C53.2715 75.5547 53.125 76.459 53.125 77.7051ZM64.6738 77.7051C64.6738 79.1855 64.4395 80.291 63.9707 81.0215C63.5059 81.752 62.793 82.1172 61.832 82.1172C60.9102 82.1172 60.209 81.7441 59.7285 80.998C59.248 80.248 59.0078 79.1504 59.0078 77.7051C59.0078 76.2129 59.2402 75.1055 59.7051 74.3828C60.1699 73.6602 60.8789 73.2988 61.832 73.2988C62.7617 73.2988 63.4668 73.6758 63.9473 74.4297C64.4316 75.1836 64.6738 76.2754 64.6738 77.7051ZM59.9922 77.7051C59.9922 78.9512 60.1387 79.8594 60.4316 80.4297C60.7246 80.9961 61.1914 81.2793 61.832 81.2793C62.4805 81.2793 62.9492 80.9922 63.2383 80.418C63.5312 79.8398 63.6777 78.9355 63.6777 77.7051C63.6777 76.4746 63.5312 75.5742 63.2383 75.0039C62.9492 74.4297 62.4805 74.1426 61.832 74.1426C61.1914 74.1426 60.7246 74.4258 60.4316 74.9922C60.1387 75.5547 59.9922 76.459 59.9922 77.7051Z" fill="#231F20"/>
<path d="M34.2168 105H28.5859V104.162L30.8418 101.895C31.5293 101.199 31.9824 100.703 32.2012 100.406C32.4199 100.109 32.584 99.8203 32.6934 99.5391C32.8027 99.2578 32.8574 98.9551 32.8574 98.6309C32.8574 98.1738 32.7188 97.8125 32.4414 97.5469C32.1641 97.2773 31.7793 97.1426 31.2871 97.1426C30.9316 97.1426 30.5938 97.2012 30.2734 97.3184C29.957 97.4355 29.6035 97.6484 29.2129 97.957L28.6973 97.2949C29.4863 96.6387 30.3457 96.3105 31.2754 96.3105C32.0801 96.3105 32.7109 96.5176 33.168 96.9316C33.625 97.3418 33.8535 97.8945 33.8535 98.5898C33.8535 99.1328 33.7012 99.6699 33.3965 100.201C33.0918 100.732 32.5215 101.404 31.6855 102.217L29.8105 104.051V104.098H34.2168V105ZM38.1309 99.7676C39.0332 99.7676 39.7422 99.9922 40.2578 100.441C40.7773 100.887 41.0371 101.498 41.0371 102.275C41.0371 103.162 40.7539 103.857 40.1875 104.361C39.625 104.865 38.8477 105.117 37.8555 105.117C36.8906 105.117 36.1543 104.963 35.6465 104.654V103.717C35.9199 103.893 36.2598 104.031 36.666 104.133C37.0723 104.23 37.4727 104.279 37.8672 104.279C38.5547 104.279 39.0879 104.117 39.4668 103.793C39.8496 103.469 40.041 103 40.041 102.387C40.041 101.191 39.3086 100.594 37.8438 100.594C37.4727 100.594 36.9766 100.65 36.3555 100.764L35.8516 100.441L36.1738 96.4336H40.4336V97.3301H37.0059L36.7891 99.9023C37.2383 99.8125 37.6855 99.7676 38.1309 99.7676ZM43.7852 103.605L43.873 103.74C43.7715 104.131 43.625 104.584 43.4336 105.1C43.2422 105.619 43.043 106.102 42.8359 106.547H42.1035C42.209 106.141 42.3242 105.639 42.4492 105.041C42.5781 104.443 42.668 103.965 42.7188 103.605H43.7852ZM50.9395 100.705C50.9395 102.186 50.7051 103.291 50.2363 104.021C49.7715 104.752 49.0586 105.117 48.0977 105.117C47.1758 105.117 46.4746 104.744 45.9941 103.998C45.5137 103.248 45.2734 102.15 45.2734 100.705C45.2734 99.2129 45.5059 98.1055 45.9707 97.3828C46.4355 96.6602 47.1445 96.2988 48.0977 96.2988C49.0273 96.2988 49.7324 96.6758 50.2129 97.4297C50.6973 98.1836 50.9395 99.2754 50.9395 100.705ZM46.2578 100.705C46.2578 101.951 46.4043 102.859 46.6973 103.43C46.9902 103.996 47.457 104.279 48.0977 104.279C48.7461 104.279 49.2148 103.992 49.5039 103.418C49.7969 102.84 49.9434 101.936 49.9434 100.705C49.9434 99.4746 49.7969 98.5742 49.5039 98.0039C49.2148 97.4297 48.7461 97.1426 48.0977 97.1426C47.457 97.1426 46.9902 97.4258 46.6973 97.9922C46.4043 98.5547 46.2578 99.459 46.2578 100.705ZM57.8066 100.705C57.8066 102.186 57.5723 103.291 57.1035 104.021C56.6387 104.752 55.9258 105.117 54.9648 105.117C54.043 105.117 53.3418 104.744 52.8613 103.998C52.3809 103.248 52.1406 102.15 52.1406 100.705C52.1406 99.2129 52.373 98.1055 52.8379 97.3828C53.3027 96.6602 54.0117 96.2988 54.9648 96.2988C55.8945 96.2988 56.5996 96.6758 57.0801 97.4297C57.5645 98.1836 57.8066 99.2754 57.8066 100.705ZM53.125 100.705C53.125 101.951 53.2715 102.859 53.5645 103.43C53.8574 103.996 54.3242 104.279 54.9648 104.279C55.6133 104.279 56.082 103.992 56.3711 103.418C56.6641 102.84 56.8105 101.936 56.8105 100.705C56.8105 99.4746 56.6641 98.5742 56.3711 98.0039C56.082 97.4297 55.6133 97.1426 54.9648 97.1426C54.3242 97.1426 53.8574 97.4258 53.5645 97.9922C53.2715 98.5547 53.125 99.459 53.125 100.705ZM64.6738 100.705C64.6738 102.186 64.4395 103.291 63.9707 104.021C63.5059 104.752 62.793 105.117 61.832 105.117C60.9102 105.117 60.209 104.744 59.7285 103.998C59.248 103.248 59.0078 102.15 59.0078 100.705C59.0078 99.2129 59.2402 98.1055 59.7051 97.3828C60.1699 96.6602 60.8789 96.2988 61.832 96.2988C62.7617 96.2988 63.4668 96.6758 63.9473 97.4297C64.4316 98.1836 64.6738 99.2754 64.6738 100.705ZM59.9922 100.705C59.9922 101.951 60.1387 102.859 60.4316 103.43C60.7246 103.996 61.1914 104.279 61.832 104.279C62.4805 104.279 62.9492 103.992 63.2383 103.418C63.5312 102.84 63.6777 101.936 63.6777 100.705C63.6777 99.4746 63.5312 98.5742 63.2383 98.0039C62.9492 97.4297 62.4805 97.1426 61.832 97.1426C61.1914 97.1426 60.7246 97.4258 60.4316 97.9922C60.1387 98.5547 59.9922 99.459 59.9922 100.705Z" fill="#231F20"/>
<path d="M34.2168 128H28.5859V127.162L30.8418 124.895C31.5293 124.199 31.9824 123.703 32.2012 123.406C32.4199 123.109 32.584 122.82 32.6934 122.539C32.8027 122.258 32.8574 121.955 32.8574 121.631C32.8574 121.174 32.7188 120.812 32.4414 120.547C32.1641 120.277 31.7793 120.143 31.2871 120.143C30.9316 120.143 30.5938 120.201 30.2734 120.318C29.957 120.436 29.6035 120.648 29.2129 120.957L28.6973 120.295C29.4863 119.639 30.3457 119.311 31.2754 119.311C32.0801 119.311 32.7109 119.518 33.168 119.932C33.625 120.342 33.8535 120.895 33.8535 121.59C33.8535 122.133 33.7012 122.67 33.3965 123.201C33.0918 123.732 32.5215 124.404 31.6855 125.217L29.8105 127.051V127.098H34.2168V128ZM41.1309 123.705C41.1309 125.186 40.8965 126.291 40.4277 127.021C39.9629 127.752 39.25 128.117 38.2891 128.117C37.3672 128.117 36.666 127.744 36.1855 126.998C35.7051 126.248 35.4648 125.15 35.4648 123.705C35.4648 122.213 35.6973 121.105 36.1621 120.383C36.627 119.66 37.3359 119.299 38.2891 119.299C39.2188 119.299 39.9238 119.676 40.4043 120.43C40.8887 121.184 41.1309 122.275 41.1309 123.705ZM36.4492 123.705C36.4492 124.951 36.5957 125.859 36.8887 126.43C37.1816 126.996 37.6484 127.279 38.2891 127.279C38.9375 127.279 39.4062 126.992 39.6953 126.418C39.9883 125.84 40.1348 124.936 40.1348 123.705C40.1348 122.475 39.9883 121.574 39.6953 121.004C39.4062 120.43 38.9375 120.143 38.2891 120.143C37.6484 120.143 37.1816 120.426 36.8887 120.992C36.5957 121.555 36.4492 122.459 36.4492 123.705ZM43.7852 126.605L43.873 126.74C43.7715 127.131 43.625 127.584 43.4336 128.1C43.2422 128.619 43.043 129.102 42.8359 129.547H42.1035C42.209 129.141 42.3242 128.639 42.4492 128.041C42.5781 127.443 42.668 126.965 42.7188 126.605H43.7852ZM50.9395 123.705C50.9395 125.186 50.7051 126.291 50.2363 127.021C49.7715 127.752 49.0586 128.117 48.0977 128.117C47.1758 128.117 46.4746 127.744 45.9941 126.998C45.5137 126.248 45.2734 125.15 45.2734 123.705C45.2734 122.213 45.5059 121.105 45.9707 120.383C46.4355 119.66 47.1445 119.299 48.0977 119.299C49.0273 119.299 49.7324 119.676 50.2129 120.43C50.6973 121.184 50.9395 122.275 50.9395 123.705ZM46.2578 123.705C46.2578 124.951 46.4043 125.859 46.6973 126.43C46.9902 126.996 47.457 127.279 48.0977 127.279C48.7461 127.279 49.2148 126.992 49.5039 126.418C49.7969 125.84 49.9434 124.936 49.9434 123.705C49.9434 122.475 49.7969 121.574 49.5039 121.004C49.2148 120.43 48.7461 120.143 48.0977 120.143C47.457 120.143 46.9902 120.426 46.6973 120.992C46.4043 121.555 46.2578 122.459 46.2578 123.705ZM57.8066 123.705C57.8066 125.186 57.5723 126.291 57.1035 127.021C56.6387 127.752 55.9258 128.117 54.9648 128.117C54.043 128.117 53.3418 127.744 52.8613 126.998C52.3809 126.248 52.1406 125.15 52.1406 123.705C52.1406 122.213 52.373 121.105 52.8379 120.383C53.3027 119.66 54.0117 119.299 54.9648 119.299C55.8945 119.299 56.5996 119.676 57.0801 120.43C57.5645 121.184 57.8066 122.275 57.8066 123.705ZM53.125 123.705C53.125 124.951 53.2715 125.859 53.5645 126.43C53.8574 126.996 54.3242 127.279 54.9648 127.279C55.6133 127.279 56.082 126.992 56.3711 126.418C56.6641 125.84 56.8105 124.936 56.8105 123.705C56.8105 122.475 56.6641 121.574 56.3711 121.004C56.082 120.43 55.6133 120.143 54.9648 120.143C54.3242 120.143 53.8574 120.426 53.5645 120.992C53.2715 121.555 53.125 122.459 53.125 123.705ZM64.6738 123.705C64.6738 125.186 64.4395 126.291 63.9707 127.021C63.5059 127.752 62.793 128.117 61.832 128.117C60.9102 128.117 60.209 127.744 59.7285 126.998C59.248 126.248 59.0078 125.15 59.0078 123.705C59.0078 122.213 59.2402 121.105 59.7051 120.383C60.1699 119.66 60.8789 119.299 61.832 119.299C62.7617 119.299 63.4668 119.676 63.9473 120.43C64.4316 121.184 64.6738 122.275 64.6738 123.705ZM59.9922 123.705C59.9922 124.951 60.1387 125.859 60.4316 126.43C60.7246 126.996 61.1914 127.279 61.832 127.279C62.4805 127.279 62.9492 126.992 63.2383 126.418C63.5312 125.84 63.6777 124.936 63.6777 123.705C63.6777 122.475 63.5312 121.574 63.2383 121.004C62.9492 120.43 62.4805 120.143 61.832 120.143C61.1914 120.143 60.7246 120.426 60.4316 120.992C60.1387 121.555 59.9922 122.459 59.9922 123.705Z" fill="#231F20"/>
<path d="M32.1895 151H31.2402V144.895C31.2402 144.387 31.2559 143.906 31.2871 143.453C31.2051 143.535 31.1133 143.621 31.0117 143.711C30.9102 143.801 30.4453 144.182 29.6172 144.854L29.1016 144.186L31.3691 142.434H32.1895V151ZM38.1309 145.768C39.0332 145.768 39.7422 145.992 40.2578 146.441C40.7773 146.887 41.0371 147.498 41.0371 148.275C41.0371 149.162 40.7539 149.857 40.1875 150.361C39.625 150.865 38.8477 151.117 37.8555 151.117C36.8906 151.117 36.1543 150.963 35.6465 150.654V149.717C35.9199 149.893 36.2598 150.031 36.666 150.133C37.0723 150.23 37.4727 150.279 37.8672 150.279C38.5547 150.279 39.0879 150.117 39.4668 149.793C39.8496 149.469 40.041 149 40.041 148.387C40.041 147.191 39.3086 146.594 37.8438 146.594C37.4727 146.594 36.9766 146.65 36.3555 146.764L35.8516 146.441L36.1738 142.434H40.4336V143.33H37.0059L36.7891 145.902C37.2383 145.812 37.6855 145.768 38.1309 145.768ZM43.7852 149.605L43.873 149.74C43.7715 150.131 43.625 150.584 43.4336 151.1C43.2422 151.619 43.043 152.102 42.8359 152.547H42.1035C42.209 152.141 42.3242 151.639 42.4492 151.041C42.5781 150.443 42.668 149.965 42.7188 149.605H43.7852ZM50.9395 146.705C50.9395 148.186 50.7051 149.291 50.2363 150.021C49.7715 150.752 49.0586 151.117 48.0977 151.117C47.1758 151.117 46.4746 150.744 45.9941 149.998C45.5137 149.248 45.2734 148.15 45.2734 146.705C45.2734 145.213 45.5059 144.105 45.9707 143.383C46.4355 142.66 47.1445 142.299 48.0977 142.299C49.0273 142.299 49.7324 142.676 50.2129 143.43C50.6973 144.184 50.9395 145.275 50.9395 146.705ZM46.2578 146.705C46.2578 147.951 46.4043 148.859 46.6973 149.43C46.9902 149.996 47.457 150.279 48.0977 150.279C48.7461 150.279 49.2148 149.992 49.5039 149.418C49.7969 148.84 49.9434 147.936 49.9434 146.705C49.9434 145.475 49.7969 144.574 49.5039 144.004C49.2148 143.43 48.7461 143.143 48.0977 143.143C47.457 143.143 46.9902 143.426 46.6973 143.992C46.4043 144.555 46.2578 145.459 46.2578 146.705ZM57.8066 146.705C57.8066 148.186 57.5723 149.291 57.1035 150.021C56.6387 150.752 55.9258 151.117 54.9648 151.117C54.043 151.117 53.3418 150.744 52.8613 149.998C52.3809 149.248 52.1406 148.15 52.1406 146.705C52.1406 145.213 52.373 144.105 52.8379 143.383C53.3027 142.66 54.0117 142.299 54.9648 142.299C55.8945 142.299 56.5996 142.676 57.0801 143.43C57.5645 144.184 57.8066 145.275 57.8066 146.705ZM53.125 146.705C53.125 147.951 53.2715 148.859 53.5645 149.43C53.8574 149.996 54.3242 150.279 54.9648 150.279C55.6133 150.279 56.082 149.992 56.3711 149.418C56.6641 148.84 56.8105 147.936 56.8105 146.705C56.8105 145.475 56.6641 144.574 56.3711 144.004C56.082 143.43 55.6133 143.143 54.9648 143.143C54.3242 143.143 53.8574 143.426 53.5645 143.992C53.2715 144.555 53.125 145.459 53.125 146.705ZM64.6738 146.705C64.6738 148.186 64.4395 149.291 63.9707 150.021C63.5059 150.752 62.793 151.117 61.832 151.117C60.9102 151.117 60.209 150.744 59.7285 149.998C59.248 149.248 59.0078 148.15 59.0078 146.705C59.0078 145.213 59.2402 144.105 59.7051 143.383C60.1699 142.66 60.8789 142.299 61.832 142.299C62.7617 142.299 63.4668 142.676 63.9473 143.43C64.4316 144.184 64.6738 145.275 64.6738 146.705ZM59.9922 146.705C59.9922 147.951 60.1387 148.859 60.4316 149.43C60.7246 149.996 61.1914 150.279 61.832 150.279C62.4805 150.279 62.9492 149.992 63.2383 149.418C63.5312 148.84 63.6777 147.936 63.6777 146.705C63.6777 145.475 63.5312 144.574 63.2383 144.004C62.9492 143.43 62.4805 143.143 61.832 143.143C61.1914 143.143 60.7246 143.426 60.4316 143.992C60.1387 144.555 59.9922 145.459 59.9922 146.705Z" fill="#231F20"/>
<path d="M32.1895 175H31.2402V168.895C31.2402 168.387 31.2559 167.906 31.2871 167.453C31.2051 167.535 31.1133 167.621 31.0117 167.711C30.9102 167.801 30.4453 168.182 29.6172 168.854L29.1016 168.186L31.3691 166.434H32.1895V175ZM41.1309 170.705C41.1309 172.186 40.8965 173.291 40.4277 174.021C39.9629 174.752 39.25 175.117 38.2891 175.117C37.3672 175.117 36.666 174.744 36.1855 173.998C35.7051 173.248 35.4648 172.15 35.4648 170.705C35.4648 169.213 35.6973 168.105 36.1621 167.383C36.627 166.66 37.3359 166.299 38.2891 166.299C39.2188 166.299 39.9238 166.676 40.4043 167.43C40.8887 168.184 41.1309 169.275 41.1309 170.705ZM36.4492 170.705C36.4492 171.951 36.5957 172.859 36.8887 173.43C37.1816 173.996 37.6484 174.279 38.2891 174.279C38.9375 174.279 39.4062 173.992 39.6953 173.418C39.9883 172.84 40.1348 171.936 40.1348 170.705C40.1348 169.475 39.9883 168.574 39.6953 168.004C39.4062 167.43 38.9375 167.143 38.2891 167.143C37.6484 167.143 37.1816 167.426 36.8887 167.992C36.5957 168.555 36.4492 169.459 36.4492 170.705ZM43.7852 173.605L43.873 173.74C43.7715 174.131 43.625 174.584 43.4336 175.1C43.2422 175.619 43.043 176.102 42.8359 176.547H42.1035C42.209 176.141 42.3242 175.639 42.4492 175.041C42.5781 174.443 42.668 173.965 42.7188 173.605H43.7852ZM50.9395 170.705C50.9395 172.186 50.7051 173.291 50.2363 174.021C49.7715 174.752 49.0586 175.117 48.0977 175.117C47.1758 175.117 46.4746 174.744 45.9941 173.998C45.5137 173.248 45.2734 172.15 45.2734 170.705C45.2734 169.213 45.5059 168.105 45.9707 167.383C46.4355 166.66 47.1445 166.299 48.0977 166.299C49.0273 166.299 49.7324 166.676 50.2129 167.43C50.6973 168.184 50.9395 169.275 50.9395 170.705ZM46.2578 170.705C46.2578 171.951 46.4043 172.859 46.6973 173.43C46.9902 173.996 47.457 174.279 48.0977 174.279C48.7461 174.279 49.2148 173.992 49.5039 173.418C49.7969 172.84 49.9434 171.936 49.9434 170.705C49.9434 169.475 49.7969 168.574 49.5039 168.004C49.2148 167.43 48.7461 167.143 48.0977 167.143C47.457 167.143 46.9902 167.426 46.6973 167.992C46.4043 168.555 46.2578 169.459 46.2578 170.705ZM57.8066 170.705C57.8066 172.186 57.5723 173.291 57.1035 174.021C56.6387 174.752 55.9258 175.117 54.9648 175.117C54.043 175.117 53.3418 174.744 52.8613 173.998C52.3809 173.248 52.1406 172.15 52.1406 170.705C52.1406 169.213 52.373 168.105 52.8379 167.383C53.3027 166.66 54.0117 166.299 54.9648 166.299C55.8945 166.299 56.5996 166.676 57.0801 167.43C57.5645 168.184 57.8066 169.275 57.8066 170.705ZM53.125 170.705C53.125 171.951 53.2715 172.859 53.5645 173.43C53.8574 173.996 54.3242 174.279 54.9648 174.279C55.6133 174.279 56.082 173.992 56.3711 173.418C56.6641 172.84 56.8105 171.936 56.8105 170.705C56.8105 169.475 56.6641 168.574 56.3711 168.004C56.082 167.43 55.6133 167.143 54.9648 167.143C54.3242 167.143 53.8574 167.426 53.5645 167.992C53.2715 168.555 53.125 169.459 53.125 170.705ZM64.6738 170.705C64.6738 172.186 64.4395 173.291 63.9707 174.021C63.5059 174.752 62.793 175.117 61.832 175.117C60.9102 175.117 60.209 174.744 59.7285 173.998C59.248 173.248 59.0078 172.15 59.0078 170.705C59.0078 169.213 59.2402 168.105 59.7051 167.383C60.1699 166.66 60.8789 166.299 61.832 166.299C62.7617 166.299 63.4668 166.676 63.9473 167.43C64.4316 168.184 64.6738 169.275 64.6738 170.705ZM59.9922 170.705C59.9922 171.951 60.1387 172.859 60.4316 173.43C60.7246 173.996 61.1914 174.279 61.832 174.279C62.4805 174.279 62.9492 173.992 63.2383 173.418C63.5312 172.84 63.6777 171.936 63.6777 170.705C63.6777 169.475 63.5312 168.574 63.2383 168.004C62.9492 167.43 62.4805 167.143 61.832 167.143C61.1914 167.143 60.7246 167.426 60.4316 167.992C60.1387 168.555 59.9922 169.459 59.9922 170.705Z" fill="#231F20"/>
<path d="M31.2637 192.768C32.166 192.768 32.875 192.992 33.3906 193.441C33.9102 193.887 34.1699 194.498 34.1699 195.275C34.1699 196.162 33.8867 196.857 33.3203 197.361C32.7578 197.865 31.9805 198.117 30.9883 198.117C30.0234 198.117 29.2871 197.963 28.7793 197.654V196.717C29.0527 196.893 29.3926 197.031 29.7988 197.133C30.2051 197.23 30.6055 197.279 31 197.279C31.6875 197.279 32.2207 197.117 32.5996 196.793C32.9824 196.469 33.1738 196 33.1738 195.387C33.1738 194.191 32.4414 193.594 30.9766 193.594C30.6055 193.594 30.1094 193.65 29.4883 193.764L28.9844 193.441L29.3066 189.434H33.5664V190.33H30.1387L29.9219 192.902C30.3711 192.812 30.8184 192.768 31.2637 192.768ZM36.918 196.605L37.0059 196.74C36.9043 197.131 36.7578 197.584 36.5664 198.1C36.375 198.619 36.1758 199.102 35.9688 199.547H35.2363C35.3418 199.141 35.457 198.639 35.582 198.041C35.7109 197.443 35.8008 196.965 35.8516 196.605H36.918ZM44.0723 193.705C44.0723 195.186 43.8379 196.291 43.3691 197.021C42.9043 197.752 42.1914 198.117 41.2305 198.117C40.3086 198.117 39.6074 197.744 39.127 196.998C38.6465 196.248 38.4062 195.15 38.4062 193.705C38.4062 192.213 38.6387 191.105 39.1035 190.383C39.5684 189.66 40.2773 189.299 41.2305 189.299C42.1602 189.299 42.8652 189.676 43.3457 190.43C43.8301 191.184 44.0723 192.275 44.0723 193.705ZM39.3906 193.705C39.3906 194.951 39.5371 195.859 39.8301 196.43C40.123 196.996 40.5898 197.279 41.2305 197.279C41.8789 197.279 42.3477 196.992 42.6367 196.418C42.9297 195.84 43.0762 194.936 43.0762 193.705C43.0762 192.475 42.9297 191.574 42.6367 191.004C42.3477 190.43 41.8789 190.143 41.2305 190.143C40.5898 190.143 40.123 190.426 39.8301 190.992C39.5371 191.555 39.3906 192.459 39.3906 193.705ZM50.9395 193.705C50.9395 195.186 50.7051 196.291 50.2363 197.021C49.7715 197.752 49.0586 198.117 48.0977 198.117C47.1758 198.117 46.4746 197.744 45.9941 196.998C45.5137 196.248 45.2734 195.15 45.2734 193.705C45.2734 192.213 45.5059 191.105 45.9707 190.383C46.4355 189.66 47.1445 189.299 48.0977 189.299C49.0273 189.299 49.7324 189.676 50.2129 190.43C50.6973 191.184 50.9395 192.275 50.9395 193.705ZM46.2578 193.705C46.2578 194.951 46.4043 195.859 46.6973 196.43C46.9902 196.996 47.457 197.279 48.0977 197.279C48.7461 197.279 49.2148 196.992 49.5039 196.418C49.7969 195.84 49.9434 194.936 49.9434 193.705C49.9434 192.475 49.7969 191.574 49.5039 191.004C49.2148 190.43 48.7461 190.143 48.0977 190.143C47.457 190.143 46.9902 190.426 46.6973 190.992C46.4043 191.555 46.2578 192.459 46.2578 193.705ZM57.8066 193.705C57.8066 195.186 57.5723 196.291 57.1035 197.021C56.6387 197.752 55.9258 198.117 54.9648 198.117C54.043 198.117 53.3418 197.744 52.8613 196.998C52.3809 196.248 52.1406 195.15 52.1406 193.705C52.1406 192.213 52.373 191.105 52.8379 190.383C53.3027 189.66 54.0117 189.299 54.9648 189.299C55.8945 189.299 56.5996 189.676 57.0801 190.43C57.5645 191.184 57.8066 192.275 57.8066 193.705ZM53.125 193.705C53.125 194.951 53.2715 195.859 53.5645 196.43C53.8574 196.996 54.3242 197.279 54.9648 197.279C55.6133 197.279 56.082 196.992 56.3711 196.418C56.6641 195.84 56.8105 194.936 56.8105 193.705C56.8105 192.475 56.6641 191.574 56.3711 191.004C56.082 190.43 55.6133 190.143 54.9648 190.143C54.3242 190.143 53.8574 190.426 53.5645 190.992C53.2715 191.555 53.125 192.459 53.125 193.705Z" fill="#231F20"/>
<path d="M34.2637 217.705C34.2637 219.186 34.0293 220.291 33.5605 221.021C33.0957 221.752 32.3828 222.117 31.4219 222.117C30.5 222.117 29.7988 221.744 29.3184 220.998C28.8379 220.248 28.5977 219.15 28.5977 217.705C28.5977 216.213 28.8301 215.105 29.2949 214.383C29.7598 213.66 30.4688 213.299 31.4219 213.299C32.3516 213.299 33.0566 213.676 33.5371 214.43C34.0215 215.184 34.2637 216.275 34.2637 217.705ZM29.582 217.705C29.582 218.951 29.7285 219.859 30.0215 220.43C30.3145 220.996 30.7812 221.279 31.4219 221.279C32.0703 221.279 32.5391 220.992 32.8281 220.418C33.1211 219.84 33.2676 218.936 33.2676 217.705C33.2676 216.475 33.1211 215.574 32.8281 215.004C32.5391 214.43 32.0703 214.143 31.4219 214.143C30.7812 214.143 30.3145 214.426 30.0215 214.992C29.7285 215.555 29.582 216.459 29.582 217.705Z" fill="#231F20"/>
<path d="M490.294 107.324H475.535V216.305H490.294V107.324Z" fill="#0D6C83"/>
<path d="M470.724 106.839H456.827V216.296H470.724V106.839Z" fill="#0D6C83"/>
<path d="M452.007 78.9927H438.11V216.296H452.007V78.9927Z" fill="#0D6C83"/>
<path d="M433.29 94.3611H419.393V216.305H433.29V94.3611Z" fill="#0D6C83"/>
<path d="M414.582 84.2799H400.685V216.305H414.582V84.2799Z" fill="#0D6C83"/>
<path d="M395.865 98.6792H381.106V216.296H395.865V98.6792Z" fill="#0D6C83"/>
<path d="M376.278 90.0343H361.519V216.296H376.278V90.0343Z" fill="#0D6C83"/>
<path d="M356.699 114.039H341.94V216.296H356.699V114.039Z" fill="#0D6C83"/>
<path d="M337.12 102.997H323.223V216.296H337.12V102.997Z" fill="#0D6C83"/>
<path d="M318.412 111.642H304.515V216.296H318.412V111.642Z" fill="#0D6C83"/>
<path d="M299.695 77.0715H285.798V216.296H299.695V77.0715Z" fill="#0D6C83"/>
<path d="M280.978 81.8743H266.219V216.296H280.978V81.8743Z" fill="#0D6C83"/>
<path d="M261.39 88.5979H246.631V216.296H261.39V88.5979Z" fill="#0D6C83"/>
<path d="M241.978 123.644H227.219V216.296H241.978V123.644Z" fill="#0D6C83"/>
<path d="M222.399 108.276H208.502V216.296H222.399V108.276Z" fill="#0D6C83"/>
<path d="M203.682 124.12H189.785V216.296H203.682V124.12Z" fill="#0D6C83"/>
<path d="M184.974 117.405H171.077V216.305H184.974V117.405Z" fill="#0D6C83"/>
<path d="M166.257 105.879H152.36V216.296H166.257V105.879Z" fill="#0D6C83"/>
<path d="M147.54 137.083H132.781V216.296H147.54V137.083Z" fill="#0D6C83"/>
<path d="M127.962 134.201H113.203V216.296H127.962V134.201Z" fill="#0D6C83"/>
<path d="M108.374 140.925H93.6149V216.296H108.374V140.925Z" fill="#0D6C83"/>
<path d="M88.8037 138.528H74.9067V216.305H88.8037V138.528Z" fill="#0D6C83"/>
<path d="M490.294 54.0276H475.535V107.315H490.294V54.0276Z" fill="#A2D5D1"/>
<path d="M470.724 59.7908H456.827V106.839H470.724V59.7908Z" fill="#A2D5D1"/>
<path d="M452.007 17.545H438.11V78.9926H452.007V17.545Z" fill="#A2D5D1"/>
<path d="M433.29 46.828H419.393V94.3523H433.29V46.828Z" fill="#A2D5D1"/>
<path d="M414.582 39.1526H400.685V84.2799H414.582V39.1526Z" fill="#A2D5D1"/>
<path d="M395.865 60.7513H381.106V98.6791H395.865V60.7513Z" fill="#A2D5D1"/>
<path d="M376.278 47.3127H361.519V90.0432H376.278V47.3127Z" fill="#A2D5D1"/>
<path d="M356.699 72.7535H341.94V114.039H356.699V72.7535Z" fill="#A2D5D1"/>
<path d="M337.12 62.6724H323.223V102.997H337.12V62.6724Z" fill="#A2D5D1"/>
<path d="M318.412 76.1111H304.515V111.633H318.412V76.1111Z" fill="#A2D5D1"/>
<path d="M299.695 37.2316H285.798V77.0804H299.695V37.2316Z" fill="#A2D5D1"/>
<path d="M280.978 52.5912H266.219V81.8742H280.978V52.5912Z" fill="#A2D5D1"/>
<path d="M72.1895 236H71.2402V229.895C71.2402 229.387 71.2559 228.906 71.2871 228.453C71.2051 228.535 71.1133 228.621 71.0117 228.711C70.9102 228.801 70.4453 229.182 69.6172 229.854L69.1016 229.186L71.3691 227.434H72.1895V236ZM81.084 231.09C81.084 234.441 79.7871 236.117 77.1934 236.117C76.7402 236.117 76.3809 236.078 76.1152 236V235.162C76.4277 235.264 76.7832 235.314 77.1816 235.314C78.1191 235.314 78.8262 235.025 79.3027 234.447C79.7832 233.865 80.0449 232.975 80.0879 231.775H80.0176C79.8027 232.1 79.5176 232.348 79.1621 232.52C78.8066 232.688 78.4062 232.771 77.9609 232.771C77.2031 232.771 76.6016 232.545 76.1562 232.092C75.7109 231.639 75.4883 231.006 75.4883 230.193C75.4883 229.303 75.7363 228.6 76.2324 228.084C76.7324 227.568 77.3887 227.311 78.2012 227.311C78.7832 227.311 79.291 227.461 79.7246 227.762C80.1621 228.059 80.498 228.494 80.7324 229.068C80.9668 229.639 81.084 230.312 81.084 231.09ZM78.2012 228.143C77.6426 228.143 77.2109 228.322 76.9062 228.682C76.6016 229.041 76.4492 229.541 76.4492 230.182C76.4492 230.744 76.5898 231.188 76.8711 231.512C77.1523 231.832 77.5801 231.992 78.1543 231.992C78.5098 231.992 78.8359 231.92 79.1328 231.775C79.4336 231.631 79.6699 231.434 79.8418 231.184C80.0137 230.934 80.0996 230.672 80.0996 230.398C80.0996 229.988 80.0195 229.609 79.8594 229.262C79.6992 228.914 79.4746 228.641 79.1855 228.441C78.9004 228.242 78.5723 228.143 78.2012 228.143ZM87.9512 231.09C87.9512 234.441 86.6543 236.117 84.0605 236.117C83.6074 236.117 83.248 236.078 82.9824 236V235.162C83.2949 235.264 83.6504 235.314 84.0488 235.314C84.9863 235.314 85.6934 235.025 86.1699 234.447C86.6504 233.865 86.9121 232.975 86.9551 231.775H86.8848C86.6699 232.1 86.3848 232.348 86.0293 232.52C85.6738 232.688 85.2734 232.771 84.8281 232.771C84.0703 232.771 83.4688 232.545 83.0234 232.092C82.5781 231.639 82.3555 231.006 82.3555 230.193C82.3555 229.303 82.6035 228.6 83.0996 228.084C83.5996 227.568 84.2559 227.311 85.0684 227.311C85.6504 227.311 86.1582 227.461 86.5918 227.762C87.0293 228.059 87.3652 228.494 87.5996 229.068C87.834 229.639 87.9512 230.312 87.9512 231.09ZM85.0684 228.143C84.5098 228.143 84.0781 228.322 83.7734 228.682C83.4688 229.041 83.3164 229.541 83.3164 230.182C83.3164 230.744 83.457 231.188 83.7383 231.512C84.0195 231.832 84.4473 231.992 85.0215 231.992C85.377 231.992 85.7031 231.92 86 231.775C86.3008 231.631 86.5371 231.434 86.709 231.184C86.8809 230.934 86.9668 230.672 86.9668 230.398C86.9668 229.988 86.8867 229.609 86.7266 229.262C86.5664 228.914 86.3418 228.641 86.0527 228.441C85.7676 228.242 85.4395 228.143 85.0684 228.143ZM92.0234 227.311C92.8047 227.311 93.4238 227.492 93.8809 227.855C94.3379 228.219 94.5664 228.721 94.5664 229.361C94.5664 229.783 94.4355 230.168 94.1738 230.516C93.9121 230.863 93.4941 231.18 92.9199 231.465C93.6152 231.797 94.1094 232.146 94.4023 232.514C94.6953 232.877 94.8418 233.299 94.8418 233.779C94.8418 234.49 94.5938 235.059 94.0977 235.484C93.6016 235.906 92.9219 236.117 92.0586 236.117C91.1445 236.117 90.4414 235.918 89.9492 235.52C89.457 235.117 89.2109 234.549 89.2109 233.814C89.2109 232.834 89.8086 232.07 91.0039 231.523C90.4648 231.219 90.0781 230.891 89.8438 230.539C89.6094 230.184 89.4922 229.787 89.4922 229.35C89.4922 228.729 89.7207 228.234 90.1777 227.867C90.6387 227.496 91.2539 227.311 92.0234 227.311ZM90.1719 233.838C90.1719 234.307 90.334 234.672 90.6582 234.934C90.9863 235.195 91.4453 235.326 92.0352 235.326C92.6172 235.326 93.0703 235.189 93.3945 234.916C93.7188 234.643 93.8809 234.268 93.8809 233.791C93.8809 233.412 93.7285 233.076 93.4238 232.783C93.1191 232.486 92.5879 232.199 91.8301 231.922C91.248 232.172 90.8262 232.449 90.5645 232.754C90.3027 233.055 90.1719 233.416 90.1719 233.838ZM92.0117 228.102C91.5234 228.102 91.1406 228.219 90.8633 228.453C90.5859 228.688 90.4473 229 90.4473 229.391C90.4473 229.75 90.5625 230.059 90.793 230.316C91.0234 230.574 91.4492 230.832 92.0703 231.09C92.6289 230.855 93.0234 230.604 93.2539 230.334C93.4883 230.064 93.6055 229.75 93.6055 229.391C93.6055 228.996 93.4629 228.684 93.1777 228.453C92.8965 228.219 92.5078 228.102 92.0117 228.102Z" fill="#231F20"/>
<path d="M112.217 236H106.586V235.162L108.842 232.895C109.529 232.199 109.982 231.703 110.201 231.406C110.42 231.109 110.584 230.82 110.693 230.539C110.803 230.258 110.857 229.955 110.857 229.631C110.857 229.174 110.719 228.812 110.441 228.547C110.164 228.277 109.779 228.143 109.287 228.143C108.932 228.143 108.594 228.201 108.273 228.318C107.957 228.436 107.604 228.648 107.213 228.957L106.697 228.295C107.486 227.639 108.346 227.311 109.275 227.311C110.08 227.311 110.711 227.518 111.168 227.932C111.625 228.342 111.854 228.895 111.854 229.59C111.854 230.133 111.701 230.67 111.396 231.201C111.092 231.732 110.521 232.404 109.686 233.217L107.811 235.051V235.098H112.217V236ZM119.131 231.705C119.131 233.186 118.896 234.291 118.428 235.021C117.963 235.752 117.25 236.117 116.289 236.117C115.367 236.117 114.666 235.744 114.186 234.998C113.705 234.248 113.465 233.15 113.465 231.705C113.465 230.213 113.697 229.105 114.162 228.383C114.627 227.66 115.336 227.299 116.289 227.299C117.219 227.299 117.924 227.676 118.404 228.43C118.889 229.184 119.131 230.275 119.131 231.705ZM114.449 231.705C114.449 232.951 114.596 233.859 114.889 234.43C115.182 234.996 115.648 235.279 116.289 235.279C116.938 235.279 117.406 234.992 117.695 234.418C117.988 233.84 118.135 232.936 118.135 231.705C118.135 230.475 117.988 229.574 117.695 229.004C117.406 228.43 116.938 228.143 116.289 228.143C115.648 228.143 115.182 228.426 114.889 228.992C114.596 229.555 114.449 230.459 114.449 231.705ZM125.998 231.705C125.998 233.186 125.764 234.291 125.295 235.021C124.83 235.752 124.117 236.117 123.156 236.117C122.234 236.117 121.533 235.744 121.053 234.998C120.572 234.248 120.332 233.15 120.332 231.705C120.332 230.213 120.564 229.105 121.029 228.383C121.494 227.66 122.203 227.299 123.156 227.299C124.086 227.299 124.791 227.676 125.271 228.43C125.756 229.184 125.998 230.275 125.998 231.705ZM121.316 231.705C121.316 232.951 121.463 233.859 121.756 234.43C122.049 234.996 122.516 235.279 123.156 235.279C123.805 235.279 124.273 234.992 124.562 234.418C124.855 233.84 125.002 232.936 125.002 231.705C125.002 230.475 124.855 229.574 124.562 229.004C124.273 228.43 123.805 228.143 123.156 228.143C122.516 228.143 122.049 228.426 121.756 228.992C121.463 229.555 121.316 230.459 121.316 231.705ZM132.865 231.705C132.865 233.186 132.631 234.291 132.162 235.021C131.697 235.752 130.984 236.117 130.023 236.117C129.102 236.117 128.4 235.744 127.92 234.998C127.439 234.248 127.199 233.15 127.199 231.705C127.199 230.213 127.432 229.105 127.896 228.383C128.361 227.66 129.07 227.299 130.023 227.299C130.953 227.299 131.658 227.676 132.139 228.43C132.623 229.184 132.865 230.275 132.865 231.705ZM128.184 231.705C128.184 232.951 128.33 233.859 128.623 234.43C128.916 234.996 129.383 235.279 130.023 235.279C130.672 235.279 131.141 234.992 131.43 234.418C131.723 233.84 131.869 232.936 131.869 231.705C131.869 230.475 131.723 229.574 131.43 229.004C131.141 228.43 130.672 228.143 130.023 228.143C129.383 228.143 128.916 228.426 128.623 228.992C128.33 229.555 128.184 230.459 128.184 231.705Z" fill="#231F20"/>
<path d="M150.217 236H144.586V235.162L146.842 232.895C147.529 232.199 147.982 231.703 148.201 231.406C148.42 231.109 148.584 230.82 148.693 230.539C148.803 230.258 148.857 229.955 148.857 229.631C148.857 229.174 148.719 228.812 148.441 228.547C148.164 228.277 147.779 228.143 147.287 228.143C146.932 228.143 146.594 228.201 146.273 228.318C145.957 228.436 145.604 228.648 145.213 228.957L144.697 228.295C145.486 227.639 146.346 227.311 147.275 227.311C148.08 227.311 148.711 227.518 149.168 227.932C149.625 228.342 149.854 228.895 149.854 229.59C149.854 230.133 149.701 230.67 149.396 231.201C149.092 231.732 148.521 232.404 147.686 233.217L145.811 235.051V235.098H150.217V236ZM157.131 231.705C157.131 233.186 156.896 234.291 156.428 235.021C155.963 235.752 155.25 236.117 154.289 236.117C153.367 236.117 152.666 235.744 152.186 234.998C151.705 234.248 151.465 233.15 151.465 231.705C151.465 230.213 151.697 229.105 152.162 228.383C152.627 227.66 153.336 227.299 154.289 227.299C155.219 227.299 155.924 227.676 156.404 228.43C156.889 229.184 157.131 230.275 157.131 231.705ZM152.449 231.705C152.449 232.951 152.596 233.859 152.889 234.43C153.182 234.996 153.648 235.279 154.289 235.279C154.938 235.279 155.406 234.992 155.695 234.418C155.988 233.84 156.135 232.936 156.135 231.705C156.135 230.475 155.988 229.574 155.695 229.004C155.406 228.43 154.938 228.143 154.289 228.143C153.648 228.143 153.182 228.426 152.889 228.992C152.596 229.555 152.449 230.459 152.449 231.705ZM163.998 231.705C163.998 233.186 163.764 234.291 163.295 235.021C162.83 235.752 162.117 236.117 161.156 236.117C160.234 236.117 159.533 235.744 159.053 234.998C158.572 234.248 158.332 233.15 158.332 231.705C158.332 230.213 158.564 229.105 159.029 228.383C159.494 227.66 160.203 227.299 161.156 227.299C162.086 227.299 162.791 227.676 163.271 228.43C163.756 229.184 163.998 230.275 163.998 231.705ZM159.316 231.705C159.316 232.951 159.463 233.859 159.756 234.43C160.049 234.996 160.516 235.279 161.156 235.279C161.805 235.279 162.273 234.992 162.562 234.418C162.855 233.84 163.002 232.936 163.002 231.705C163.002 230.475 162.855 229.574 162.562 229.004C162.273 228.43 161.805 228.143 161.156 228.143C160.516 228.143 160.049 228.426 159.756 228.992C159.463 229.555 159.316 230.459 159.316 231.705ZM170.818 236H165.188V235.162L167.443 232.895C168.131 232.199 168.584 231.703 168.803 231.406C169.021 231.109 169.186 230.82 169.295 230.539C169.404 230.258 169.459 229.955 169.459 229.631C169.459 229.174 169.32 228.812 169.043 228.547C168.766 228.277 168.381 228.143 167.889 228.143C167.533 228.143 167.195 228.201 166.875 228.318C166.559 228.436 166.205 228.648 165.814 228.957L165.299 228.295C166.088 227.639 166.947 227.311 167.877 227.311C168.682 227.311 169.312 227.518 169.77 227.932C170.227 228.342 170.455 228.895 170.455 229.59C170.455 230.133 170.303 230.67 169.998 231.201C169.693 231.732 169.123 232.404 168.287 233.217L166.412 235.051V235.098H170.818V236Z" fill="#231F20"/>
<path d="M189.217 236H183.586V235.162L185.842 232.895C186.529 232.199 186.982 231.703 187.201 231.406C187.42 231.109 187.584 230.82 187.693 230.539C187.803 230.258 187.857 229.955 187.857 229.631C187.857 229.174 187.719 228.812 187.441 228.547C187.164 228.277 186.779 228.143 186.287 228.143C185.932 228.143 185.594 228.201 185.273 228.318C184.957 228.436 184.604 228.648 184.213 228.957L183.697 228.295C184.486 227.639 185.346 227.311 186.275 227.311C187.08 227.311 187.711 227.518 188.168 227.932C188.625 228.342 188.854 228.895 188.854 229.59C188.854 230.133 188.701 230.67 188.396 231.201C188.092 231.732 187.521 232.404 186.686 233.217L184.811 235.051V235.098H189.217V236ZM196.131 231.705C196.131 233.186 195.896 234.291 195.428 235.021C194.963 235.752 194.25 236.117 193.289 236.117C192.367 236.117 191.666 235.744 191.186 234.998C190.705 234.248 190.465 233.15 190.465 231.705C190.465 230.213 190.697 229.105 191.162 228.383C191.627 227.66 192.336 227.299 193.289 227.299C194.219 227.299 194.924 227.676 195.404 228.43C195.889 229.184 196.131 230.275 196.131 231.705ZM191.449 231.705C191.449 232.951 191.596 233.859 191.889 234.43C192.182 234.996 192.648 235.279 193.289 235.279C193.938 235.279 194.406 234.992 194.695 234.418C194.988 233.84 195.135 232.936 195.135 231.705C195.135 230.475 194.988 229.574 194.695 229.004C194.406 228.43 193.938 228.143 193.289 228.143C192.648 228.143 192.182 228.426 191.889 228.992C191.596 229.555 191.449 230.459 191.449 231.705ZM202.998 231.705C202.998 233.186 202.764 234.291 202.295 235.021C201.83 235.752 201.117 236.117 200.156 236.117C199.234 236.117 198.533 235.744 198.053 234.998C197.572 234.248 197.332 233.15 197.332 231.705C197.332 230.213 197.564 229.105 198.029 228.383C198.494 227.66 199.203 227.299 200.156 227.299C201.086 227.299 201.791 227.676 202.271 228.43C202.756 229.184 202.998 230.275 202.998 231.705ZM198.316 231.705C198.316 232.951 198.463 233.859 198.756 234.43C199.049 234.996 199.516 235.279 200.156 235.279C200.805 235.279 201.273 234.992 201.562 234.418C201.855 233.84 202.002 232.936 202.002 231.705C202.002 230.475 201.855 229.574 201.562 229.004C201.273 228.43 200.805 228.143 200.156 228.143C199.516 228.143 199.049 228.426 198.756 228.992C198.463 229.555 198.316 230.459 198.316 231.705ZM210.223 234.031H208.951V236H208.02V234.031H203.854V233.182L207.92 227.387H208.951V233.146H210.223V234.031ZM208.02 233.146V230.299C208.02 229.74 208.039 229.109 208.078 228.406H208.031C207.844 228.781 207.668 229.092 207.504 229.338L204.826 233.146H208.02Z" fill="#231F20"/>
<path d="M226.217 236H220.586V235.162L222.842 232.895C223.529 232.199 223.982 231.703 224.201 231.406C224.42 231.109 224.584 230.82 224.693 230.539C224.803 230.258 224.857 229.955 224.857 229.631C224.857 229.174 224.719 228.812 224.441 228.547C224.164 228.277 223.779 228.143 223.287 228.143C222.932 228.143 222.594 228.201 222.273 228.318C221.957 228.436 221.604 228.648 221.213 228.957L220.697 228.295C221.486 227.639 222.346 227.311 223.275 227.311C224.08 227.311 224.711 227.518 225.168 227.932C225.625 228.342 225.854 228.895 225.854 229.59C225.854 230.133 225.701 230.67 225.396 231.201C225.092 231.732 224.521 232.404 223.686 233.217L221.811 235.051V235.098H226.217V236ZM233.131 231.705C233.131 233.186 232.896 234.291 232.428 235.021C231.963 235.752 231.25 236.117 230.289 236.117C229.367 236.117 228.666 235.744 228.186 234.998C227.705 234.248 227.465 233.15 227.465 231.705C227.465 230.213 227.697 229.105 228.162 228.383C228.627 227.66 229.336 227.299 230.289 227.299C231.219 227.299 231.924 227.676 232.404 228.43C232.889 229.184 233.131 230.275 233.131 231.705ZM228.449 231.705C228.449 232.951 228.596 233.859 228.889 234.43C229.182 234.996 229.648 235.279 230.289 235.279C230.938 235.279 231.406 234.992 231.695 234.418C231.988 233.84 232.135 232.936 232.135 231.705C232.135 230.475 231.988 229.574 231.695 229.004C231.406 228.43 230.938 228.143 230.289 228.143C229.648 228.143 229.182 228.426 228.889 228.992C228.596 229.555 228.449 230.459 228.449 231.705ZM239.998 231.705C239.998 233.186 239.764 234.291 239.295 235.021C238.83 235.752 238.117 236.117 237.156 236.117C236.234 236.117 235.533 235.744 235.053 234.998C234.572 234.248 234.332 233.15 234.332 231.705C234.332 230.213 234.564 229.105 235.029 228.383C235.494 227.66 236.203 227.299 237.156 227.299C238.086 227.299 238.791 227.676 239.271 228.43C239.756 229.184 239.998 230.275 239.998 231.705ZM235.316 231.705C235.316 232.951 235.463 233.859 235.756 234.43C236.049 234.996 236.516 235.279 237.156 235.279C237.805 235.279 238.273 234.992 238.562 234.418C238.855 233.84 239.002 232.936 239.002 231.705C239.002 230.475 238.855 229.574 238.562 229.004C238.273 228.43 237.805 228.143 237.156 228.143C236.516 228.143 236.049 228.426 235.756 228.992C235.463 229.555 235.316 230.459 235.316 231.705ZM241.287 232.338C241.287 230.654 241.613 229.396 242.266 228.564C242.922 227.729 243.891 227.311 245.172 227.311C245.613 227.311 245.961 227.348 246.215 227.422V228.26C245.914 228.162 245.57 228.113 245.184 228.113C244.266 228.113 243.564 228.4 243.08 228.975C242.596 229.545 242.33 230.443 242.283 231.67H242.354C242.783 230.998 243.463 230.662 244.393 230.662C245.162 230.662 245.768 230.895 246.209 231.359C246.654 231.824 246.877 232.455 246.877 233.252C246.877 234.143 246.633 234.844 246.145 235.355C245.66 235.863 245.004 236.117 244.176 236.117C243.289 236.117 242.586 235.785 242.066 235.121C241.547 234.453 241.287 233.525 241.287 232.338ZM244.164 235.291C244.719 235.291 245.148 235.117 245.453 234.77C245.762 234.418 245.916 233.912 245.916 233.252C245.916 232.686 245.773 232.24 245.488 231.916C245.203 231.592 244.777 231.43 244.211 231.43C243.859 231.43 243.537 231.502 243.244 231.646C242.951 231.791 242.717 231.99 242.541 232.244C242.369 232.498 242.283 232.762 242.283 233.035C242.283 233.438 242.361 233.812 242.518 234.16C242.674 234.508 242.895 234.783 243.18 234.986C243.469 235.189 243.797 235.291 244.164 235.291Z" fill="#231F20"/>
<path d="M266.217 236H260.586V235.162L262.842 232.895C263.529 232.199 263.982 231.703 264.201 231.406C264.42 231.109 264.584 230.82 264.693 230.539C264.803 230.258 264.857 229.955 264.857 229.631C264.857 229.174 264.719 228.812 264.441 228.547C264.164 228.277 263.779 228.143 263.287 228.143C262.932 228.143 262.594 228.201 262.273 228.318C261.957 228.436 261.604 228.648 261.213 228.957L260.697 228.295C261.486 227.639 262.346 227.311 263.275 227.311C264.08 227.311 264.711 227.518 265.168 227.932C265.625 228.342 265.854 228.895 265.854 229.59C265.854 230.133 265.701 230.67 265.396 231.201C265.092 231.732 264.521 232.404 263.686 233.217L261.811 235.051V235.098H266.217V236ZM273.131 231.705C273.131 233.186 272.896 234.291 272.428 235.021C271.963 235.752 271.25 236.117 270.289 236.117C269.367 236.117 268.666 235.744 268.186 234.998C267.705 234.248 267.465 233.15 267.465 231.705C267.465 230.213 267.697 229.105 268.162 228.383C268.627 227.66 269.336 227.299 270.289 227.299C271.219 227.299 271.924 227.676 272.404 228.43C272.889 229.184 273.131 230.275 273.131 231.705ZM268.449 231.705C268.449 232.951 268.596 233.859 268.889 234.43C269.182 234.996 269.648 235.279 270.289 235.279C270.938 235.279 271.406 234.992 271.695 234.418C271.988 233.84 272.135 232.936 272.135 231.705C272.135 230.475 271.988 229.574 271.695 229.004C271.406 228.43 270.938 228.143 270.289 228.143C269.648 228.143 269.182 228.426 268.889 228.992C268.596 229.555 268.449 230.459 268.449 231.705ZM279.998 231.705C279.998 233.186 279.764 234.291 279.295 235.021C278.83 235.752 278.117 236.117 277.156 236.117C276.234 236.117 275.533 235.744 275.053 234.998C274.572 234.248 274.332 233.15 274.332 231.705C274.332 230.213 274.564 229.105 275.029 228.383C275.494 227.66 276.203 227.299 277.156 227.299C278.086 227.299 278.791 227.676 279.271 228.43C279.756 229.184 279.998 230.275 279.998 231.705ZM275.316 231.705C275.316 232.951 275.463 233.859 275.756 234.43C276.049 234.996 276.516 235.279 277.156 235.279C277.805 235.279 278.273 234.992 278.562 234.418C278.855 233.84 279.002 232.936 279.002 231.705C279.002 230.475 278.855 229.574 278.562 229.004C278.273 228.43 277.805 228.143 277.156 228.143C276.516 228.143 276.049 228.426 275.756 228.992C275.463 229.555 275.316 230.459 275.316 231.705ZM284.023 227.311C284.805 227.311 285.424 227.492 285.881 227.855C286.338 228.219 286.566 228.721 286.566 229.361C286.566 229.783 286.436 230.168 286.174 230.516C285.912 230.863 285.494 231.18 284.92 231.465C285.615 231.797 286.109 232.146 286.402 232.514C286.695 232.877 286.842 233.299 286.842 233.779C286.842 234.49 286.594 235.059 286.098 235.484C285.602 235.906 284.922 236.117 284.059 236.117C283.145 236.117 282.441 235.918 281.949 235.52C281.457 235.117 281.211 234.549 281.211 233.814C281.211 232.834 281.809 232.07 283.004 231.523C282.465 231.219 282.078 230.891 281.844 230.539C281.609 230.184 281.492 229.787 281.492 229.35C281.492 228.729 281.721 228.234 282.178 227.867C282.639 227.496 283.254 227.311 284.023 227.311ZM282.172 233.838C282.172 234.307 282.334 234.672 282.658 234.934C282.986 235.195 283.445 235.326 284.035 235.326C284.617 235.326 285.07 235.189 285.395 234.916C285.719 234.643 285.881 234.268 285.881 233.791C285.881 233.412 285.729 233.076 285.424 232.783C285.119 232.486 284.588 232.199 283.83 231.922C283.248 232.172 282.826 232.449 282.564 232.754C282.303 233.055 282.172 233.416 282.172 233.838ZM284.012 228.102C283.523 228.102 283.141 228.219 282.863 228.453C282.586 228.688 282.447 229 282.447 229.391C282.447 229.75 282.562 230.059 282.793 230.316C283.023 230.574 283.449 230.832 284.07 231.09C284.629 230.855 285.023 230.604 285.254 230.334C285.488 230.064 285.605 229.75 285.605 229.391C285.605 228.996 285.463 228.684 285.178 228.453C284.896 228.219 284.508 228.102 284.012 228.102Z" fill="#231F20"/>
<path d="M303.217 236H297.586V235.162L299.842 232.895C300.529 232.199 300.982 231.703 301.201 231.406C301.42 231.109 301.584 230.82 301.693 230.539C301.803 230.258 301.857 229.955 301.857 229.631C301.857 229.174 301.719 228.812 301.441 228.547C301.164 228.277 300.779 228.143 300.287 228.143C299.932 228.143 299.594 228.201 299.273 228.318C298.957 228.436 298.604 228.648 298.213 228.957L297.697 228.295C298.486 227.639 299.346 227.311 300.275 227.311C301.08 227.311 301.711 227.518 302.168 227.932C302.625 228.342 302.854 228.895 302.854 229.59C302.854 230.133 302.701 230.67 302.396 231.201C302.092 231.732 301.521 232.404 300.686 233.217L298.811 235.051V235.098H303.217V236ZM310.131 231.705C310.131 233.186 309.896 234.291 309.428 235.021C308.963 235.752 308.25 236.117 307.289 236.117C306.367 236.117 305.666 235.744 305.186 234.998C304.705 234.248 304.465 233.15 304.465 231.705C304.465 230.213 304.697 229.105 305.162 228.383C305.627 227.66 306.336 227.299 307.289 227.299C308.219 227.299 308.924 227.676 309.404 228.43C309.889 229.184 310.131 230.275 310.131 231.705ZM305.449 231.705C305.449 232.951 305.596 233.859 305.889 234.43C306.182 234.996 306.648 235.279 307.289 235.279C307.938 235.279 308.406 234.992 308.695 234.418C308.988 233.84 309.135 232.936 309.135 231.705C309.135 230.475 308.988 229.574 308.695 229.004C308.406 228.43 307.938 228.143 307.289 228.143C306.648 228.143 306.182 228.426 305.889 228.992C305.596 229.555 305.449 230.459 305.449 231.705ZM314.924 236H313.975V229.895C313.975 229.387 313.99 228.906 314.021 228.453C313.939 228.535 313.848 228.621 313.746 228.711C313.645 228.801 313.18 229.182 312.352 229.854L311.836 229.186L314.104 227.434H314.924V236ZM323.865 231.705C323.865 233.186 323.631 234.291 323.162 235.021C322.697 235.752 321.984 236.117 321.023 236.117C320.102 236.117 319.4 235.744 318.92 234.998C318.439 234.248 318.199 233.15 318.199 231.705C318.199 230.213 318.432 229.105 318.896 228.383C319.361 227.66 320.07 227.299 321.023 227.299C321.953 227.299 322.658 227.676 323.139 228.43C323.623 229.184 323.865 230.275 323.865 231.705ZM319.184 231.705C319.184 232.951 319.33 233.859 319.623 234.43C319.916 234.996 320.383 235.279 321.023 235.279C321.672 235.279 322.141 234.992 322.43 234.418C322.723 233.84 322.869 232.936 322.869 231.705C322.869 230.475 322.723 229.574 322.43 229.004C322.141 228.43 321.672 228.143 321.023 228.143C320.383 228.143 319.916 228.426 319.623 228.992C319.33 229.555 319.184 230.459 319.184 231.705Z" fill="#231F20"/>
<path d="M341.217 236H335.586V235.162L337.842 232.895C338.529 232.199 338.982 231.703 339.201 231.406C339.42 231.109 339.584 230.82 339.693 230.539C339.803 230.258 339.857 229.955 339.857 229.631C339.857 229.174 339.719 228.812 339.441 228.547C339.164 228.277 338.779 228.143 338.287 228.143C337.932 228.143 337.594 228.201 337.273 228.318C336.957 228.436 336.604 228.648 336.213 228.957L335.697 228.295C336.486 227.639 337.346 227.311 338.275 227.311C339.08 227.311 339.711 227.518 340.168 227.932C340.625 228.342 340.854 228.895 340.854 229.59C340.854 230.133 340.701 230.67 340.396 231.201C340.092 231.732 339.521 232.404 338.686 233.217L336.811 235.051V235.098H341.217V236ZM348.131 231.705C348.131 233.186 347.896 234.291 347.428 235.021C346.963 235.752 346.25 236.117 345.289 236.117C344.367 236.117 343.666 235.744 343.186 234.998C342.705 234.248 342.465 233.15 342.465 231.705C342.465 230.213 342.697 229.105 343.162 228.383C343.627 227.66 344.336 227.299 345.289 227.299C346.219 227.299 346.924 227.676 347.404 228.43C347.889 229.184 348.131 230.275 348.131 231.705ZM343.449 231.705C343.449 232.951 343.596 233.859 343.889 234.43C344.182 234.996 344.648 235.279 345.289 235.279C345.938 235.279 346.406 234.992 346.695 234.418C346.988 233.84 347.135 232.936 347.135 231.705C347.135 230.475 346.988 229.574 346.695 229.004C346.406 228.43 345.938 228.143 345.289 228.143C344.648 228.143 344.182 228.426 343.889 228.992C343.596 229.555 343.449 230.459 343.449 231.705ZM352.924 236H351.975V229.895C351.975 229.387 351.99 228.906 352.021 228.453C351.939 228.535 351.848 228.621 351.746 228.711C351.645 228.801 351.18 229.182 350.352 229.854L349.836 229.186L352.104 227.434H352.924V236ZM361.818 236H356.188V235.162L358.443 232.895C359.131 232.199 359.584 231.703 359.803 231.406C360.021 231.109 360.186 230.82 360.295 230.539C360.404 230.258 360.459 229.955 360.459 229.631C360.459 229.174 360.32 228.812 360.043 228.547C359.766 228.277 359.381 228.143 358.889 228.143C358.533 228.143 358.195 228.201 357.875 228.318C357.559 228.436 357.205 228.648 356.814 228.957L356.299 228.295C357.088 227.639 357.947 227.311 358.877 227.311C359.682 227.311 360.312 227.518 360.77 227.932C361.227 228.342 361.455 228.895 361.455 229.59C361.455 230.133 361.303 230.67 360.998 231.201C360.693 231.732 360.123 232.404 359.287 233.217L357.412 235.051V235.098H361.818V236Z" fill="#231F20"/>
<path d="M380.217 236H374.586V235.162L376.842 232.895C377.529 232.199 377.982 231.703 378.201 231.406C378.42 231.109 378.584 230.82 378.693 230.539C378.803 230.258 378.857 229.955 378.857 229.631C378.857 229.174 378.719 228.812 378.441 228.547C378.164 228.277 377.779 228.143 377.287 228.143C376.932 228.143 376.594 228.201 376.273 228.318C375.957 228.436 375.604 228.648 375.213 228.957L374.697 228.295C375.486 227.639 376.346 227.311 377.275 227.311C378.08 227.311 378.711 227.518 379.168 227.932C379.625 228.342 379.854 228.895 379.854 229.59C379.854 230.133 379.701 230.67 379.396 231.201C379.092 231.732 378.521 232.404 377.686 233.217L375.811 235.051V235.098H380.217V236ZM387.131 231.705C387.131 233.186 386.896 234.291 386.428 235.021C385.963 235.752 385.25 236.117 384.289 236.117C383.367 236.117 382.666 235.744 382.186 234.998C381.705 234.248 381.465 233.15 381.465 231.705C381.465 230.213 381.697 229.105 382.162 228.383C382.627 227.66 383.336 227.299 384.289 227.299C385.219 227.299 385.924 227.676 386.404 228.43C386.889 229.184 387.131 230.275 387.131 231.705ZM382.449 231.705C382.449 232.951 382.596 233.859 382.889 234.43C383.182 234.996 383.648 235.279 384.289 235.279C384.938 235.279 385.406 234.992 385.695 234.418C385.988 233.84 386.135 232.936 386.135 231.705C386.135 230.475 385.988 229.574 385.695 229.004C385.406 228.43 384.938 228.143 384.289 228.143C383.648 228.143 383.182 228.426 382.889 228.992C382.596 229.555 382.449 230.459 382.449 231.705ZM391.924 236H390.975V229.895C390.975 229.387 390.99 228.906 391.021 228.453C390.939 228.535 390.848 228.621 390.746 228.711C390.645 228.801 390.18 229.182 389.352 229.854L388.836 229.186L391.104 227.434H391.924V236ZM401.223 234.031H399.951V236H399.02V234.031H394.854V233.182L398.92 227.387H399.951V233.146H401.223V234.031ZM399.02 233.146V230.299C399.02 229.74 399.039 229.109 399.078 228.406H399.031C398.844 228.781 398.668 229.092 398.504 229.338L395.826 233.146H399.02Z" fill="#231F20"/>
<path d="M418.217 236H412.586V235.162L414.842 232.895C415.529 232.199 415.982 231.703 416.201 231.406C416.42 231.109 416.584 230.82 416.693 230.539C416.803 230.258 416.857 229.955 416.857 229.631C416.857 229.174 416.719 228.812 416.441 228.547C416.164 228.277 415.779 228.143 415.287 228.143C414.932 228.143 414.594 228.201 414.273 228.318C413.957 228.436 413.604 228.648 413.213 228.957L412.697 228.295C413.486 227.639 414.346 227.311 415.275 227.311C416.08 227.311 416.711 227.518 417.168 227.932C417.625 228.342 417.854 228.895 417.854 229.59C417.854 230.133 417.701 230.67 417.396 231.201C417.092 231.732 416.521 232.404 415.686 233.217L413.811 235.051V235.098H418.217V236ZM425.131 231.705C425.131 233.186 424.896 234.291 424.428 235.021C423.963 235.752 423.25 236.117 422.289 236.117C421.367 236.117 420.666 235.744 420.186 234.998C419.705 234.248 419.465 233.15 419.465 231.705C419.465 230.213 419.697 229.105 420.162 228.383C420.627 227.66 421.336 227.299 422.289 227.299C423.219 227.299 423.924 227.676 424.404 228.43C424.889 229.184 425.131 230.275 425.131 231.705ZM420.449 231.705C420.449 232.951 420.596 233.859 420.889 234.43C421.182 234.996 421.648 235.279 422.289 235.279C422.938 235.279 423.406 234.992 423.695 234.418C423.988 233.84 424.135 232.936 424.135 231.705C424.135 230.475 423.988 229.574 423.695 229.004C423.406 228.43 422.938 228.143 422.289 228.143C421.648 228.143 421.182 228.426 420.889 228.992C420.596 229.555 420.449 230.459 420.449 231.705ZM429.924 236H428.975V229.895C428.975 229.387 428.99 228.906 429.021 228.453C428.939 228.535 428.848 228.621 428.746 228.711C428.645 228.801 428.18 229.182 427.352 229.854L426.836 229.186L429.104 227.434H429.924V236ZM433.287 232.338C433.287 230.654 433.613 229.396 434.266 228.564C434.922 227.729 435.891 227.311 437.172 227.311C437.613 227.311 437.961 227.348 438.215 227.422V228.26C437.914 228.162 437.57 228.113 437.184 228.113C436.266 228.113 435.564 228.4 435.08 228.975C434.596 229.545 434.33 230.443 434.283 231.67H434.354C434.783 230.998 435.463 230.662 436.393 230.662C437.162 230.662 437.768 230.895 438.209 231.359C438.654 231.824 438.877 232.455 438.877 233.252C438.877 234.143 438.633 234.844 438.145 235.355C437.66 235.863 437.004 236.117 436.176 236.117C435.289 236.117 434.586 235.785 434.066 235.121C433.547 234.453 433.287 233.525 433.287 232.338ZM436.164 235.291C436.719 235.291 437.148 235.117 437.453 234.77C437.762 234.418 437.916 233.912 437.916 233.252C437.916 232.686 437.773 232.24 437.488 231.916C437.203 231.592 436.777 231.43 436.211 231.43C435.859 231.43 435.537 231.502 435.244 231.646C434.951 231.791 434.717 231.99 434.541 232.244C434.369 232.498 434.283 232.762 434.283 233.035C434.283 233.438 434.361 233.812 434.518 234.16C434.674 234.508 434.895 234.783 435.18 234.986C435.469 235.189 435.797 235.291 436.164 235.291Z" fill="#231F20"/>
<path d="M456.217 236H450.586V235.162L452.842 232.895C453.529 232.199 453.982 231.703 454.201 231.406C454.42 231.109 454.584 230.82 454.693 230.539C454.803 230.258 454.857 229.955 454.857 229.631C454.857 229.174 454.719 228.812 454.441 228.547C454.164 228.277 453.779 228.143 453.287 228.143C452.932 228.143 452.594 228.201 452.273 228.318C451.957 228.436 451.604 228.648 451.213 228.957L450.697 228.295C451.486 227.639 452.346 227.311 453.275 227.311C454.08 227.311 454.711 227.518 455.168 227.932C455.625 228.342 455.854 228.895 455.854 229.59C455.854 230.133 455.701 230.67 455.396 231.201C455.092 231.732 454.521 232.404 453.686 233.217L451.811 235.051V235.098H456.217V236ZM463.131 231.705C463.131 233.186 462.896 234.291 462.428 235.021C461.963 235.752 461.25 236.117 460.289 236.117C459.367 236.117 458.666 235.744 458.186 234.998C457.705 234.248 457.465 233.15 457.465 231.705C457.465 230.213 457.697 229.105 458.162 228.383C458.627 227.66 459.336 227.299 460.289 227.299C461.219 227.299 461.924 227.676 462.404 228.43C462.889 229.184 463.131 230.275 463.131 231.705ZM458.449 231.705C458.449 232.951 458.596 233.859 458.889 234.43C459.182 234.996 459.648 235.279 460.289 235.279C460.938 235.279 461.406 234.992 461.695 234.418C461.988 233.84 462.135 232.936 462.135 231.705C462.135 230.475 461.988 229.574 461.695 229.004C461.406 228.43 460.938 228.143 460.289 228.143C459.648 228.143 459.182 228.426 458.889 228.992C458.596 229.555 458.449 230.459 458.449 231.705ZM467.924 236H466.975V229.895C466.975 229.387 466.99 228.906 467.021 228.453C466.939 228.535 466.848 228.621 466.746 228.711C466.645 228.801 466.18 229.182 465.352 229.854L464.836 229.186L467.104 227.434H467.924V236ZM474.023 227.311C474.805 227.311 475.424 227.492 475.881 227.855C476.338 228.219 476.566 228.721 476.566 229.361C476.566 229.783 476.436 230.168 476.174 230.516C475.912 230.863 475.494 231.18 474.92 231.465C475.615 231.797 476.109 232.146 476.402 232.514C476.695 232.877 476.842 233.299 476.842 233.779C476.842 234.49 476.594 235.059 476.098 235.484C475.602 235.906 474.922 236.117 474.059 236.117C473.145 236.117 472.441 235.918 471.949 235.52C471.457 235.117 471.211 234.549 471.211 233.814C471.211 232.834 471.809 232.07 473.004 231.523C472.465 231.219 472.078 230.891 471.844 230.539C471.609 230.184 471.492 229.787 471.492 229.35C471.492 228.729 471.721 228.234 472.178 227.867C472.639 227.496 473.254 227.311 474.023 227.311ZM472.172 233.838C472.172 234.307 472.334 234.672 472.658 234.934C472.986 235.195 473.445 235.326 474.035 235.326C474.617 235.326 475.07 235.189 475.395 234.916C475.719 234.643 475.881 234.268 475.881 233.791C475.881 233.412 475.729 233.076 475.424 232.783C475.119 232.486 474.588 232.199 473.83 231.922C473.248 232.172 472.826 232.449 472.564 232.754C472.303 233.055 472.172 233.416 472.172 233.838ZM474.012 228.102C473.523 228.102 473.141 228.219 472.863 228.453C472.586 228.688 472.447 229 472.447 229.391C472.447 229.75 472.562 230.059 472.793 230.316C473.023 230.574 473.449 230.832 474.07 231.09C474.629 230.855 475.023 230.604 475.254 230.334C475.488 230.064 475.605 229.75 475.605 229.391C475.605 228.996 475.463 228.684 475.178 228.453C474.896 228.219 474.508 228.102 474.012 228.102Z" fill="#231F20"/>
</g>
<path d="M5.20117 112.879C5.20117 113.82 5.51562 114.564 6.14453 115.111C6.76953 115.654 7.62695 115.926 8.7168 115.926C9.83789 115.926 10.7051 115.664 11.3184 115.141C11.9277 114.613 12.2324 113.863 12.2324 112.891C12.2324 112.293 12.125 111.611 11.9102 110.846L12.7832 110.846C13.0059 111.439 13.1172 112.172 13.1172 113.043C13.1172 114.305 12.7344 115.279 11.9687 115.967C11.2031 116.65 10.1152 116.992 8.70508 116.992C7.82226 116.992 7.04883 116.828 6.38476 116.5C5.7207 116.168 5.20898 115.691 4.84961 115.07C4.49023 114.445 4.31055 113.711 4.31055 112.867C4.31055 111.969 4.47461 111.184 4.80273 110.512L5.6582 110.934C5.35351 111.582 5.20117 112.23 5.20117 112.879ZM13 105.174L12.0859 105.367L12.0859 105.414C12.4883 105.734 12.7617 106.055 12.9062 106.375C13.0469 106.691 13.1172 107.088 13.1172 107.564C13.1172 108.201 12.9531 108.701 12.625 109.064C12.2969 109.424 11.8301 109.604 11.2246 109.604C9.92773 109.604 9.24804 108.566 9.18554 106.492L9.15039 105.402L8.75195 105.402C8.24804 105.402 7.87695 105.512 7.63867 105.73C7.39648 105.945 7.27539 106.291 7.27539 106.768C7.27539 107.303 7.43945 107.908 7.76758 108.584L7.02344 108.883C6.85156 108.566 6.71679 108.221 6.61914 107.846C6.52148 107.467 6.47265 107.088 6.47265 106.709C6.47265 105.943 6.64258 105.377 6.98242 105.01C7.32226 104.639 7.86719 104.453 8.61719 104.453L13 104.453L13 105.174ZM12.3145 107.371C12.3145 106.766 12.1484 106.291 11.8164 105.947C11.4844 105.6 11.0195 105.426 10.4219 105.426L9.84179 105.426L9.88281 106.398C9.91015 107.172 10.0312 107.73 10.2461 108.074C10.457 108.414 10.7871 108.584 11.2363 108.584C11.5879 108.584 11.8555 108.479 12.0391 108.268C12.2227 108.053 12.3145 107.754 12.3145 107.371ZM11.248 98.3008C11.8457 98.3008 12.3066 98.5234 12.6309 98.9687C12.9551 99.4141 13.1172 100.039 13.1172 100.844C13.1172 101.695 12.9824 102.359 12.7129 102.836L11.8105 102.836C11.9668 102.527 12.0898 102.197 12.1797 101.846C12.2695 101.49 12.3145 101.148 12.3145 100.82C12.3145 100.312 12.2344 99.9219 12.0742 99.6484C11.9102 99.375 11.6621 99.2383 11.3301 99.2383C11.0801 99.2383 10.8672 99.3477 10.6914 99.5664C10.5117 99.7812 10.3008 100.203 10.0586 100.832C9.83594 101.43 9.64258 101.855 9.47851 102.109C9.31054 102.359 9.12109 102.547 8.91015 102.672C8.69922 102.793 8.44726 102.854 8.15429 102.854C7.63086 102.854 7.21875 102.641 6.91797 102.215C6.61328 101.789 6.46094 101.205 6.46094 100.463C6.46094 99.7715 6.60156 99.0957 6.88281 98.4355L7.67383 98.7812C7.4082 99.4258 7.27539 100.01 7.27539 100.533C7.27539 100.994 7.34765 101.342 7.49219 101.576C7.63672 101.811 7.83594 101.928 8.08984 101.928C8.26172 101.928 8.4082 101.885 8.52929 101.799C8.65039 101.709 8.76562 101.566 8.875 101.371C8.98437 101.176 9.14258 100.801 9.34961 100.246C9.62695 99.4844 9.90625 98.9707 10.1875 98.7051C10.4687 98.4355 10.8223 98.3008 11.248 98.3008ZM13.1172 94C13.1172 94.9492 12.8281 95.6992 12.25 96.25C11.6719 96.7969 10.8691 97.0703 9.84179 97.0703C8.80664 97.0703 7.98437 96.8164 7.375 96.3086C6.76562 95.7969 6.46093 95.1113 6.46093 94.252C6.46093 93.4473 6.72656 92.8105 7.25781 92.3418C7.78515 91.873 8.48242 91.6387 9.34961 91.6387L9.96484 91.6387L9.96484 96.0625C10.7187 96.043 11.291 95.8535 11.6816 95.4941C12.0723 95.1309 12.2676 94.6211 12.2676 93.9648C12.2676 93.2734 12.123 92.5898 11.834 91.9141L12.7012 91.9141C12.8496 92.2578 12.9551 92.584 13.0176 92.8926C13.084 93.1973 13.1172 93.5664 13.1172 94ZM7.27539 94.2637C7.27539 94.7793 7.44336 95.1914 7.77929 95.5C8.11523 95.8047 8.58008 95.9844 9.17383 96.0391L9.17383 92.6816C8.56054 92.6816 8.09179 92.8184 7.76758 93.0918C7.43945 93.3652 7.27539 93.7559 7.27539 94.2637ZM11.248 85.832C11.8457 85.832 12.3066 86.0547 12.6309 86.5C12.9551 86.9453 13.1172 87.5703 13.1172 88.375C13.1172 89.2266 12.9824 89.8906 12.7129 90.3672L11.8105 90.3672C11.9668 90.0586 12.0898 89.7285 12.1797 89.377C12.2695 89.0215 12.3145 88.6797 12.3145 88.3516C12.3145 87.8437 12.2344 87.4531 12.0742 87.1797C11.9102 86.9062 11.6621 86.7695 11.3301 86.7695C11.0801 86.7695 10.8672 86.8789 10.6914 87.0977C10.5117 87.3125 10.3008 87.7344 10.0586 88.3633C9.83593 88.9609 9.64258 89.3867 9.47851 89.6406C9.31054 89.8906 9.12109 90.0781 8.91015 90.2031C8.69922 90.3242 8.44726 90.3848 8.15429 90.3848C7.63086 90.3848 7.21875 90.1719 6.91797 89.7461C6.61328 89.3203 6.46093 88.7363 6.46093 87.9941C6.46093 87.3027 6.60156 86.627 6.88281 85.9668L7.67383 86.3125C7.4082 86.957 7.27539 87.541 7.27539 88.0645C7.27539 88.5254 7.34765 88.873 7.49218 89.1074C7.63672 89.3418 7.83593 89.459 8.08984 89.459C8.26172 89.459 8.4082 89.416 8.52929 89.3301C8.65039 89.2402 8.76562 89.0977 8.875 88.9023C8.98437 88.707 9.14258 88.332 9.34961 87.7773C9.62695 87.0156 9.90625 86.502 10.1875 86.2363C10.4687 85.9668 10.8223 85.832 11.248 85.832Z" fill="black"/>
<path d="M254.842 260.729L257.121 256.434H258.193L255.34 261.678V265H254.344V261.725L251.484 256.434H252.574L254.842 260.729ZM261.697 258.461C262.244 258.461 262.713 258.582 263.104 258.824C263.494 259.066 263.793 259.406 264 259.844C264.207 260.277 264.311 260.785 264.311 261.367V261.971H259.875C259.887 262.725 260.074 263.299 260.438 263.693C260.801 264.088 261.312 264.285 261.973 264.285C262.379 264.285 262.738 264.248 263.051 264.174C263.363 264.1 263.688 263.99 264.023 263.846V264.701C263.699 264.846 263.377 264.951 263.057 265.018C262.74 265.084 262.365 265.117 261.932 265.117C261.314 265.117 260.775 264.992 260.314 264.742C259.857 264.488 259.502 264.117 259.248 263.629C258.994 263.141 258.867 262.543 258.867 261.836C258.867 261.145 258.982 260.547 259.213 260.043C259.447 259.535 259.775 259.145 260.197 258.871C260.623 258.598 261.123 258.461 261.697 258.461ZM261.686 259.258C261.166 259.258 260.752 259.428 260.443 259.768C260.135 260.107 259.951 260.582 259.893 261.191H263.291C263.287 260.809 263.227 260.473 263.109 260.184C262.996 259.891 262.822 259.664 262.588 259.504C262.354 259.34 262.053 259.258 261.686 259.258ZM268.365 258.473C269.131 258.473 269.699 258.645 270.07 258.988C270.441 259.332 270.627 259.881 270.627 260.635V265H269.918L269.73 264.051H269.684C269.504 264.285 269.316 264.482 269.121 264.643C268.926 264.799 268.699 264.918 268.441 265C268.188 265.078 267.875 265.117 267.504 265.117C267.113 265.117 266.766 265.049 266.461 264.912C266.16 264.775 265.922 264.568 265.746 264.291C265.574 264.014 265.488 263.662 265.488 263.236C265.488 262.596 265.742 262.104 266.25 261.76C266.758 261.416 267.531 261.229 268.57 261.197L269.678 261.15V260.758C269.678 260.203 269.559 259.814 269.32 259.592C269.082 259.369 268.746 259.258 268.312 259.258C267.977 259.258 267.656 259.307 267.352 259.404C267.047 259.502 266.758 259.617 266.484 259.75L266.186 259.012C266.475 258.863 266.807 258.736 267.182 258.631C267.557 258.525 267.951 258.473 268.365 258.473ZM269.666 261.836L268.688 261.877C267.887 261.908 267.322 262.039 266.994 262.27C266.666 262.5 266.502 262.826 266.502 263.248C266.502 263.615 266.613 263.887 266.836 264.062C267.059 264.238 267.354 264.326 267.721 264.326C268.291 264.326 268.758 264.168 269.121 263.852C269.484 263.535 269.666 263.061 269.666 262.428V261.836ZM275.549 258.461C275.678 258.461 275.812 258.469 275.953 258.484C276.094 258.496 276.219 258.514 276.328 258.537L276.205 259.439C276.1 259.412 275.982 259.391 275.854 259.375C275.725 259.359 275.604 259.352 275.49 259.352C275.232 259.352 274.988 259.404 274.758 259.51C274.531 259.611 274.332 259.76 274.16 259.955C273.988 260.146 273.854 260.379 273.756 260.652C273.658 260.922 273.609 261.223 273.609 261.555V265H272.631V258.578H273.439L273.545 259.762H273.586C273.719 259.523 273.879 259.307 274.066 259.111C274.254 258.912 274.471 258.754 274.717 258.637C274.967 258.52 275.244 258.461 275.549 258.461Z" fill="black"/>
<path d="M212.314 286.147C213.327 286.147 214.067 286.355 214.532 286.771C214.998 287.186 215.23 287.768 215.23 288.516C215.23 288.856 215.177 289.18 215.069 289.488C214.965 289.793 214.794 290.063 214.554 290.299C214.314 290.532 213.997 290.716 213.603 290.853C213.213 290.989 212.731 291.057 212.158 291.057H211.32V294H210.031V286.147H212.314ZM212.228 287.216H211.32V289.982H212.024C212.429 289.982 212.772 289.936 213.055 289.843C213.338 289.746 213.553 289.594 213.7 289.386C213.847 289.179 213.92 288.905 213.92 288.564C213.92 288.11 213.782 287.771 213.506 287.549C213.234 287.327 212.808 287.216 212.228 287.216ZM219.006 286.147C219.683 286.147 220.242 286.23 220.682 286.395C221.126 286.559 221.456 286.81 221.67 287.146C221.889 287.483 221.998 287.911 221.998 288.43C221.998 288.817 221.926 289.146 221.783 289.418C221.64 289.691 221.452 289.916 221.219 290.095C220.986 290.274 220.738 290.417 220.473 290.525L222.702 294H221.246L219.35 290.853H218.088V294H216.799V286.147H219.006ZM218.92 287.222H218.088V289.789H218.979C219.577 289.789 220.011 289.678 220.279 289.456C220.551 289.234 220.688 288.906 220.688 288.473C220.688 288.018 220.542 287.696 220.252 287.506C219.966 287.317 219.522 287.222 218.92 287.222ZM230.796 290.063C230.796 290.668 230.719 291.22 230.565 291.717C230.415 292.211 230.187 292.638 229.883 292.996C229.578 293.35 229.197 293.624 228.739 293.817C228.28 294.011 227.743 294.107 227.127 294.107C226.501 294.107 225.957 294.011 225.495 293.817C225.036 293.624 224.655 293.348 224.351 292.99C224.05 292.632 223.824 292.204 223.674 291.707C223.523 291.209 223.448 290.657 223.448 290.052C223.448 289.243 223.581 288.538 223.846 287.936C224.114 287.331 224.521 286.862 225.065 286.529C225.613 286.192 226.304 286.024 227.138 286.024C227.955 286.024 228.633 286.19 229.174 286.523C229.715 286.856 230.119 287.326 230.388 287.931C230.66 288.532 230.796 289.243 230.796 290.063ZM224.802 290.063C224.802 290.668 224.884 291.193 225.049 291.637C225.214 292.077 225.466 292.417 225.806 292.657C226.15 292.894 226.59 293.012 227.127 293.012C227.668 293.012 228.109 292.894 228.449 292.657C228.789 292.417 229.04 292.077 229.201 291.637C229.362 291.193 229.442 290.668 229.442 290.063C229.442 289.143 229.258 288.423 228.889 287.904C228.524 287.381 227.94 287.12 227.138 287.12C226.601 287.12 226.159 287.238 225.812 287.474C225.468 287.71 225.214 288.049 225.049 288.489C224.884 288.926 224.802 289.451 224.802 290.063ZM232.482 286.147H234.819C235.832 286.147 236.597 286.294 237.112 286.588C237.628 286.882 237.886 287.388 237.886 288.108C237.886 288.409 237.832 288.681 237.725 288.924C237.621 289.164 237.469 289.363 237.268 289.521C237.068 289.674 236.82 289.778 236.527 289.832V289.886C236.831 289.939 237.102 290.034 237.338 290.17C237.578 290.306 237.766 290.502 237.902 290.756C238.042 291.01 238.111 291.34 238.111 291.744C238.111 292.224 237.997 292.632 237.768 292.969C237.542 293.305 237.218 293.561 236.795 293.737C236.376 293.912 235.879 294 235.302 294H232.482V286.147ZM233.771 289.386H235.007C235.59 289.386 235.995 289.291 236.221 289.102C236.446 288.912 236.559 288.634 236.559 288.269C236.559 287.897 236.425 287.628 236.156 287.463C235.891 287.299 235.469 287.216 234.889 287.216H233.771V289.386ZM233.771 290.428V292.92H235.13C235.732 292.92 236.154 292.804 236.398 292.571C236.641 292.339 236.763 292.023 236.763 291.626C236.763 291.382 236.708 291.171 236.597 290.992C236.489 290.813 236.312 290.675 236.065 290.579C235.818 290.478 235.485 290.428 235.066 290.428H233.771ZM244.6 294L243.832 291.819H240.829L240.061 294H238.702L241.624 286.115H243.053L245.969 294H244.6ZM243.499 290.713L242.752 288.564C242.723 288.471 242.682 288.341 242.628 288.172C242.575 288 242.521 287.827 242.467 287.651C242.414 287.472 242.369 287.322 242.333 287.2C242.297 287.347 242.252 287.512 242.199 287.694C242.149 287.873 242.098 288.042 242.048 288.199C242.002 288.357 241.966 288.479 241.941 288.564L241.189 290.713H243.499ZM247.006 286.147H249.342C250.356 286.147 251.12 286.294 251.636 286.588C252.151 286.882 252.409 287.388 252.409 288.108C252.409 288.409 252.355 288.681 252.248 288.924C252.144 289.164 251.992 289.363 251.792 289.521C251.591 289.674 251.344 289.778 251.05 289.832V289.886C251.355 289.939 251.625 290.034 251.861 290.17C252.101 290.306 252.289 290.502 252.425 290.756C252.565 291.01 252.635 291.34 252.635 291.744C252.635 292.224 252.52 292.632 252.291 292.969C252.065 293.305 251.741 293.561 251.319 293.737C250.9 293.912 250.402 294 249.826 294H247.006V286.147ZM248.295 289.386H249.53C250.114 289.386 250.519 289.291 250.744 289.102C250.97 288.912 251.083 288.634 251.083 288.269C251.083 287.897 250.948 287.628 250.68 287.463C250.415 287.299 249.992 287.216 249.412 287.216H248.295V289.386ZM248.295 290.428V292.92H249.654C250.255 292.92 250.678 292.804 250.921 292.571C251.165 292.339 251.287 292.023 251.287 291.626C251.287 291.382 251.231 291.171 251.12 290.992C251.013 290.813 250.835 290.675 250.588 290.579C250.341 290.478 250.008 290.428 249.589 290.428H248.295ZM254.257 294V286.147H255.546V292.904H258.881V294H254.257ZM264.688 294H260.24V286.147H264.688V287.232H261.529V289.365H264.489V290.444H261.529V292.91H264.688V294ZM272.588 287.13C272.212 287.13 271.876 287.198 271.579 287.334C271.285 287.471 271.036 287.667 270.832 287.925C270.628 288.18 270.472 288.489 270.365 288.854C270.257 289.216 270.204 289.624 270.204 290.079C270.204 290.688 270.29 291.212 270.461 291.653C270.633 292.09 270.895 292.426 271.246 292.663C271.597 292.895 272.041 293.012 272.578 293.012C272.911 293.012 273.235 292.979 273.55 292.915C273.865 292.851 274.191 292.763 274.527 292.652V293.748C274.209 293.873 273.886 293.964 273.561 294.021C273.235 294.079 272.859 294.107 272.433 294.107C271.631 294.107 270.965 293.941 270.435 293.608C269.908 293.275 269.514 292.806 269.253 292.201C268.995 291.596 268.866 290.887 268.866 290.074C268.866 289.479 268.949 288.935 269.113 288.441C269.278 287.947 269.518 287.521 269.833 287.163C270.148 286.801 270.537 286.523 270.999 286.33C271.464 286.133 271.996 286.035 272.594 286.035C272.988 286.035 273.374 286.079 273.754 286.169C274.137 286.255 274.492 286.378 274.817 286.54L274.366 287.603C274.094 287.474 273.809 287.363 273.512 287.27C273.215 287.177 272.907 287.13 272.588 287.13ZM281.08 294L280.312 291.819H277.31L276.542 294H275.183L278.104 286.115H279.533L282.45 294H281.08ZM279.979 290.713L279.232 288.564C279.204 288.471 279.163 288.341 279.109 288.172C279.055 288 279.001 287.827 278.948 287.651C278.894 287.472 278.849 287.322 278.813 287.2C278.778 287.347 278.733 287.512 278.679 287.694C278.629 287.873 278.579 288.042 278.529 288.199C278.482 288.357 278.446 288.479 278.421 288.564L277.669 290.713H279.979ZM288.02 291.862C288.02 292.328 287.905 292.729 287.676 293.065C287.45 293.402 287.124 293.66 286.698 293.839C286.276 294.018 285.771 294.107 285.184 294.107C284.897 294.107 284.623 294.091 284.362 294.059C284.1 294.027 283.853 293.98 283.621 293.919C283.391 293.855 283.182 293.778 282.992 293.688V292.475C283.311 292.614 283.667 292.741 284.061 292.856C284.455 292.967 284.856 293.022 285.264 293.022C285.597 293.022 285.873 292.979 286.091 292.894C286.313 292.804 286.478 292.679 286.585 292.518C286.693 292.353 286.747 292.161 286.747 291.943C286.747 291.71 286.684 291.513 286.559 291.352C286.433 291.191 286.243 291.044 285.989 290.912C285.739 290.776 285.424 290.631 285.044 290.477C284.786 290.373 284.539 290.255 284.303 290.122C284.07 289.99 283.862 289.834 283.68 289.655C283.497 289.476 283.352 289.264 283.245 289.021C283.141 288.774 283.089 288.484 283.089 288.151C283.089 287.707 283.194 287.327 283.406 287.012C283.621 286.697 283.921 286.455 284.308 286.287C284.698 286.119 285.153 286.035 285.672 286.035C286.084 286.035 286.471 286.078 286.833 286.164C287.198 286.25 287.556 286.371 287.907 286.529L287.499 287.565C287.176 287.433 286.863 287.327 286.559 287.249C286.258 287.17 285.95 287.13 285.635 287.13C285.363 287.13 285.132 287.172 284.942 287.254C284.752 287.336 284.607 287.453 284.507 287.603C284.41 287.75 284.362 287.925 284.362 288.129C284.362 288.359 284.417 288.552 284.528 288.709C284.643 288.863 284.818 289.005 285.055 289.134C285.295 289.263 285.603 289.406 285.979 289.563C286.412 289.743 286.779 289.931 287.08 290.127C287.384 290.324 287.617 290.561 287.778 290.836C287.939 291.109 288.02 291.451 288.02 291.862ZM293.981 294H289.534V286.147H293.981V287.232H290.823V289.365H293.783V290.444H290.823V292.91H293.981V294ZM300.212 291.862C300.212 292.328 300.097 292.729 299.868 293.065C299.643 293.402 299.317 293.66 298.891 293.839C298.468 294.018 297.963 294.107 297.376 294.107C297.09 294.107 296.816 294.091 296.554 294.059C296.293 294.027 296.046 293.98 295.813 293.919C295.584 293.855 295.374 293.778 295.185 293.688V292.475C295.503 292.614 295.86 292.741 296.253 292.856C296.647 292.967 297.048 293.022 297.457 293.022C297.79 293.022 298.065 292.979 298.284 292.894C298.506 292.804 298.67 292.679 298.778 292.518C298.885 292.353 298.939 292.161 298.939 291.943C298.939 291.71 298.876 291.513 298.751 291.352C298.626 291.191 298.436 291.044 298.182 290.912C297.931 290.776 297.616 290.631 297.236 290.477C296.979 290.373 296.731 290.255 296.495 290.122C296.262 289.99 296.055 289.834 295.872 289.655C295.689 289.476 295.544 289.264 295.437 289.021C295.333 288.774 295.281 288.484 295.281 288.151C295.281 287.707 295.387 287.327 295.598 287.012C295.813 286.697 296.114 286.455 296.5 286.287C296.891 286.119 297.346 286.035 297.865 286.035C298.277 286.035 298.663 286.078 299.025 286.164C299.39 286.25 299.748 286.371 300.099 286.529L299.691 287.565C299.369 287.433 299.055 287.327 298.751 287.249C298.45 287.17 298.142 287.13 297.827 287.13C297.555 287.13 297.324 287.172 297.134 287.254C296.944 287.336 296.799 287.453 296.699 287.603C296.603 287.75 296.554 287.925 296.554 288.129C296.554 288.359 296.61 288.552 296.721 288.709C296.835 288.863 297.011 289.005 297.247 289.134C297.487 289.263 297.795 289.406 298.171 289.563C298.604 289.743 298.971 289.931 299.272 290.127C299.576 290.324 299.809 290.561 299.97 290.836C300.131 291.109 300.212 291.451 300.212 291.862Z" fill="#4D4D4D"/>
<rect x="178" y="282" width="22" height="15" rx="3.86" fill="#A2D5D1"/>
<path d="M61.3774 287.13C61.0015 287.13 60.6649 287.198 60.3677 287.334C60.0741 287.471 59.8252 287.667 59.6211 287.925C59.417 288.18 59.2612 288.489 59.1538 288.854C59.0464 289.216 58.9927 289.624 58.9927 290.079C58.9927 290.688 59.0786 291.212 59.2505 291.653C59.4224 292.09 59.6838 292.426 60.0347 292.663C60.3856 292.895 60.8296 293.012 61.3667 293.012C61.6997 293.012 62.0238 292.979 62.3389 292.915C62.654 292.851 62.9798 292.763 63.3164 292.652V293.748C62.9977 293.873 62.6755 293.964 62.3496 294.021C62.0238 294.079 61.6478 294.107 61.2217 294.107C60.4196 294.107 59.7536 293.941 59.2236 293.608C58.6973 293.275 58.3034 292.806 58.042 292.201C57.7842 291.596 57.6553 290.887 57.6553 290.074C57.6553 289.479 57.7376 288.935 57.9023 288.441C58.0671 287.947 58.307 287.521 58.6221 287.163C58.9372 286.801 59.3257 286.523 59.7876 286.33C60.2531 286.133 60.7848 286.035 61.3828 286.035C61.7767 286.035 62.1634 286.079 62.543 286.169C62.9261 286.255 63.2806 286.378 63.6064 286.54L63.1553 287.603C62.8831 287.474 62.5985 287.363 62.3013 287.27C62.0041 287.177 61.6961 287.13 61.3774 287.13ZM71.9746 290.063C71.9746 290.668 71.8976 291.22 71.7437 291.717C71.5933 292.211 71.3659 292.638 71.0615 292.996C70.7572 293.35 70.3758 293.624 69.9175 293.817C69.4591 294.011 68.922 294.107 68.3062 294.107C67.6795 294.107 67.1353 294.011 66.6733 293.817C66.215 293.624 65.8337 293.348 65.5293 292.99C65.2285 292.632 65.0029 292.204 64.8525 291.707C64.7021 291.209 64.627 290.657 64.627 290.052C64.627 289.243 64.7594 288.538 65.0244 287.936C65.293 287.331 65.6994 286.862 66.2437 286.529C66.7915 286.192 67.4826 286.024 68.3169 286.024C69.1333 286.024 69.8118 286.19 70.3525 286.523C70.8932 286.856 71.2979 287.326 71.5664 287.931C71.8385 288.532 71.9746 289.243 71.9746 290.063ZM65.9805 290.063C65.9805 290.668 66.0628 291.193 66.2275 291.637C66.3923 292.077 66.6447 292.417 66.9849 292.657C67.3286 292.894 67.769 293.012 68.3062 293.012C68.8468 293.012 69.2873 292.894 69.6274 292.657C69.9676 292.417 70.2183 292.077 70.3794 291.637C70.5405 291.193 70.6211 290.668 70.6211 290.063C70.6211 289.143 70.4367 288.423 70.0679 287.904C69.7026 287.381 69.119 287.12 68.3169 287.12C67.7798 287.12 67.3376 287.238 66.9902 287.474C66.6465 287.71 66.3923 288.049 66.2275 288.489C66.0628 288.926 65.9805 289.451 65.9805 290.063ZM80.2139 294H78.6294L74.7837 287.732H74.7354C74.7497 287.943 74.7622 288.167 74.7729 288.403C74.7873 288.64 74.798 288.883 74.8052 289.134C74.8159 289.384 74.8249 289.639 74.832 289.896V294H73.6611V286.147H75.2349L79.0752 292.373H79.1128C79.1056 292.19 79.0967 291.98 79.0859 291.744C79.0752 291.508 79.0645 291.264 79.0537 291.014C79.0465 290.759 79.0412 290.514 79.0376 290.278V286.147H80.2139V294ZM83.5547 294H82.2764V286.147H86.7129V287.232H83.5547V289.682H86.5088V290.761H83.5547V294ZM88.1416 294V286.147H89.4307V294H88.1416ZM93.7114 286.147C94.3882 286.147 94.9468 286.23 95.3872 286.395C95.8312 286.559 96.1606 286.81 96.3755 287.146C96.5939 287.483 96.7031 287.911 96.7031 288.43C96.7031 288.817 96.6315 289.146 96.4883 289.418C96.3451 289.691 96.1571 289.916 95.9243 290.095C95.6916 290.274 95.4427 290.417 95.1777 290.525L97.4067 294H95.9512L94.0552 290.853H92.793V294H91.5039V286.147H93.7114ZM93.6255 287.222H92.793V289.789H93.6846C94.2826 289.789 94.7158 289.678 94.9844 289.456C95.2565 289.234 95.3926 288.906 95.3926 288.473C95.3926 288.018 95.2476 287.696 94.9575 287.506C94.6711 287.317 94.2271 287.222 93.6255 287.222ZM101.918 294L99.6572 287.442H99.6089C99.6196 287.589 99.6322 287.789 99.6465 288.043C99.6608 288.298 99.6733 288.57 99.6841 288.86C99.6948 289.15 99.7002 289.427 99.7002 289.692V294H98.5293V286.147H100.339L102.515 292.416H102.547L104.797 286.147H106.602V294H105.372V289.628C105.372 289.388 105.376 289.128 105.383 288.849C105.394 288.57 105.404 288.305 105.415 288.054C105.429 287.804 105.44 287.603 105.447 287.453H105.404L103.057 294H101.918ZM113.117 294H108.67V286.147H113.117V287.232H109.959V289.365H112.918V290.444H109.959V292.91H113.117V294ZM121.19 289.999C121.19 290.883 121.025 291.622 120.696 292.217C120.366 292.808 119.888 293.253 119.262 293.554C118.635 293.851 117.88 294 116.995 294H114.814V286.147H117.231C118.044 286.147 118.746 286.294 119.337 286.588C119.928 286.878 120.384 287.309 120.707 287.882C121.029 288.452 121.19 289.157 121.19 289.999ZM119.847 290.036C119.847 289.392 119.745 288.862 119.541 288.446C119.34 288.031 119.043 287.723 118.649 287.522C118.259 287.318 117.778 287.216 117.205 287.216H116.104V292.92H117.017C117.965 292.92 118.674 292.679 119.144 292.195C119.613 291.712 119.847 290.992 119.847 290.036ZM129.085 287.13C128.709 287.13 128.373 287.198 128.076 287.334C127.782 287.471 127.533 287.667 127.329 287.925C127.125 288.18 126.969 288.489 126.862 288.854C126.754 289.216 126.701 289.624 126.701 290.079C126.701 290.688 126.787 291.212 126.958 291.653C127.13 292.09 127.392 292.426 127.743 292.663C128.094 292.895 128.538 293.012 129.075 293.012C129.408 293.012 129.732 292.979 130.047 292.915C130.362 292.851 130.688 292.763 131.024 292.652V293.748C130.706 293.873 130.383 293.964 130.058 294.021C129.732 294.079 129.356 294.107 128.93 294.107C128.128 294.107 127.462 293.941 126.932 293.608C126.405 293.275 126.011 292.806 125.75 292.201C125.492 291.596 125.363 290.887 125.363 290.074C125.363 289.479 125.446 288.935 125.61 288.441C125.775 287.947 126.015 287.521 126.33 287.163C126.645 286.801 127.034 286.523 127.496 286.33C127.961 286.133 128.493 286.035 129.091 286.035C129.485 286.035 129.871 286.079 130.251 286.169C130.634 286.255 130.989 286.378 131.314 286.54L130.863 287.603C130.591 287.474 130.306 287.363 130.009 287.27C129.712 287.177 129.404 287.13 129.085 287.13ZM137.577 294L136.809 291.819H133.807L133.039 294H131.68L134.602 286.115H136.03L138.947 294H137.577ZM136.476 290.713L135.729 288.564C135.701 288.471 135.66 288.341 135.606 288.172C135.552 288 135.499 287.827 135.445 287.651C135.391 287.472 135.346 287.322 135.311 287.2C135.275 287.347 135.23 287.512 135.176 287.694C135.126 287.873 135.076 288.042 135.026 288.199C134.979 288.357 134.944 288.479 134.918 288.564L134.167 290.713H136.476ZM144.517 291.862C144.517 292.328 144.402 292.729 144.173 293.065C143.947 293.402 143.621 293.66 143.195 293.839C142.773 294.018 142.268 294.107 141.681 294.107C141.394 294.107 141.12 294.091 140.859 294.059C140.597 294.027 140.35 293.98 140.118 293.919C139.889 293.855 139.679 293.778 139.489 293.688V292.475C139.808 292.614 140.164 292.741 140.558 292.856C140.952 292.967 141.353 293.022 141.761 293.022C142.094 293.022 142.37 292.979 142.588 292.894C142.81 292.804 142.975 292.679 143.083 292.518C143.19 292.353 143.244 292.161 143.244 291.943C143.244 291.71 143.181 291.513 143.056 291.352C142.93 291.191 142.741 291.044 142.486 290.912C142.236 290.776 141.921 290.631 141.541 290.477C141.283 290.373 141.036 290.255 140.8 290.122C140.567 289.99 140.359 289.834 140.177 289.655C139.994 289.476 139.849 289.264 139.742 289.021C139.638 288.774 139.586 288.484 139.586 288.151C139.586 287.707 139.692 287.327 139.903 287.012C140.118 286.697 140.418 286.455 140.805 286.287C141.195 286.119 141.65 286.035 142.169 286.035C142.581 286.035 142.968 286.078 143.33 286.164C143.695 286.25 144.053 286.371 144.404 286.529L143.996 287.565C143.673 287.433 143.36 287.327 143.056 287.249C142.755 287.17 142.447 287.13 142.132 287.13C141.86 287.13 141.629 287.172 141.439 287.254C141.249 287.336 141.104 287.453 141.004 287.603C140.907 287.75 140.859 287.925 140.859 288.129C140.859 288.359 140.914 288.552 141.025 288.709C141.14 288.863 141.315 289.005 141.552 289.134C141.792 289.263 142.1 289.406 142.476 289.563C142.909 289.743 143.276 289.931 143.577 290.127C143.881 290.324 144.114 290.561 144.275 290.836C144.436 291.109 144.517 291.451 144.517 291.862ZM150.479 294H146.031V286.147H150.479V287.232H147.32V289.365H150.28V290.444H147.32V292.91H150.479V294ZM156.709 291.862C156.709 292.328 156.594 292.729 156.365 293.065C156.14 293.402 155.814 293.66 155.388 293.839C154.965 294.018 154.46 294.107 153.873 294.107C153.587 294.107 153.313 294.091 153.051 294.059C152.79 294.027 152.543 293.98 152.31 293.919C152.081 293.855 151.871 293.778 151.682 293.688V292.475C152 292.614 152.357 292.741 152.75 292.856C153.144 292.967 153.545 293.022 153.954 293.022C154.287 293.022 154.562 292.979 154.781 292.894C155.003 292.804 155.167 292.679 155.275 292.518C155.382 292.353 155.436 292.161 155.436 291.943C155.436 291.71 155.373 291.513 155.248 291.352C155.123 291.191 154.933 291.044 154.679 290.912C154.428 290.776 154.113 290.631 153.733 290.477C153.476 290.373 153.229 290.255 152.992 290.122C152.759 289.99 152.552 289.834 152.369 289.655C152.187 289.476 152.042 289.264 151.934 289.021C151.83 288.774 151.778 288.484 151.778 288.151C151.778 287.707 151.884 287.327 152.095 287.012C152.31 286.697 152.611 286.455 152.998 286.287C153.388 286.119 153.843 286.035 154.362 286.035C154.774 286.035 155.16 286.078 155.522 286.164C155.887 286.25 156.245 286.371 156.596 286.529L156.188 287.565C155.866 287.433 155.552 287.327 155.248 287.249C154.947 287.17 154.639 287.13 154.324 287.13C154.052 287.13 153.821 287.172 153.631 287.254C153.442 287.336 153.297 287.453 153.196 287.603C153.1 287.75 153.051 287.925 153.051 288.129C153.051 288.359 153.107 288.552 153.218 288.709C153.332 288.863 153.508 289.005 153.744 289.134C153.984 289.263 154.292 289.406 154.668 289.563C155.101 289.743 155.468 289.931 155.769 290.127C156.073 290.324 156.306 290.561 156.467 290.836C156.628 291.109 156.709 291.451 156.709 291.862Z" fill="#4D4D4D"/>
<rect x="26" y="282" width="22" height="15" rx="3.86" fill="#0D6B83"/>
<defs>
<clipPath id="clip0_1058_8">
<rect width="467" height="236" fill="white" transform="translate(28)"/>
</clipPath>
</defs>
</svg>
