<svg width="478" height="280" viewBox="0 0 478 280" fill="none" xmlns="http://www.w3.org/2000/svg">
<path d="M60.3541 7.18433H462.662V7.80847H60.3541V7.18433ZM60.3541 36.1806H462.662V36.7201H60.3541V36.1806ZM60.3541 65.6212H462.662V66.2453H60.3541V65.6212ZM60.3541 94.5222H462.662V95.1464H60.3541V94.5222ZM60.3541 123.518H462.662V124.058H60.3541V123.518ZM60.3541 152.959H462.662V153.583H60.3541V152.959ZM60.3541 181.86H462.662V182.484H60.3541V181.86Z" fill="#DDDDDD"/>
<path d="M462.662 210.846H60.3541V211.385H462.662V210.846Z" fill="black"/>
<path d="M60.1874 199.127L68.3127 199.751L67.4705 200.016L75.5958 191.327L84.1472 179.325C84.3949 179.061 84.6525 178.881 84.9895 178.881H93.3724L101.508 180.585H101.171L109.306 179.516C109.474 179.421 109.643 179.516 109.811 179.516L117.947 183.008C118.036 183.008 118.115 183.104 118.115 183.104L126.835 188.924L135.049 195.909L134.376 195.645H142.511L141.837 195.909L149.972 188.385C150.052 188.3 150.309 188.205 150.478 188.12L158.603 187.051C158.692 186.966 158.851 186.966 158.94 187.051L167.075 188.12C167.154 188.12 167.243 188.215 167.323 188.215L176.043 192.332L174.873 192.512L183.009 184.998C183.256 184.733 183.593 184.638 183.841 184.733L191.976 185.898L191.302 185.982L207.563 176.669L207.226 177.029L215.351 166.022C215.52 165.937 215.599 165.757 215.768 165.757L224.398 161.101L224.23 161.281L232.365 153.671L240.49 146.157L240.153 146.697L248.289 124.673L256.414 101.58C256.493 101.315 256.662 101.135 256.83 101.04L264.965 94.6796L264.718 94.9442L273.348 81.6092L273.269 81.7891L281.394 63.2577L289.609 48.1235C289.688 47.9436 289.777 47.8589 289.946 47.679L298.071 42.4826C298.408 42.3026 298.913 42.3026 299.24 42.4826L307.376 47.679L315.511 52.9601L314.084 53.14L322.804 42.7577C323.052 42.3979 323.478 42.3132 323.805 42.3979C324.142 42.4931 324.558 42.7577 324.647 43.2022L332.772 70.9518L330.761 70.8671L338.896 50.0073C338.975 49.7427 339.233 49.4676 339.481 49.3829L347.616 45.8904C347.864 45.8057 348.2 45.8057 348.458 45.9751C348.795 46.0597 348.963 46.3349 349.043 46.6947L357.178 81.969L357.009 81.6092L365.135 93.1556L363.292 93.3356L372.012 73.6399L371.843 73.9998L379.978 25.9302C380.058 25.5704 380.315 25.2105 380.652 25.1259C380.989 24.946 381.405 24.946 381.742 25.2105L389.867 31.5711C390.036 31.751 390.204 32.0156 390.284 32.3755L398.419 98.3521L398.171 97.8123L406.306 109.359L404.543 109.443L412.668 93.8647L421.299 75.9577L421.219 76.2223L429.345 35.7621C429.424 35.2224 429.85 34.8626 430.266 34.8626C430.682 34.7673 431.108 35.0425 431.356 35.4023L439.491 51.6054C439.571 51.6901 439.571 51.7853 439.571 51.7853L447.696 78.4659L455.831 120.186L455.078 119.381L463.204 121.71C463.788 121.794 464.125 122.429 463.957 123.054C463.788 123.678 463.204 124.038 462.619 123.858L454.494 121.53C454.157 121.445 453.82 121.17 453.741 120.725L445.615 79.101L437.49 52.5156L437.569 52.7802L429.434 36.5771L431.445 36.2172L423.32 76.6774C423.32 76.8573 423.32 76.9419 423.241 77.0372L414.521 94.9442L406.386 110.608C406.217 110.967 405.88 111.147 405.543 111.147C405.207 111.232 404.79 111.063 404.622 110.787L396.497 99.1458C396.417 98.9659 396.249 98.786 396.249 98.6061L388.114 32.6295L388.619 33.4338L380.484 27.0732L382.158 26.3535L374.023 74.3384C373.944 74.4337 373.944 74.603 373.944 74.603L365.224 94.2986C365.056 94.6585 364.719 94.9231 364.382 94.9231C364.045 95.0077 363.629 94.8384 363.381 94.5632L355.246 82.9215C355.166 82.8369 355.077 82.657 355.077 82.477L346.952 47.2027L348.379 48.0071L340.253 51.4996L340.838 50.8752L332.703 71.7349C332.534 72.1794 332.118 72.4546 331.702 72.3594C331.286 72.3594 330.86 72.0948 330.691 71.555L322.566 43.8055L324.409 44.25L315.689 54.6322C315.352 55.0767 314.847 55.172 314.352 54.8968L306.216 49.7004L298.091 44.4193H299.26L291.135 49.7004L291.472 49.2559L283.346 64.2102L275.211 82.7416V82.9215L266.491 96.2566C266.412 96.3412 266.323 96.4365 266.244 96.4365L258.118 102.797L258.455 102.353L250.33 125.445L242.195 147.469C242.115 147.649 242.026 147.829 241.947 147.914L225.686 162.953C225.597 163.048 225.518 163.133 225.439 163.133L216.808 167.789L217.145 167.43L209.02 178.436C208.93 178.521 208.772 178.701 208.683 178.701L192.422 188.014C192.174 188.099 192.006 188.099 191.748 188.099L183.613 186.935L184.455 186.67L176.32 194.184C175.983 194.544 175.567 194.544 175.23 194.364L166.51 190.332L166.758 190.417L158.623 189.252H158.96L150.824 190.417L151.33 190.152L143.195 197.677C143.026 197.857 142.778 197.941 142.521 197.941H134.385C134.138 197.941 133.88 197.846 133.712 197.677L125.666 190.872L117.035 185.051L117.203 185.136L109.068 181.643L109.574 181.738L101.438 182.902H101.101L92.9661 181.199H84.9994L85.9209 180.754L77.1218 193.02L68.9865 201.709C68.8181 201.889 68.4812 202.069 68.1443 201.974L60.0189 201.434C59.4343 201.339 58.929 200.809 59.0082 200.185C59.0875 199.561 59.5929 199.021 60.1775 199.116" fill="#0D6B83"/>
<path d="M36.252 212.705C36.252 213.4 36.1992 214.021 36.0938 214.568C35.9883 215.115 35.8223 215.578 35.5957 215.957C35.3691 216.336 35.0762 216.625 34.7168 216.824C34.3574 217.02 33.9258 217.117 33.4219 217.117C32.7852 217.117 32.2578 216.943 31.8398 216.596C31.4258 216.248 31.1152 215.746 30.9082 215.09C30.7051 214.43 30.6035 213.635 30.6035 212.705C30.6035 211.791 30.6953 211.006 30.8789 210.35C31.0664 209.689 31.3672 209.184 31.7812 208.832C32.1953 208.477 32.7422 208.299 33.4219 208.299C34.0664 208.299 34.5977 208.475 35.0156 208.826C35.4336 209.174 35.7441 209.678 35.9473 210.338C36.1504 210.994 36.252 211.783 36.252 212.705ZM31.582 212.705C31.582 213.502 31.6426 214.166 31.7637 214.697C31.8848 215.229 32.0801 215.627 32.3496 215.893C32.623 216.154 32.9805 216.285 33.4219 216.285C33.8633 216.285 34.2188 216.154 34.4883 215.893C34.7617 215.631 34.959 215.234 35.0801 214.703C35.2051 214.172 35.2676 213.506 35.2676 212.705C35.2676 211.92 35.207 211.264 35.0859 210.736C34.9648 210.205 34.7695 209.807 34.5 209.541C34.2305 209.271 33.8711 209.137 33.4219 209.137C32.9727 209.137 32.6133 209.271 32.3438 209.541C32.0742 209.807 31.8789 210.205 31.7578 210.736C31.6406 211.264 31.582 211.92 31.582 212.705Z" fill="black"/>
<path d="M34.2129 188H33.2637V181.93C33.2637 181.699 33.2637 181.502 33.2637 181.338C33.2676 181.17 33.2715 181.018 33.2754 180.881C33.2832 180.74 33.293 180.598 33.3047 180.453C33.1836 180.578 33.0703 180.686 32.9648 180.775C32.8594 180.861 32.7285 180.969 32.5723 181.098L31.5938 181.883L31.084 181.221L33.4043 179.434H34.2129V188ZM43.1191 183.705C43.1191 184.4 43.0664 185.021 42.9609 185.568C42.8555 186.115 42.6895 186.578 42.4629 186.957C42.2363 187.336 41.9434 187.625 41.584 187.824C41.2246 188.02 40.793 188.117 40.2891 188.117C39.6523 188.117 39.125 187.943 38.707 187.596C38.293 187.248 37.9824 186.746 37.7754 186.09C37.5723 185.43 37.4707 184.635 37.4707 183.705C37.4707 182.791 37.5625 182.006 37.7461 181.35C37.9336 180.689 38.2344 180.184 38.6484 179.832C39.0625 179.477 39.6094 179.299 40.2891 179.299C40.9336 179.299 41.4648 179.475 41.8828 179.826C42.3008 180.174 42.6113 180.678 42.8145 181.338C43.0176 181.994 43.1191 182.783 43.1191 183.705ZM38.4492 183.705C38.4492 184.502 38.5098 185.166 38.6309 185.697C38.752 186.229 38.9473 186.627 39.2168 186.893C39.4902 187.154 39.8477 187.285 40.2891 187.285C40.7305 187.285 41.0859 187.154 41.3555 186.893C41.6289 186.631 41.8262 186.234 41.9473 185.703C42.0723 185.172 42.1348 184.506 42.1348 183.705C42.1348 182.92 42.0742 182.264 41.9531 181.736C41.832 181.205 41.6367 180.807 41.3672 180.541C41.0977 180.271 40.7383 180.137 40.2891 180.137C39.8398 180.137 39.4805 180.271 39.2109 180.541C38.9414 180.807 38.7461 181.205 38.625 181.736C38.5078 182.264 38.4492 182.92 38.4492 183.705ZM49.9863 183.705C49.9863 184.4 49.9336 185.021 49.8281 185.568C49.7227 186.115 49.5566 186.578 49.3301 186.957C49.1035 187.336 48.8105 187.625 48.4512 187.824C48.0918 188.02 47.6602 188.117 47.1562 188.117C46.5195 188.117 45.9922 187.943 45.5742 187.596C45.1602 187.248 44.8496 186.746 44.6426 186.09C44.4395 185.43 44.3379 184.635 44.3379 183.705C44.3379 182.791 44.4297 182.006 44.6133 181.35C44.8008 180.689 45.1016 180.184 45.5156 179.832C45.9297 179.477 46.4766 179.299 47.1562 179.299C47.8008 179.299 48.332 179.475 48.75 179.826C49.168 180.174 49.4785 180.678 49.6816 181.338C49.8848 181.994 49.9863 182.783 49.9863 183.705ZM45.3164 183.705C45.3164 184.502 45.377 185.166 45.498 185.697C45.6191 186.229 45.8145 186.627 46.084 186.893C46.3574 187.154 46.7148 187.285 47.1562 187.285C47.5977 187.285 47.9531 187.154 48.2227 186.893C48.4961 186.631 48.6934 186.234 48.8145 185.703C48.9395 185.172 49.002 184.506 49.002 183.705C49.002 182.92 48.9414 182.264 48.8203 181.736C48.6992 181.205 48.5039 180.807 48.2344 180.541C47.9648 180.271 47.6055 180.137 47.1562 180.137C46.707 180.137 46.3477 180.271 46.0781 180.541C45.8086 180.807 45.6133 181.205 45.4922 181.736C45.375 182.264 45.3164 182.92 45.3164 183.705Z" fill="black"/>
<path d="M36.2051 159H30.5918V158.186L32.8828 155.859C33.3086 155.43 33.666 155.047 33.9551 154.711C34.248 154.375 34.4707 154.045 34.623 153.721C34.7754 153.393 34.8516 153.033 34.8516 152.643C34.8516 152.158 34.707 151.789 34.418 151.535C34.1328 151.277 33.7559 151.148 33.2871 151.148C32.877 151.148 32.5137 151.219 32.1973 151.359C31.8809 151.5 31.5566 151.699 31.2246 151.957L30.7031 151.301C30.9297 151.109 31.1758 150.939 31.4414 150.791C31.7109 150.643 31.998 150.525 32.3027 150.439C32.6113 150.354 32.9395 150.311 33.2871 150.311C33.8145 150.311 34.2695 150.402 34.6523 150.586C35.0352 150.77 35.3301 151.031 35.5371 151.371C35.748 151.711 35.8535 152.115 35.8535 152.584C35.8535 153.037 35.7637 153.459 35.584 153.85C35.4043 154.236 35.1523 154.621 34.8281 155.004C34.5039 155.383 34.125 155.785 33.6914 156.211L31.8281 158.068V158.109H36.2051V159ZM43.1191 154.705C43.1191 155.4 43.0664 156.021 42.9609 156.568C42.8555 157.115 42.6895 157.578 42.4629 157.957C42.2363 158.336 41.9434 158.625 41.584 158.824C41.2246 159.02 40.793 159.117 40.2891 159.117C39.6523 159.117 39.125 158.943 38.707 158.596C38.293 158.248 37.9824 157.746 37.7754 157.09C37.5723 156.43 37.4707 155.635 37.4707 154.705C37.4707 153.791 37.5625 153.006 37.7461 152.35C37.9336 151.689 38.2344 151.184 38.6484 150.832C39.0625 150.477 39.6094 150.299 40.2891 150.299C40.9336 150.299 41.4648 150.475 41.8828 150.826C42.3008 151.174 42.6113 151.678 42.8145 152.338C43.0176 152.994 43.1191 153.783 43.1191 154.705ZM38.4492 154.705C38.4492 155.502 38.5098 156.166 38.6309 156.697C38.752 157.229 38.9473 157.627 39.2168 157.893C39.4902 158.154 39.8477 158.285 40.2891 158.285C40.7305 158.285 41.0859 158.154 41.3555 157.893C41.6289 157.631 41.8262 157.234 41.9473 156.703C42.0723 156.172 42.1348 155.506 42.1348 154.705C42.1348 153.92 42.0742 153.264 41.9531 152.736C41.832 152.205 41.6367 151.807 41.3672 151.541C41.0977 151.271 40.7383 151.137 40.2891 151.137C39.8398 151.137 39.4805 151.271 39.2109 151.541C38.9414 151.807 38.7461 152.205 38.625 152.736C38.5078 153.264 38.4492 153.92 38.4492 154.705ZM49.9863 154.705C49.9863 155.4 49.9336 156.021 49.8281 156.568C49.7227 157.115 49.5566 157.578 49.3301 157.957C49.1035 158.336 48.8105 158.625 48.4512 158.824C48.0918 159.02 47.6602 159.117 47.1562 159.117C46.5195 159.117 45.9922 158.943 45.5742 158.596C45.1602 158.248 44.8496 157.746 44.6426 157.09C44.4395 156.43 44.3379 155.635 44.3379 154.705C44.3379 153.791 44.4297 153.006 44.6133 152.35C44.8008 151.689 45.1016 151.184 45.5156 150.832C45.9297 150.477 46.4766 150.299 47.1562 150.299C47.8008 150.299 48.332 150.475 48.75 150.826C49.168 151.174 49.4785 151.678 49.6816 152.338C49.8848 152.994 49.9863 153.783 49.9863 154.705ZM45.3164 154.705C45.3164 155.502 45.377 156.166 45.498 156.697C45.6191 157.229 45.8145 157.627 46.084 157.893C46.3574 158.154 46.7148 158.285 47.1562 158.285C47.5977 158.285 47.9531 158.154 48.2227 157.893C48.4961 157.631 48.6934 157.234 48.8145 156.703C48.9395 156.172 49.002 155.506 49.002 154.705C49.002 153.92 48.9414 153.264 48.8203 152.736C48.6992 152.205 48.5039 151.807 48.2344 151.541C47.9648 151.271 47.6055 151.137 47.1562 151.137C46.707 151.137 46.3477 151.271 46.0781 151.541C45.8086 151.807 45.6133 152.205 45.4922 152.736C45.375 153.264 45.3164 153.92 45.3164 154.705Z" fill="black"/>
<path d="M35.8887 123.432C35.8887 123.814 35.8145 124.146 35.666 124.428C35.5176 124.709 35.3105 124.939 35.0449 125.119C34.7793 125.295 34.4668 125.418 34.1074 125.488V125.535C34.7871 125.621 35.2969 125.84 35.6367 126.191C35.9805 126.543 36.1523 127.004 36.1523 127.574C36.1523 128.07 36.0352 128.51 35.8008 128.893C35.5703 129.275 35.2148 129.576 34.7344 129.795C34.2578 130.01 33.6465 130.117 32.9004 130.117C32.4473 130.117 32.0273 130.08 31.6406 130.006C31.2578 129.936 30.8906 129.816 30.5391 129.648V128.734C30.8945 128.91 31.2812 129.049 31.6992 129.15C32.1172 129.248 32.5215 129.297 32.9121 129.297C33.6934 129.297 34.2578 129.143 34.6055 128.834C34.9531 128.521 35.127 128.096 35.127 127.557C35.127 127.186 35.0293 126.887 34.834 126.66C34.6426 126.43 34.3652 126.262 34.002 126.156C33.6426 126.047 33.209 125.992 32.7012 125.992H31.8457V125.16H32.707C33.1719 125.16 33.5664 125.092 33.8906 124.955C34.2148 124.818 34.4609 124.627 34.6289 124.381C34.8008 124.131 34.8867 123.836 34.8867 123.496C34.8867 123.062 34.7422 122.729 34.4531 122.494C34.1641 122.256 33.7715 122.137 33.2754 122.137C32.9707 122.137 32.6934 122.168 32.4434 122.23C32.1934 122.293 31.959 122.379 31.7402 122.488C31.5215 122.598 31.3027 122.725 31.084 122.869L30.5918 122.201C30.9043 121.959 31.2852 121.75 31.7344 121.574C32.1836 121.398 32.6934 121.311 33.2637 121.311C34.1387 121.311 34.7949 121.51 35.2324 121.908C35.6699 122.307 35.8887 122.814 35.8887 123.432ZM43.1191 125.705C43.1191 126.4 43.0664 127.021 42.9609 127.568C42.8555 128.115 42.6895 128.578 42.4629 128.957C42.2363 129.336 41.9434 129.625 41.584 129.824C41.2246 130.02 40.793 130.117 40.2891 130.117C39.6523 130.117 39.125 129.943 38.707 129.596C38.293 129.248 37.9824 128.746 37.7754 128.09C37.5723 127.43 37.4707 126.635 37.4707 125.705C37.4707 124.791 37.5625 124.006 37.7461 123.35C37.9336 122.689 38.2344 122.184 38.6484 121.832C39.0625 121.477 39.6094 121.299 40.2891 121.299C40.9336 121.299 41.4648 121.475 41.8828 121.826C42.3008 122.174 42.6113 122.678 42.8145 123.338C43.0176 123.994 43.1191 124.783 43.1191 125.705ZM38.4492 125.705C38.4492 126.502 38.5098 127.166 38.6309 127.697C38.752 128.229 38.9473 128.627 39.2168 128.893C39.4902 129.154 39.8477 129.285 40.2891 129.285C40.7305 129.285 41.0859 129.154 41.3555 128.893C41.6289 128.631 41.8262 128.234 41.9473 127.703C42.0723 127.172 42.1348 126.506 42.1348 125.705C42.1348 124.92 42.0742 124.264 41.9531 123.736C41.832 123.205 41.6367 122.807 41.3672 122.541C41.0977 122.271 40.7383 122.137 40.2891 122.137C39.8398 122.137 39.4805 122.271 39.2109 122.541C38.9414 122.807 38.7461 123.205 38.625 123.736C38.5078 124.264 38.4492 124.92 38.4492 125.705ZM49.9863 125.705C49.9863 126.4 49.9336 127.021 49.8281 127.568C49.7227 128.115 49.5566 128.578 49.3301 128.957C49.1035 129.336 48.8105 129.625 48.4512 129.824C48.0918 130.02 47.6602 130.117 47.1562 130.117C46.5195 130.117 45.9922 129.943 45.5742 129.596C45.1602 129.248 44.8496 128.746 44.6426 128.09C44.4395 127.43 44.3379 126.635 44.3379 125.705C44.3379 124.791 44.4297 124.006 44.6133 123.35C44.8008 122.689 45.1016 122.184 45.5156 121.832C45.9297 121.477 46.4766 121.299 47.1562 121.299C47.8008 121.299 48.332 121.475 48.75 121.826C49.168 122.174 49.4785 122.678 49.6816 123.338C49.8848 123.994 49.9863 124.783 49.9863 125.705ZM45.3164 125.705C45.3164 126.502 45.377 127.166 45.498 127.697C45.6191 128.229 45.8145 128.627 46.084 128.893C46.3574 129.154 46.7148 129.285 47.1562 129.285C47.5977 129.285 47.9531 129.154 48.2227 128.893C48.4961 128.631 48.6934 128.234 48.8145 127.703C48.9395 127.172 49.002 126.506 49.002 125.705C49.002 124.92 48.9414 124.264 48.8203 123.736C48.6992 123.205 48.5039 122.807 48.2344 122.541C47.9648 122.271 47.6055 122.137 47.1562 122.137C46.707 122.137 46.3477 122.271 46.0781 122.541C45.8086 122.807 45.6133 123.205 45.4922 123.736C45.375 124.264 45.3164 124.92 45.3164 125.705Z" fill="black"/>
<path d="M36.6328 98.0137H35.3496V100H34.4004V98.0137H30.2578V97.1934L34.3359 91.3867H35.3496V97.1348H36.6328V98.0137ZM34.4004 97.1348V94.334C34.4004 94.1191 34.4023 93.9258 34.4062 93.7539C34.4102 93.5781 34.416 93.416 34.4238 93.2676C34.4316 93.1152 34.4375 92.9707 34.4414 92.834C34.4492 92.6973 34.4551 92.5625 34.459 92.4297H34.4121C34.3379 92.5859 34.252 92.752 34.1543 92.9277C34.0605 93.0996 33.9648 93.2539 33.8672 93.3906L31.2246 97.1348H34.4004ZM43.1191 95.7051C43.1191 96.4004 43.0664 97.0215 42.9609 97.5684C42.8555 98.1152 42.6895 98.5781 42.4629 98.957C42.2363 99.3359 41.9434 99.625 41.584 99.8242C41.2246 100.02 40.793 100.117 40.2891 100.117C39.6523 100.117 39.125 99.9434 38.707 99.5957C38.293 99.248 37.9824 98.7461 37.7754 98.0898C37.5723 97.4297 37.4707 96.6348 37.4707 95.7051C37.4707 94.791 37.5625 94.0059 37.7461 93.3496C37.9336 92.6895 38.2344 92.1836 38.6484 91.832C39.0625 91.4766 39.6094 91.2988 40.2891 91.2988C40.9336 91.2988 41.4648 91.4746 41.8828 91.8262C42.3008 92.1738 42.6113 92.6777 42.8145 93.3379C43.0176 93.9941 43.1191 94.7832 43.1191 95.7051ZM38.4492 95.7051C38.4492 96.502 38.5098 97.166 38.6309 97.6973C38.752 98.2285 38.9473 98.627 39.2168 98.8926C39.4902 99.1543 39.8477 99.2852 40.2891 99.2852C40.7305 99.2852 41.0859 99.1543 41.3555 98.8926C41.6289 98.6309 41.8262 98.2344 41.9473 97.7031C42.0723 97.1719 42.1348 96.5059 42.1348 95.7051C42.1348 94.9199 42.0742 94.2637 41.9531 93.7363C41.832 93.2051 41.6367 92.8066 41.3672 92.541C41.0977 92.2715 40.7383 92.1367 40.2891 92.1367C39.8398 92.1367 39.4805 92.2715 39.2109 92.541C38.9414 92.8066 38.7461 93.2051 38.625 93.7363C38.5078 94.2637 38.4492 94.9199 38.4492 95.7051ZM49.9863 95.7051C49.9863 96.4004 49.9336 97.0215 49.8281 97.5684C49.7227 98.1152 49.5566 98.5781 49.3301 98.957C49.1035 99.3359 48.8105 99.625 48.4512 99.8242C48.0918 100.02 47.6602 100.117 47.1562 100.117C46.5195 100.117 45.9922 99.9434 45.5742 99.5957C45.1602 99.248 44.8496 98.7461 44.6426 98.0898C44.4395 97.4297 44.3379 96.6348 44.3379 95.7051C44.3379 94.791 44.4297 94.0059 44.6133 93.3496C44.8008 92.6895 45.1016 92.1836 45.5156 91.832C45.9297 91.4766 46.4766 91.2988 47.1562 91.2988C47.8008 91.2988 48.332 91.4746 48.75 91.8262C49.168 92.1738 49.4785 92.6777 49.6816 93.3379C49.8848 93.9941 49.9863 94.7832 49.9863 95.7051ZM45.3164 95.7051C45.3164 96.502 45.377 97.166 45.498 97.6973C45.6191 98.2285 45.8145 98.627 46.084 98.8926C46.3574 99.1543 46.7148 99.2852 47.1562 99.2852C47.5977 99.2852 47.9531 99.1543 48.2227 98.8926C48.4961 98.6309 48.6934 98.2344 48.8145 97.7031C48.9395 97.1719 49.002 96.5059 49.002 95.7051C49.002 94.9199 48.9414 94.2637 48.8203 93.7363C48.6992 93.2051 48.5039 92.8066 48.2344 92.541C47.9648 92.2715 47.6055 92.1367 47.1562 92.1367C46.707 92.1367 46.3477 92.2715 46.0781 92.541C45.8086 92.8066 45.6133 93.2051 45.4922 93.7363C45.375 94.2637 45.3164 94.9199 45.3164 95.7051Z" fill="black"/>
<path d="M33.2637 65.7676C34.166 65.7676 34.875 65.9922 35.3906 66.4414C35.9102 66.8867 36.1699 67.498 36.1699 68.2754C36.1699 69.1621 35.8867 69.8574 35.3203 70.3613C34.7578 70.8652 33.9805 71.1172 32.9883 71.1172C32.0234 71.1172 31.2871 70.9629 30.7793 70.6543V69.7168C31.0527 69.8926 31.3926 70.0312 31.7988 70.1328C32.2051 70.2305 32.6055 70.2793 33 70.2793C33.6875 70.2793 34.2207 70.1172 34.5996 69.793C34.9824 69.4688 35.1738 69 35.1738 68.3867C35.1738 67.1914 34.4414 66.5938 32.9766 66.5938C32.6055 66.5938 32.1094 66.6504 31.4883 66.7637L30.9844 66.4414L31.3066 62.4336H35.5664V63.3301H32.1387L31.9219 65.9023C32.3711 65.8125 32.8184 65.7676 33.2637 65.7676ZM43.1309 66.7051C43.1309 68.1855 42.8965 69.291 42.4277 70.0215C41.9629 70.752 41.25 71.1172 40.2891 71.1172C39.3672 71.1172 38.666 70.7441 38.1855 69.998C37.7051 69.248 37.4648 68.1504 37.4648 66.7051C37.4648 65.2129 37.6973 64.1055 38.1621 63.3828C38.627 62.6602 39.3359 62.2988 40.2891 62.2988C41.2188 62.2988 41.9238 62.6758 42.4043 63.4297C42.8887 64.1836 43.1309 65.2754 43.1309 66.7051ZM38.4492 66.7051C38.4492 67.9512 38.5957 68.8594 38.8887 69.4297C39.1816 69.9961 39.6484 70.2793 40.2891 70.2793C40.9375 70.2793 41.4062 69.9922 41.6953 69.418C41.9883 68.8398 42.1348 67.9355 42.1348 66.7051C42.1348 65.4746 41.9883 64.5742 41.6953 64.0039C41.4062 63.4297 40.9375 63.1426 40.2891 63.1426C39.6484 63.1426 39.1816 63.4258 38.8887 63.9922C38.5957 64.5547 38.4492 65.459 38.4492 66.7051ZM49.998 66.7051C49.998 68.1855 49.7637 69.291 49.2949 70.0215C48.8301 70.752 48.1172 71.1172 47.1562 71.1172C46.2344 71.1172 45.5332 70.7441 45.0527 69.998C44.5723 69.248 44.332 68.1504 44.332 66.7051C44.332 65.2129 44.5645 64.1055 45.0293 63.3828C45.4941 62.6602 46.2031 62.2988 47.1562 62.2988C48.0859 62.2988 48.791 62.6758 49.2715 63.4297C49.7559 64.1836 49.998 65.2754 49.998 66.7051ZM45.3164 66.7051C45.3164 67.9512 45.4629 68.8594 45.7559 69.4297C46.0488 69.9961 46.5156 70.2793 47.1562 70.2793C47.8047 70.2793 48.2734 69.9922 48.5625 69.418C48.8555 68.8398 49.002 67.9355 49.002 66.7051C49.002 65.4746 48.8555 64.5742 48.5625 64.0039C48.2734 63.4297 47.8047 63.1426 47.1562 63.1426C46.5156 63.1426 46.0488 63.4258 45.7559 63.9922C45.4629 64.5547 45.3164 65.459 45.3164 66.7051Z" fill="black"/>
<path d="M30.6797 38.3379C30.6797 37.8223 30.7148 37.3184 30.7852 36.8262C30.8594 36.334 30.9824 35.877 31.1543 35.4551C31.3262 35.0293 31.5605 34.6562 31.8574 34.3359C32.1543 34.0156 32.5234 33.7656 32.9648 33.5859C33.4102 33.4023 33.9434 33.3105 34.5645 33.3105C34.7402 33.3105 34.9297 33.3203 35.1328 33.3398C35.3359 33.3555 35.5039 33.3828 35.6367 33.4219V34.2598C35.4922 34.209 35.3262 34.1719 35.1387 34.1484C34.9551 34.125 34.7695 34.1133 34.582 34.1133C33.8555 34.1133 33.2832 34.2715 32.8652 34.5879C32.4512 34.9043 32.1523 35.334 31.9688 35.877C31.7852 36.416 31.6797 37.0234 31.6523 37.6992H31.7168C31.8379 37.5039 31.9922 37.3281 32.1797 37.1719C32.3672 37.0117 32.5938 36.8848 32.8594 36.791C33.1289 36.6973 33.4414 36.6504 33.7969 36.6504C34.2969 36.6504 34.7324 36.752 35.1035 36.9551C35.4785 37.1582 35.7676 37.4531 35.9707 37.8398C36.1777 38.2266 36.2812 38.6953 36.2812 39.2461C36.2812 39.8359 36.1719 40.3457 35.9531 40.7754C35.7344 41.2051 35.4219 41.5371 35.0156 41.7715C34.6133 42.002 34.1328 42.1172 33.5742 42.1172C33.1562 42.1172 32.7715 42.0371 32.4199 41.877C32.0684 41.7168 31.7617 41.4785 31.5 41.1621C31.2422 40.8457 31.041 40.4531 30.8965 39.9844C30.752 39.5117 30.6797 38.9629 30.6797 38.3379ZM33.5625 41.2969C34.0938 41.2969 34.5195 41.127 34.8398 40.7871C35.1602 40.4473 35.3203 39.9336 35.3203 39.2461C35.3203 38.6836 35.1777 38.2383 34.8926 37.9102C34.6074 37.582 34.1777 37.418 33.6035 37.418C33.2129 37.418 32.873 37.5 32.584 37.6641C32.2949 37.8242 32.0703 38.0273 31.9102 38.2734C31.75 38.5195 31.6699 38.7695 31.6699 39.0234C31.6699 39.2812 31.707 39.543 31.7812 39.8086C31.8594 40.0742 31.9766 40.3203 32.1328 40.5469C32.2891 40.7734 32.4863 40.9551 32.7246 41.0918C32.9629 41.2285 33.2422 41.2969 33.5625 41.2969ZM43.1191 37.7051C43.1191 38.4004 43.0664 39.0215 42.9609 39.5684C42.8555 40.1152 42.6895 40.5781 42.4629 40.957C42.2363 41.3359 41.9434 41.625 41.584 41.8242C41.2246 42.0195 40.793 42.1172 40.2891 42.1172C39.6523 42.1172 39.125 41.9434 38.707 41.5957C38.293 41.248 37.9824 40.7461 37.7754 40.0898C37.5723 39.4297 37.4707 38.6348 37.4707 37.7051C37.4707 36.791 37.5625 36.0059 37.7461 35.3496C37.9336 34.6895 38.2344 34.1836 38.6484 33.832C39.0625 33.4766 39.6094 33.2988 40.2891 33.2988C40.9336 33.2988 41.4648 33.4746 41.8828 33.8262C42.3008 34.1738 42.6113 34.6777 42.8145 35.3379C43.0176 35.9941 43.1191 36.7832 43.1191 37.7051ZM38.4492 37.7051C38.4492 38.502 38.5098 39.166 38.6309 39.6973C38.752 40.2285 38.9473 40.627 39.2168 40.8926C39.4902 41.1543 39.8477 41.2852 40.2891 41.2852C40.7305 41.2852 41.0859 41.1543 41.3555 40.8926C41.6289 40.6309 41.8262 40.2344 41.9473 39.7031C42.0723 39.1719 42.1348 38.5059 42.1348 37.7051C42.1348 36.9199 42.0742 36.2637 41.9531 35.7363C41.832 35.2051 41.6367 34.8066 41.3672 34.541C41.0977 34.2715 40.7383 34.1367 40.2891 34.1367C39.8398 34.1367 39.4805 34.2715 39.2109 34.541C38.9414 34.8066 38.7461 35.2051 38.625 35.7363C38.5078 36.2637 38.4492 36.9199 38.4492 37.7051ZM49.9863 37.7051C49.9863 38.4004 49.9336 39.0215 49.8281 39.5684C49.7227 40.1152 49.5566 40.5781 49.3301 40.957C49.1035 41.3359 48.8105 41.625 48.4512 41.8242C48.0918 42.0195 47.6602 42.1172 47.1562 42.1172C46.5195 42.1172 45.9922 41.9434 45.5742 41.5957C45.1602 41.248 44.8496 40.7461 44.6426 40.0898C44.4395 39.4297 44.3379 38.6348 44.3379 37.7051C44.3379 36.791 44.4297 36.0059 44.6133 35.3496C44.8008 34.6895 45.1016 34.1836 45.5156 33.832C45.9297 33.4766 46.4766 33.2988 47.1562 33.2988C47.8008 33.2988 48.332 33.4746 48.75 33.8262C49.168 34.1738 49.4785 34.6777 49.6816 35.3379C49.8848 35.9941 49.9863 36.7832 49.9863 37.7051ZM45.3164 37.7051C45.3164 38.502 45.377 39.166 45.498 39.6973C45.6191 40.2285 45.8145 40.627 46.084 40.8926C46.3574 41.1543 46.7148 41.2852 47.1562 41.2852C47.5977 41.2852 47.9531 41.1543 48.2227 40.8926C48.4961 40.6309 48.6934 40.2344 48.8145 39.7031C48.9395 39.1719 49.002 38.5059 49.002 37.7051C49.002 36.9199 48.9414 36.2637 48.8203 35.7363C48.6992 35.2051 48.5039 34.8066 48.2344 34.541C47.9648 34.2715 47.6055 34.1367 47.1562 34.1367C46.707 34.1367 46.3477 34.2715 46.0781 34.541C45.8086 34.8066 45.6133 35.2051 45.4922 35.7363C45.375 36.2637 45.3164 36.9199 45.3164 37.7051Z" fill="black"/>
<path d="M31.6992 13L35.2148 5.32422H30.5449V4.43359H36.2578V5.18359L32.7656 13H31.6992ZM43.1191 8.70508C43.1191 9.40039 43.0664 10.0215 42.9609 10.5684C42.8555 11.1152 42.6895 11.5781 42.4629 11.957C42.2363 12.3359 41.9434 12.625 41.584 12.8242C41.2246 13.0195 40.793 13.1172 40.2891 13.1172C39.6523 13.1172 39.125 12.9434 38.707 12.5957C38.293 12.248 37.9824 11.7461 37.7754 11.0898C37.5723 10.4297 37.4707 9.63477 37.4707 8.70508C37.4707 7.79102 37.5625 7.00586 37.7461 6.34961C37.9336 5.68945 38.2344 5.18359 38.6484 4.83203C39.0625 4.47656 39.6094 4.29883 40.2891 4.29883C40.9336 4.29883 41.4648 4.47461 41.8828 4.82617C42.3008 5.17383 42.6113 5.67773 42.8145 6.33789C43.0176 6.99414 43.1191 7.7832 43.1191 8.70508ZM38.4492 8.70508C38.4492 9.50195 38.5098 10.166 38.6309 10.6973C38.752 11.2285 38.9473 11.627 39.2168 11.8926C39.4902 12.1543 39.8477 12.2852 40.2891 12.2852C40.7305 12.2852 41.0859 12.1543 41.3555 11.8926C41.6289 11.6309 41.8262 11.2344 41.9473 10.7031C42.0723 10.1719 42.1348 9.50586 42.1348 8.70508C42.1348 7.91992 42.0742 7.26367 41.9531 6.73633C41.832 6.20508 41.6367 5.80664 41.3672 5.54102C41.0977 5.27148 40.7383 5.13672 40.2891 5.13672C39.8398 5.13672 39.4805 5.27148 39.2109 5.54102C38.9414 5.80664 38.7461 6.20508 38.625 6.73633C38.5078 7.26367 38.4492 7.91992 38.4492 8.70508ZM49.9863 8.70508C49.9863 9.40039 49.9336 10.0215 49.8281 10.5684C49.7227 11.1152 49.5566 11.5781 49.3301 11.957C49.1035 12.3359 48.8105 12.625 48.4512 12.8242C48.0918 13.0195 47.6602 13.1172 47.1562 13.1172C46.5195 13.1172 45.9922 12.9434 45.5742 12.5957C45.1602 12.248 44.8496 11.7461 44.6426 11.0898C44.4395 10.4297 44.3379 9.63477 44.3379 8.70508C44.3379 7.79102 44.4297 7.00586 44.6133 6.34961C44.8008 5.68945 45.1016 5.18359 45.5156 4.83203C45.9297 4.47656 46.4766 4.29883 47.1562 4.29883C47.8008 4.29883 48.332 4.47461 48.75 4.82617C49.168 5.17383 49.4785 5.67773 49.6816 6.33789C49.8848 6.99414 49.9863 7.7832 49.9863 8.70508ZM45.3164 8.70508C45.3164 9.50195 45.377 10.166 45.498 10.6973C45.6191 11.2285 45.8145 11.627 46.084 11.8926C46.3574 12.1543 46.7148 12.2852 47.1562 12.2852C47.5977 12.2852 47.9531 12.1543 48.2227 11.8926C48.4961 11.6309 48.6934 11.2344 48.8145 10.7031C48.9395 10.1719 49.002 9.50586 49.002 8.70508C49.002 7.91992 48.9414 7.26367 48.8203 6.73633C48.6992 6.20508 48.5039 5.80664 48.2344 5.54102C47.9648 5.27148 47.6055 5.13672 47.1562 5.13672C46.707 5.13672 46.3477 5.27148 46.0781 5.54102C45.8086 5.80664 45.6133 6.20508 45.4922 6.73633C45.375 7.26367 45.3164 7.91992 45.3164 8.70508Z" fill="black"/>
<path d="M55.2129 238H54.2637V231.93C54.2637 231.699 54.2637 231.502 54.2637 231.338C54.2676 231.17 54.2715 231.018 54.2754 230.881C54.2832 230.74 54.293 230.598 54.3047 230.453C54.1836 230.578 54.0703 230.686 53.9648 230.775C53.8594 230.861 53.7285 230.969 53.5723 231.098L52.5938 231.883L52.084 231.221L54.4043 229.434H55.2129V238ZM64.084 233.084C64.084 233.604 64.0469 234.109 63.9727 234.602C63.9023 235.094 63.7793 235.553 63.6035 235.979C63.4316 236.404 63.1973 236.777 62.9004 237.098C62.6035 237.418 62.2305 237.67 61.7812 237.854C61.3359 238.033 60.8027 238.123 60.1816 238.123C60.0137 238.123 59.8223 238.111 59.6074 238.088C59.3926 238.068 59.2168 238.039 59.0801 238V237.156C59.2246 237.207 59.3945 237.248 59.5898 237.279C59.7852 237.307 59.9766 237.32 60.1641 237.32C60.8945 237.32 61.4688 237.164 61.8867 236.852C62.3047 236.535 62.6055 236.107 62.7891 235.568C62.9727 235.025 63.0762 234.416 63.0996 233.74H63.0293C62.9121 233.928 62.7578 234.102 62.5664 234.262C62.3789 234.418 62.1504 234.545 61.8809 234.643C61.6113 234.736 61.2969 234.783 60.9375 234.783C60.4414 234.783 60.0078 234.682 59.6367 234.479C59.2695 234.275 58.9824 233.98 58.7754 233.594C58.5723 233.207 58.4707 232.74 58.4707 232.193C58.4707 231.604 58.582 231.094 58.8047 230.664C59.0312 230.23 59.3477 229.896 59.7539 229.662C60.1602 229.428 60.6387 229.311 61.1895 229.311C61.6113 229.311 61.998 229.391 62.3496 229.551C62.7012 229.711 63.0059 229.951 63.2637 230.271C63.5254 230.588 63.7266 230.98 63.8672 231.449C64.0117 231.918 64.084 232.463 64.084 233.084ZM61.1895 230.137C60.6699 230.137 60.248 230.307 59.9238 230.646C59.6035 230.986 59.4434 231.498 59.4434 232.182C59.4434 232.748 59.582 233.195 59.8594 233.523C60.1367 233.852 60.5645 234.016 61.1426 234.016C61.541 234.016 61.8848 233.936 62.1738 233.775C62.4668 233.615 62.6914 233.412 62.8477 233.166C63.0078 232.92 63.0879 232.668 63.0879 232.41C63.0879 232.152 63.0488 231.891 62.9707 231.625C62.8965 231.359 62.7812 231.115 62.625 230.893C62.4688 230.666 62.2715 230.484 62.0332 230.348C61.7949 230.207 61.5137 230.137 61.1895 230.137ZM65.4141 234.338C65.4141 233.822 65.4492 233.318 65.5195 232.826C65.5938 232.334 65.7168 231.877 65.8887 231.455C66.0605 231.029 66.2949 230.656 66.5918 230.336C66.8887 230.016 67.2578 229.766 67.6992 229.586C68.1445 229.402 68.6777 229.311 69.2988 229.311C69.4746 229.311 69.6641 229.32 69.8672 229.34C70.0703 229.355 70.2383 229.383 70.3711 229.422V230.26C70.2266 230.209 70.0605 230.172 69.873 230.148C69.6895 230.125 69.5039 230.113 69.3164 230.113C68.5898 230.113 68.0176 230.271 67.5996 230.588C67.1855 230.904 66.8867 231.334 66.7031 231.877C66.5195 232.416 66.4141 233.023 66.3867 233.699H66.4512C66.5723 233.504 66.7266 233.328 66.9141 233.172C67.1016 233.012 67.3281 232.885 67.5938 232.791C67.8633 232.697 68.1758 232.65 68.5312 232.65C69.0312 232.65 69.4668 232.752 69.8379 232.955C70.2129 233.158 70.502 233.453 70.7051 233.84C70.9121 234.227 71.0156 234.695 71.0156 235.246C71.0156 235.836 70.9062 236.346 70.6875 236.775C70.4688 237.205 70.1562 237.537 69.75 237.771C69.3477 238.002 68.8672 238.117 68.3086 238.117C67.8906 238.117 67.5059 238.037 67.1543 237.877C66.8027 237.717 66.4961 237.479 66.2344 237.162C65.9766 236.846 65.7754 236.453 65.6309 235.984C65.4863 235.512 65.4141 234.963 65.4141 234.338ZM68.2969 237.297C68.8281 237.297 69.2539 237.127 69.5742 236.787C69.8945 236.447 70.0547 235.934 70.0547 235.246C70.0547 234.684 69.9121 234.238 69.627 233.91C69.3418 233.582 68.9121 233.418 68.3379 233.418C67.9473 233.418 67.6074 233.5 67.3184 233.664C67.0293 233.824 66.8047 234.027 66.6445 234.273C66.4844 234.52 66.4043 234.77 66.4043 235.023C66.4043 235.281 66.4414 235.543 66.5156 235.809C66.5938 236.074 66.7109 236.32 66.8672 236.547C67.0234 236.773 67.2207 236.955 67.459 237.092C67.6973 237.229 67.9766 237.297 68.2969 237.297ZM77.8535 233.705C77.8535 234.4 77.8008 235.021 77.6953 235.568C77.5898 236.115 77.4238 236.578 77.1973 236.957C76.9707 237.336 76.6777 237.625 76.3184 237.824C75.959 238.02 75.5273 238.117 75.0234 238.117C74.3867 238.117 73.8594 237.943 73.4414 237.596C73.0273 237.248 72.7168 236.746 72.5098 236.09C72.3066 235.43 72.2051 234.635 72.2051 233.705C72.2051 232.791 72.2969 232.006 72.4805 231.35C72.668 230.689 72.9688 230.184 73.3828 229.832C73.7969 229.477 74.3438 229.299 75.0234 229.299C75.668 229.299 76.1992 229.475 76.6172 229.826C77.0352 230.174 77.3457 230.678 77.5488 231.338C77.752 231.994 77.8535 232.783 77.8535 233.705ZM73.1836 233.705C73.1836 234.502 73.2441 235.166 73.3652 235.697C73.4863 236.229 73.6816 236.627 73.9512 236.893C74.2246 237.154 74.582 237.285 75.0234 237.285C75.4648 237.285 75.8203 237.154 76.0898 236.893C76.3633 236.631 76.5605 236.234 76.6816 235.703C76.8066 235.172 76.8691 234.506 76.8691 233.705C76.8691 232.92 76.8086 232.264 76.6875 231.736C76.5664 231.205 76.3711 230.807 76.1016 230.541C75.832 230.271 75.4727 230.137 75.0234 230.137C74.5742 230.137 74.2148 230.271 73.9453 230.541C73.6758 230.807 73.4805 231.205 73.3594 231.736C73.2422 232.264 73.1836 232.92 73.1836 233.705Z" fill="black"/>
<path d="M136.213 238H135.264V231.93C135.264 231.699 135.264 231.502 135.264 231.338C135.268 231.17 135.271 231.018 135.275 230.881C135.283 230.74 135.293 230.598 135.305 230.453C135.184 230.578 135.07 230.686 134.965 230.775C134.859 230.861 134.729 230.969 134.572 231.098L133.594 231.883L133.084 231.221L135.404 229.434H136.213V238ZM145.084 233.084C145.084 233.604 145.047 234.109 144.973 234.602C144.902 235.094 144.779 235.553 144.604 235.979C144.432 236.404 144.197 236.777 143.9 237.098C143.604 237.418 143.23 237.67 142.781 237.854C142.336 238.033 141.803 238.123 141.182 238.123C141.014 238.123 140.822 238.111 140.607 238.088C140.393 238.068 140.217 238.039 140.08 238V237.156C140.225 237.207 140.395 237.248 140.59 237.279C140.785 237.307 140.977 237.32 141.164 237.32C141.895 237.32 142.469 237.164 142.887 236.852C143.305 236.535 143.605 236.107 143.789 235.568C143.973 235.025 144.076 234.416 144.1 233.74H144.029C143.912 233.928 143.758 234.102 143.566 234.262C143.379 234.418 143.15 234.545 142.881 234.643C142.611 234.736 142.297 234.783 141.938 234.783C141.441 234.783 141.008 234.682 140.637 234.479C140.27 234.275 139.982 233.98 139.775 233.594C139.572 233.207 139.471 232.74 139.471 232.193C139.471 231.604 139.582 231.094 139.805 230.664C140.031 230.23 140.348 229.896 140.754 229.662C141.16 229.428 141.639 229.311 142.189 229.311C142.611 229.311 142.998 229.391 143.35 229.551C143.701 229.711 144.006 229.951 144.264 230.271C144.525 230.588 144.727 230.98 144.867 231.449C145.012 231.918 145.084 232.463 145.084 233.084ZM142.189 230.137C141.67 230.137 141.248 230.307 140.924 230.646C140.604 230.986 140.443 231.498 140.443 232.182C140.443 232.748 140.582 233.195 140.859 233.523C141.137 233.852 141.564 234.016 142.143 234.016C142.541 234.016 142.885 233.936 143.174 233.775C143.467 233.615 143.691 233.412 143.848 233.166C144.008 232.92 144.088 232.668 144.088 232.41C144.088 232.152 144.049 231.891 143.971 231.625C143.896 231.359 143.781 231.115 143.625 230.893C143.469 230.666 143.271 230.484 143.033 230.348C142.795 230.207 142.514 230.137 142.189 230.137ZM147.434 238L150.949 230.324H146.279V229.434H151.992V230.184L148.5 238H147.434ZM158.854 233.705C158.854 234.4 158.801 235.021 158.695 235.568C158.59 236.115 158.424 236.578 158.197 236.957C157.971 237.336 157.678 237.625 157.318 237.824C156.959 238.02 156.527 238.117 156.023 238.117C155.387 238.117 154.859 237.943 154.441 237.596C154.027 237.248 153.717 236.746 153.51 236.09C153.307 235.43 153.205 234.635 153.205 233.705C153.205 232.791 153.297 232.006 153.48 231.35C153.668 230.689 153.969 230.184 154.383 229.832C154.797 229.477 155.344 229.299 156.023 229.299C156.668 229.299 157.199 229.475 157.617 229.826C158.035 230.174 158.346 230.678 158.549 231.338C158.752 231.994 158.854 232.783 158.854 233.705ZM154.184 233.705C154.184 234.502 154.244 235.166 154.365 235.697C154.486 236.229 154.682 236.627 154.951 236.893C155.225 237.154 155.582 237.285 156.023 237.285C156.465 237.285 156.82 237.154 157.09 236.893C157.363 236.631 157.561 236.234 157.682 235.703C157.807 235.172 157.869 234.506 157.869 233.705C157.869 232.92 157.809 232.264 157.688 231.736C157.566 231.205 157.371 230.807 157.102 230.541C156.832 230.271 156.473 230.137 156.023 230.137C155.574 230.137 155.215 230.271 154.945 230.541C154.676 230.807 154.48 231.205 154.359 231.736C154.242 232.264 154.184 232.92 154.184 233.705Z" fill="black"/>
<path d="M218.213 238H217.264V231.93C217.264 231.699 217.264 231.502 217.264 231.338C217.268 231.17 217.271 231.018 217.275 230.881C217.283 230.74 217.293 230.598 217.305 230.453C217.184 230.578 217.07 230.686 216.965 230.775C216.859 230.861 216.729 230.969 216.572 231.098L215.594 231.883L215.084 231.221L217.404 229.434H218.213V238ZM227.084 233.084C227.084 233.604 227.047 234.109 226.973 234.602C226.902 235.094 226.779 235.553 226.604 235.979C226.432 236.404 226.197 236.777 225.9 237.098C225.604 237.418 225.23 237.67 224.781 237.854C224.336 238.033 223.803 238.123 223.182 238.123C223.014 238.123 222.822 238.111 222.607 238.088C222.393 238.068 222.217 238.039 222.08 238V237.156C222.225 237.207 222.395 237.248 222.59 237.279C222.785 237.307 222.977 237.32 223.164 237.32C223.895 237.32 224.469 237.164 224.887 236.852C225.305 236.535 225.605 236.107 225.789 235.568C225.973 235.025 226.076 234.416 226.1 233.74H226.029C225.912 233.928 225.758 234.102 225.566 234.262C225.379 234.418 225.15 234.545 224.881 234.643C224.611 234.736 224.297 234.783 223.938 234.783C223.441 234.783 223.008 234.682 222.637 234.479C222.27 234.275 221.982 233.98 221.775 233.594C221.572 233.207 221.471 232.74 221.471 232.193C221.471 231.604 221.582 231.094 221.805 230.664C222.031 230.23 222.348 229.896 222.754 229.662C223.16 229.428 223.639 229.311 224.189 229.311C224.611 229.311 224.998 229.391 225.35 229.551C225.701 229.711 226.006 229.951 226.264 230.271C226.525 230.588 226.727 230.98 226.867 231.449C227.012 231.918 227.084 232.463 227.084 233.084ZM224.189 230.137C223.67 230.137 223.248 230.307 222.924 230.646C222.604 230.986 222.443 231.498 222.443 232.182C222.443 232.748 222.582 233.195 222.859 233.523C223.137 233.852 223.564 234.016 224.143 234.016C224.541 234.016 224.885 233.936 225.174 233.775C225.467 233.615 225.691 233.412 225.848 233.166C226.008 232.92 226.088 232.668 226.088 232.41C226.088 232.152 226.049 231.891 225.971 231.625C225.896 231.359 225.781 231.115 225.625 230.893C225.469 230.666 225.271 230.484 225.033 230.348C224.795 230.207 224.514 230.137 224.189 230.137ZM231.156 229.311C231.652 229.311 232.092 229.389 232.475 229.545C232.857 229.701 233.156 229.932 233.371 230.236C233.59 230.537 233.699 230.908 233.699 231.35C233.699 231.697 233.623 232.002 233.471 232.264C233.322 232.521 233.121 232.748 232.867 232.943C232.613 233.135 232.332 233.307 232.023 233.459C232.391 233.627 232.721 233.816 233.014 234.027C233.311 234.238 233.545 234.486 233.717 234.771C233.889 235.057 233.975 235.395 233.975 235.785C233.975 236.266 233.857 236.682 233.623 237.033C233.393 237.381 233.068 237.648 232.65 237.836C232.232 238.023 231.742 238.117 231.18 238.117C230.574 238.117 230.059 238.027 229.633 237.848C229.211 237.664 228.889 237.402 228.666 237.062C228.447 236.719 228.338 236.307 228.338 235.826C228.338 235.432 228.422 235.09 228.59 234.801C228.758 234.508 228.98 234.256 229.258 234.045C229.535 233.834 229.838 233.656 230.166 233.512C229.881 233.355 229.619 233.178 229.381 232.979C229.146 232.779 228.959 232.547 228.818 232.281C228.682 232.012 228.613 231.699 228.613 231.344C228.613 230.91 228.723 230.543 228.941 230.242C229.164 229.938 229.467 229.707 229.85 229.551C230.236 229.391 230.672 229.311 231.156 229.311ZM229.293 235.832C229.293 236.27 229.447 236.631 229.756 236.916C230.064 237.197 230.531 237.338 231.156 237.338C231.75 237.338 232.209 237.197 232.533 236.916C232.857 236.631 233.02 236.258 233.02 235.797C233.02 235.512 232.945 235.262 232.797 235.047C232.648 234.828 232.438 234.633 232.164 234.461C231.891 234.289 231.568 234.133 231.197 233.992L230.986 233.916C230.627 234.064 230.32 234.23 230.066 234.414C229.816 234.594 229.625 234.799 229.492 235.029C229.359 235.26 229.293 235.527 229.293 235.832ZM231.145 230.107C230.684 230.107 230.307 230.219 230.014 230.441C229.721 230.66 229.574 230.977 229.574 231.391C229.574 231.688 229.645 231.939 229.785 232.146C229.93 232.35 230.125 232.525 230.371 232.674C230.617 232.818 230.893 232.953 231.197 233.078C231.494 232.953 231.758 232.816 231.988 232.668C232.219 232.516 232.4 232.336 232.533 232.129C232.666 231.922 232.732 231.674 232.732 231.385C232.732 230.971 232.586 230.654 232.293 230.436C232.004 230.217 231.621 230.107 231.145 230.107ZM240.854 233.705C240.854 234.4 240.801 235.021 240.695 235.568C240.59 236.115 240.424 236.578 240.197 236.957C239.971 237.336 239.678 237.625 239.318 237.824C238.959 238.02 238.527 238.117 238.023 238.117C237.387 238.117 236.859 237.943 236.441 237.596C236.027 237.248 235.717 236.746 235.51 236.09C235.307 235.43 235.205 234.635 235.205 233.705C235.205 232.791 235.297 232.006 235.48 231.35C235.668 230.689 235.969 230.184 236.383 229.832C236.797 229.477 237.344 229.299 238.023 229.299C238.668 229.299 239.199 229.475 239.617 229.826C240.035 230.174 240.346 230.678 240.549 231.338C240.752 231.994 240.854 232.783 240.854 233.705ZM236.184 233.705C236.184 234.502 236.244 235.166 236.365 235.697C236.486 236.229 236.682 236.627 236.951 236.893C237.225 237.154 237.582 237.285 238.023 237.285C238.465 237.285 238.82 237.154 239.09 236.893C239.363 236.631 239.561 236.234 239.682 235.703C239.807 235.172 239.869 234.506 239.869 233.705C239.869 232.92 239.809 232.264 239.688 231.736C239.566 231.205 239.371 230.807 239.102 230.541C238.832 230.271 238.473 230.137 238.023 230.137C237.574 230.137 237.215 230.271 236.945 230.541C236.676 230.807 236.48 231.205 236.359 231.736C236.242 232.264 236.184 232.92 236.184 233.705Z" fill="black"/>
<path d="M241.842 267.729L244.121 263.434H245.193L242.34 268.678V272H241.344V268.725L238.484 263.434H239.574L241.842 267.729ZM248.697 265.461C249.244 265.461 249.713 265.582 250.104 265.824C250.494 266.066 250.793 266.406 251 266.844C251.207 267.277 251.311 267.785 251.311 268.367V268.971H246.875C246.887 269.725 247.074 270.299 247.438 270.693C247.801 271.088 248.312 271.285 248.973 271.285C249.379 271.285 249.738 271.248 250.051 271.174C250.363 271.1 250.688 270.99 251.023 270.846V271.701C250.699 271.846 250.377 271.951 250.057 272.018C249.74 272.084 249.365 272.117 248.932 272.117C248.314 272.117 247.775 271.992 247.314 271.742C246.857 271.488 246.502 271.117 246.248 270.629C245.994 270.141 245.867 269.543 245.867 268.836C245.867 268.145 245.982 267.547 246.213 267.043C246.447 266.535 246.775 266.145 247.197 265.871C247.623 265.598 248.123 265.461 248.697 265.461ZM248.686 266.258C248.166 266.258 247.752 266.428 247.443 266.768C247.135 267.107 246.951 267.582 246.893 268.191H250.291C250.287 267.809 250.227 267.473 250.109 267.184C249.996 266.891 249.822 266.664 249.588 266.504C249.354 266.34 249.053 266.258 248.686 266.258ZM255.365 265.473C256.131 265.473 256.699 265.645 257.07 265.988C257.441 266.332 257.627 266.881 257.627 267.635V272H256.918L256.73 271.051H256.684C256.504 271.285 256.316 271.482 256.121 271.643C255.926 271.799 255.699 271.918 255.441 272C255.188 272.078 254.875 272.117 254.504 272.117C254.113 272.117 253.766 272.049 253.461 271.912C253.16 271.775 252.922 271.568 252.746 271.291C252.574 271.014 252.488 270.662 252.488 270.236C252.488 269.596 252.742 269.104 253.25 268.76C253.758 268.416 254.531 268.229 255.57 268.197L256.678 268.15V267.758C256.678 267.203 256.559 266.814 256.32 266.592C256.082 266.369 255.746 266.258 255.312 266.258C254.977 266.258 254.656 266.307 254.352 266.404C254.047 266.502 253.758 266.617 253.484 266.75L253.186 266.012C253.475 265.863 253.807 265.736 254.182 265.631C254.557 265.525 254.951 265.473 255.365 265.473ZM256.666 268.836L255.688 268.877C254.887 268.908 254.322 269.039 253.994 269.27C253.666 269.5 253.502 269.826 253.502 270.248C253.502 270.615 253.613 270.887 253.836 271.062C254.059 271.238 254.354 271.326 254.721 271.326C255.291 271.326 255.758 271.168 256.121 270.852C256.484 270.535 256.666 270.061 256.666 269.428V268.836ZM262.549 265.461C262.678 265.461 262.812 265.469 262.953 265.484C263.094 265.496 263.219 265.514 263.328 265.537L263.205 266.439C263.1 266.412 262.982 266.391 262.854 266.375C262.725 266.359 262.604 266.352 262.49 266.352C262.232 266.352 261.988 266.404 261.758 266.51C261.531 266.611 261.332 266.76 261.16 266.955C260.988 267.146 260.854 267.379 260.756 267.652C260.658 267.922 260.609 268.223 260.609 268.555V272H259.631V265.578H260.439L260.545 266.762H260.586C260.719 266.523 260.879 266.307 261.066 266.111C261.254 265.912 261.471 265.754 261.717 265.637C261.967 265.52 262.244 265.461 262.549 265.461Z" fill="black"/>
<path d="M304.213 238H303.264V231.93C303.264 231.699 303.264 231.502 303.264 231.338C303.268 231.17 303.271 231.018 303.275 230.881C303.283 230.74 303.293 230.598 303.305 230.453C303.184 230.578 303.07 230.686 302.965 230.775C302.859 230.861 302.729 230.969 302.572 231.098L301.594 231.883L301.084 231.221L303.404 229.434H304.213V238ZM313.084 233.084C313.084 233.604 313.047 234.109 312.973 234.602C312.902 235.094 312.779 235.553 312.604 235.979C312.432 236.404 312.197 236.777 311.9 237.098C311.604 237.418 311.23 237.67 310.781 237.854C310.336 238.033 309.803 238.123 309.182 238.123C309.014 238.123 308.822 238.111 308.607 238.088C308.393 238.068 308.217 238.039 308.08 238V237.156C308.225 237.207 308.395 237.248 308.59 237.279C308.785 237.307 308.977 237.32 309.164 237.32C309.895 237.32 310.469 237.164 310.887 236.852C311.305 236.535 311.605 236.107 311.789 235.568C311.973 235.025 312.076 234.416 312.1 233.74H312.029C311.912 233.928 311.758 234.102 311.566 234.262C311.379 234.418 311.15 234.545 310.881 234.643C310.611 234.736 310.297 234.783 309.938 234.783C309.441 234.783 309.008 234.682 308.637 234.479C308.27 234.275 307.982 233.98 307.775 233.594C307.572 233.207 307.471 232.74 307.471 232.193C307.471 231.604 307.582 231.094 307.805 230.664C308.031 230.23 308.348 229.896 308.754 229.662C309.16 229.428 309.639 229.311 310.189 229.311C310.611 229.311 310.998 229.391 311.35 229.551C311.701 229.711 312.006 229.951 312.264 230.271C312.525 230.588 312.727 230.98 312.867 231.449C313.012 231.918 313.084 232.463 313.084 233.084ZM310.189 230.137C309.67 230.137 309.248 230.307 308.924 230.646C308.604 230.986 308.443 231.498 308.443 232.182C308.443 232.748 308.582 233.195 308.859 233.523C309.137 233.852 309.564 234.016 310.143 234.016C310.541 234.016 310.885 233.936 311.174 233.775C311.467 233.615 311.691 233.412 311.848 233.166C312.008 232.92 312.088 232.668 312.088 232.41C312.088 232.152 312.049 231.891 311.971 231.625C311.896 231.359 311.781 231.115 311.625 230.893C311.469 230.666 311.271 230.484 311.033 230.348C310.795 230.207 310.514 230.137 310.189 230.137ZM319.951 233.084C319.951 233.604 319.914 234.109 319.84 234.602C319.77 235.094 319.646 235.553 319.471 235.979C319.299 236.404 319.064 236.777 318.768 237.098C318.471 237.418 318.098 237.67 317.648 237.854C317.203 238.033 316.67 238.123 316.049 238.123C315.881 238.123 315.689 238.111 315.475 238.088C315.26 238.068 315.084 238.039 314.947 238V237.156C315.092 237.207 315.262 237.248 315.457 237.279C315.652 237.307 315.844 237.32 316.031 237.32C316.762 237.32 317.336 237.164 317.754 236.852C318.172 236.535 318.473 236.107 318.656 235.568C318.84 235.025 318.943 234.416 318.967 233.74H318.896C318.779 233.928 318.625 234.102 318.434 234.262C318.246 234.418 318.018 234.545 317.748 234.643C317.479 234.736 317.164 234.783 316.805 234.783C316.309 234.783 315.875 234.682 315.504 234.479C315.137 234.275 314.85 233.98 314.643 233.594C314.439 233.207 314.338 232.74 314.338 232.193C314.338 231.604 314.449 231.094 314.672 230.664C314.898 230.23 315.215 229.896 315.621 229.662C316.027 229.428 316.506 229.311 317.057 229.311C317.479 229.311 317.865 229.391 318.217 229.551C318.568 229.711 318.873 229.951 319.131 230.271C319.393 230.588 319.594 230.98 319.734 231.449C319.879 231.918 319.951 232.463 319.951 233.084ZM317.057 230.137C316.537 230.137 316.115 230.307 315.791 230.646C315.471 230.986 315.311 231.498 315.311 232.182C315.311 232.748 315.449 233.195 315.727 233.523C316.004 233.852 316.432 234.016 317.01 234.016C317.408 234.016 317.752 233.936 318.041 233.775C318.334 233.615 318.559 233.412 318.715 233.166C318.875 232.92 318.955 232.668 318.955 232.41C318.955 232.152 318.916 231.891 318.838 231.625C318.764 231.359 318.648 231.115 318.492 230.893C318.336 230.666 318.139 230.484 317.9 230.348C317.662 230.207 317.381 230.137 317.057 230.137ZM326.854 233.705C326.854 234.4 326.801 235.021 326.695 235.568C326.59 236.115 326.424 236.578 326.197 236.957C325.971 237.336 325.678 237.625 325.318 237.824C324.959 238.02 324.527 238.117 324.023 238.117C323.387 238.117 322.859 237.943 322.441 237.596C322.027 237.248 321.717 236.746 321.51 236.09C321.307 235.43 321.205 234.635 321.205 233.705C321.205 232.791 321.297 232.006 321.48 231.35C321.668 230.689 321.969 230.184 322.383 229.832C322.797 229.477 323.344 229.299 324.023 229.299C324.668 229.299 325.199 229.475 325.617 229.826C326.035 230.174 326.346 230.678 326.549 231.338C326.752 231.994 326.854 232.783 326.854 233.705ZM322.184 233.705C322.184 234.502 322.244 235.166 322.365 235.697C322.486 236.229 322.682 236.627 322.951 236.893C323.225 237.154 323.582 237.285 324.023 237.285C324.465 237.285 324.82 237.154 325.09 236.893C325.363 236.631 325.561 236.234 325.682 235.703C325.807 235.172 325.869 234.506 325.869 233.705C325.869 232.92 325.809 232.264 325.688 231.736C325.566 231.205 325.371 230.807 325.102 230.541C324.832 230.271 324.473 230.137 324.023 230.137C323.574 230.137 323.215 230.271 322.945 230.541C322.676 230.807 322.48 231.205 322.359 231.736C322.242 232.264 322.184 232.92 322.184 233.705Z" fill="black"/>
<path d="M389.205 238H383.592V237.186L385.883 234.859C386.309 234.43 386.666 234.047 386.955 233.711C387.248 233.375 387.471 233.045 387.623 232.721C387.775 232.393 387.852 232.033 387.852 231.643C387.852 231.158 387.707 230.789 387.418 230.535C387.133 230.277 386.756 230.148 386.287 230.148C385.877 230.148 385.514 230.219 385.197 230.359C384.881 230.5 384.557 230.699 384.225 230.957L383.703 230.301C383.93 230.109 384.176 229.939 384.441 229.791C384.711 229.643 384.998 229.525 385.303 229.439C385.611 229.354 385.939 229.311 386.287 229.311C386.814 229.311 387.27 229.402 387.652 229.586C388.035 229.77 388.33 230.031 388.537 230.371C388.748 230.711 388.854 231.115 388.854 231.584C388.854 232.037 388.764 232.459 388.584 232.85C388.404 233.236 388.152 233.621 387.828 234.004C387.504 234.383 387.125 234.785 386.691 235.211L384.828 237.068V237.109H389.205V238ZM396.119 233.705C396.119 234.4 396.066 235.021 395.961 235.568C395.855 236.115 395.689 236.578 395.463 236.957C395.236 237.336 394.943 237.625 394.584 237.824C394.225 238.02 393.793 238.117 393.289 238.117C392.652 238.117 392.125 237.943 391.707 237.596C391.293 237.248 390.982 236.746 390.775 236.09C390.572 235.43 390.471 234.635 390.471 233.705C390.471 232.791 390.562 232.006 390.746 231.35C390.934 230.689 391.234 230.184 391.648 229.832C392.062 229.477 392.609 229.299 393.289 229.299C393.934 229.299 394.465 229.475 394.883 229.826C395.301 230.174 395.611 230.678 395.814 231.338C396.018 231.994 396.119 232.783 396.119 233.705ZM391.449 233.705C391.449 234.502 391.51 235.166 391.631 235.697C391.752 236.229 391.947 236.627 392.217 236.893C392.49 237.154 392.848 237.285 393.289 237.285C393.73 237.285 394.086 237.154 394.355 236.893C394.629 236.631 394.826 236.234 394.947 235.703C395.072 235.172 395.135 234.506 395.135 233.705C395.135 232.92 395.074 232.264 394.953 231.736C394.832 231.205 394.637 230.807 394.367 230.541C394.098 230.271 393.738 230.137 393.289 230.137C392.84 230.137 392.48 230.271 392.211 230.541C391.941 230.807 391.746 231.205 391.625 231.736C391.508 232.264 391.449 232.92 391.449 233.705ZM402.986 233.705C402.986 234.4 402.934 235.021 402.828 235.568C402.723 236.115 402.557 236.578 402.33 236.957C402.104 237.336 401.811 237.625 401.451 237.824C401.092 238.02 400.66 238.117 400.156 238.117C399.52 238.117 398.992 237.943 398.574 237.596C398.16 237.248 397.85 236.746 397.643 236.09C397.439 235.43 397.338 234.635 397.338 233.705C397.338 232.791 397.43 232.006 397.613 231.35C397.801 230.689 398.102 230.184 398.516 229.832C398.93 229.477 399.477 229.299 400.156 229.299C400.801 229.299 401.332 229.475 401.75 229.826C402.168 230.174 402.479 230.678 402.682 231.338C402.885 231.994 402.986 232.783 402.986 233.705ZM398.316 233.705C398.316 234.502 398.377 235.166 398.498 235.697C398.619 236.229 398.814 236.627 399.084 236.893C399.357 237.154 399.715 237.285 400.156 237.285C400.598 237.285 400.953 237.154 401.223 236.893C401.496 236.631 401.693 236.234 401.814 235.703C401.939 235.172 402.002 234.506 402.002 233.705C402.002 232.92 401.941 232.264 401.82 231.736C401.699 231.205 401.504 230.807 401.234 230.541C400.965 230.271 400.605 230.137 400.156 230.137C399.707 230.137 399.348 230.271 399.078 230.541C398.809 230.807 398.613 231.205 398.492 231.736C398.375 232.264 398.316 232.92 398.316 233.705ZM409.854 233.705C409.854 234.4 409.801 235.021 409.695 235.568C409.59 236.115 409.424 236.578 409.197 236.957C408.971 237.336 408.678 237.625 408.318 237.824C407.959 238.02 407.527 238.117 407.023 238.117C406.387 238.117 405.859 237.943 405.441 237.596C405.027 237.248 404.717 236.746 404.51 236.09C404.307 235.43 404.205 234.635 404.205 233.705C404.205 232.791 404.297 232.006 404.48 231.35C404.668 230.689 404.969 230.184 405.383 229.832C405.797 229.477 406.344 229.299 407.023 229.299C407.668 229.299 408.199 229.475 408.617 229.826C409.035 230.174 409.346 230.678 409.549 231.338C409.752 231.994 409.854 232.783 409.854 233.705ZM405.184 233.705C405.184 234.502 405.244 235.166 405.365 235.697C405.486 236.229 405.682 236.627 405.951 236.893C406.225 237.154 406.582 237.285 407.023 237.285C407.465 237.285 407.82 237.154 408.09 236.893C408.363 236.631 408.561 236.234 408.682 235.703C408.807 235.172 408.869 234.506 408.869 233.705C408.869 232.92 408.809 232.264 408.688 231.736C408.566 231.205 408.371 230.807 408.102 230.541C407.832 230.271 407.473 230.137 407.023 230.137C406.574 230.137 406.215 230.271 405.945 230.541C405.676 230.807 405.48 231.205 405.359 231.736C405.242 232.264 405.184 232.92 405.184 233.705Z" fill="black"/>
<path d="M454.205 238H448.592V237.186L450.883 234.859C451.309 234.43 451.666 234.047 451.955 233.711C452.248 233.375 452.471 233.045 452.623 232.721C452.775 232.393 452.852 232.033 452.852 231.643C452.852 231.158 452.707 230.789 452.418 230.535C452.133 230.277 451.756 230.148 451.287 230.148C450.877 230.148 450.514 230.219 450.197 230.359C449.881 230.5 449.557 230.699 449.225 230.957L448.703 230.301C448.93 230.109 449.176 229.939 449.441 229.791C449.711 229.643 449.998 229.525 450.303 229.439C450.611 229.354 450.939 229.311 451.287 229.311C451.814 229.311 452.27 229.402 452.652 229.586C453.035 229.77 453.33 230.031 453.537 230.371C453.748 230.711 453.854 231.115 453.854 231.584C453.854 232.037 453.764 232.459 453.584 232.85C453.404 233.236 453.152 233.621 452.828 234.004C452.504 234.383 452.125 234.785 451.691 235.211L449.828 237.068V237.109H454.205V238ZM461.119 233.705C461.119 234.4 461.066 235.021 460.961 235.568C460.855 236.115 460.689 236.578 460.463 236.957C460.236 237.336 459.943 237.625 459.584 237.824C459.225 238.02 458.793 238.117 458.289 238.117C457.652 238.117 457.125 237.943 456.707 237.596C456.293 237.248 455.982 236.746 455.775 236.09C455.572 235.43 455.471 234.635 455.471 233.705C455.471 232.791 455.562 232.006 455.746 231.35C455.934 230.689 456.234 230.184 456.648 229.832C457.062 229.477 457.609 229.299 458.289 229.299C458.934 229.299 459.465 229.475 459.883 229.826C460.301 230.174 460.611 230.678 460.814 231.338C461.018 231.994 461.119 232.783 461.119 233.705ZM456.449 233.705C456.449 234.502 456.51 235.166 456.631 235.697C456.752 236.229 456.947 236.627 457.217 236.893C457.49 237.154 457.848 237.285 458.289 237.285C458.73 237.285 459.086 237.154 459.355 236.893C459.629 236.631 459.826 236.234 459.947 235.703C460.072 235.172 460.135 234.506 460.135 233.705C460.135 232.92 460.074 232.264 459.953 231.736C459.832 231.205 459.637 230.807 459.367 230.541C459.098 230.271 458.738 230.137 458.289 230.137C457.84 230.137 457.48 230.271 457.211 230.541C456.941 230.807 456.746 231.205 456.625 231.736C456.508 232.264 456.449 232.92 456.449 233.705ZM467.986 233.705C467.986 234.4 467.934 235.021 467.828 235.568C467.723 236.115 467.557 236.578 467.33 236.957C467.104 237.336 466.811 237.625 466.451 237.824C466.092 238.02 465.66 238.117 465.156 238.117C464.52 238.117 463.992 237.943 463.574 237.596C463.16 237.248 462.85 236.746 462.643 236.09C462.439 235.43 462.338 234.635 462.338 233.705C462.338 232.791 462.43 232.006 462.613 231.35C462.801 230.689 463.102 230.184 463.516 229.832C463.93 229.477 464.477 229.299 465.156 229.299C465.801 229.299 466.332 229.475 466.75 229.826C467.168 230.174 467.479 230.678 467.682 231.338C467.885 231.994 467.986 232.783 467.986 233.705ZM463.316 233.705C463.316 234.502 463.377 235.166 463.498 235.697C463.619 236.229 463.814 236.627 464.084 236.893C464.357 237.154 464.715 237.285 465.156 237.285C465.598 237.285 465.953 237.154 466.223 236.893C466.496 236.631 466.693 236.234 466.814 235.703C466.939 235.172 467.002 234.506 467.002 233.705C467.002 232.92 466.941 232.264 466.82 231.736C466.699 231.205 466.504 230.807 466.234 230.541C465.965 230.271 465.605 230.137 465.156 230.137C464.707 230.137 464.348 230.271 464.078 230.541C463.809 230.807 463.613 231.205 463.492 231.736C463.375 232.264 463.316 232.92 463.316 233.705ZM474.818 233.084C474.818 233.604 474.781 234.109 474.707 234.602C474.637 235.094 474.514 235.553 474.338 235.979C474.166 236.404 473.932 236.777 473.635 237.098C473.338 237.418 472.965 237.67 472.516 237.854C472.07 238.033 471.537 238.123 470.916 238.123C470.748 238.123 470.557 238.111 470.342 238.088C470.127 238.068 469.951 238.039 469.814 238V237.156C469.959 237.207 470.129 237.248 470.324 237.279C470.52 237.307 470.711 237.32 470.898 237.32C471.629 237.32 472.203 237.164 472.621 236.852C473.039 236.535 473.34 236.107 473.523 235.568C473.707 235.025 473.811 234.416 473.834 233.74H473.764C473.646 233.928 473.492 234.102 473.301 234.262C473.113 234.418 472.885 234.545 472.615 234.643C472.346 234.736 472.031 234.783 471.672 234.783C471.176 234.783 470.742 234.682 470.371 234.479C470.004 234.275 469.717 233.98 469.51 233.594C469.307 233.207 469.205 232.74 469.205 232.193C469.205 231.604 469.316 231.094 469.539 230.664C469.766 230.23 470.082 229.896 470.488 229.662C470.895 229.428 471.373 229.311 471.924 229.311C472.346 229.311 472.732 229.391 473.084 229.551C473.436 229.711 473.74 229.951 473.998 230.271C474.26 230.588 474.461 230.98 474.602 231.449C474.746 231.918 474.818 232.463 474.818 233.084ZM471.924 230.137C471.404 230.137 470.982 230.307 470.658 230.646C470.338 230.986 470.178 231.498 470.178 232.182C470.178 232.748 470.316 233.195 470.594 233.523C470.871 233.852 471.299 234.016 471.877 234.016C472.275 234.016 472.619 233.936 472.908 233.775C473.201 233.615 473.426 233.412 473.582 233.166C473.742 232.92 473.822 232.668 473.822 232.41C473.822 232.152 473.783 231.891 473.705 231.625C473.631 231.359 473.516 231.115 473.359 230.893C473.203 230.666 473.006 230.484 472.768 230.348C472.529 230.207 472.248 230.137 471.924 230.137Z" fill="black"/>
<path d="M5.18945 141.398C5.18945 141.871 5.27148 142.297 5.43555 142.676C5.5957 143.051 5.83008 143.371 6.13867 143.637C6.44336 143.898 6.8125 144.1 7.24609 144.24C7.67969 144.381 8.16797 144.451 8.71094 144.451C9.42969 144.451 10.0547 144.34 10.5859 144.117C11.1133 143.891 11.5215 143.555 11.8105 143.109C12.0996 142.66 12.2441 142.1 12.2441 141.428C12.2441 141.045 12.2129 140.686 12.1504 140.35C12.084 140.01 12.002 139.68 11.9043 139.359L12.7715 139.359C12.8887 139.672 12.9746 140 13.0293 140.344C13.0879 140.687 13.1172 141.096 13.1172 141.568C13.1172 142.439 12.9375 143.168 12.5781 143.754C12.2148 144.336 11.7031 144.773 11.043 145.066C10.3828 145.355 9.60352 145.5 8.70508 145.5C8.05664 145.5 7.46484 145.41 6.92969 145.23C6.39062 145.047 5.92578 144.781 5.53516 144.434C5.14453 144.082 4.84375 143.652 4.63281 143.145C4.41797 142.633 4.31055 142.047 4.31055 141.387C4.31055 140.953 4.35351 140.535 4.43945 140.133C4.52539 139.73 4.64844 139.367 4.80859 139.043L5.65234 139.441C5.52734 139.715 5.41992 140.016 5.33008 140.344C5.23633 140.668 5.18945 141.02 5.18945 141.398ZM6.47266 135.246C6.47266 134.48 6.64453 133.912 6.98828 133.541C7.33203 133.17 7.88086 132.984 8.63476 132.984L13 132.984L13 133.693L12.0508 133.881L12.0508 133.928C12.2852 134.107 12.4824 134.295 12.6426 134.49C12.7988 134.686 12.918 134.912 13 135.17C13.0781 135.424 13.1172 135.736 13.1172 136.107C13.1172 136.498 13.0488 136.846 12.9121 137.15C12.7754 137.451 12.5684 137.689 12.291 137.865C12.0137 138.037 11.6621 138.123 11.2363 138.123C10.5957 138.123 10.1035 137.869 9.75976 137.361C9.41601 136.854 9.22851 136.08 9.19726 135.041L9.15039 133.934L8.75781 133.934C8.20312 133.934 7.81445 134.053 7.5918 134.291C7.36914 134.529 7.25781 134.865 7.25781 135.299C7.25781 135.635 7.30664 135.955 7.4043 136.26C7.50195 136.564 7.61719 136.854 7.75 137.127L7.01172 137.426C6.86328 137.137 6.73633 136.805 6.63086 136.43C6.52539 136.055 6.47266 135.66 6.47266 135.246ZM9.83594 133.945L9.87695 134.924C9.9082 135.725 10.0391 136.289 10.2695 136.617C10.5 136.945 10.8262 137.109 11.248 137.109C11.6152 137.109 11.8867 136.998 12.0625 136.775C12.2383 136.553 12.3262 136.258 12.3262 135.891C12.3262 135.32 12.168 134.854 11.8516 134.49C11.5352 134.127 11.0605 133.945 10.4277 133.945L9.83594 133.945ZM11.2422 126.826C11.6523 126.826 11.998 126.93 12.2793 127.137C12.5566 127.34 12.7656 127.633 12.9062 128.016C13.0469 128.395 13.1172 128.848 13.1172 129.375C13.1172 129.824 13.082 130.213 13.0117 130.541C12.9414 130.869 12.8418 131.156 12.7129 131.402L11.8164 131.402C11.9453 131.141 12.0625 130.828 12.168 130.465C12.2734 130.102 12.3262 129.73 12.3262 129.352C12.3262 128.797 12.2363 128.395 12.0566 128.145C11.877 127.895 11.6328 127.77 11.3242 127.77C11.1484 127.77 10.9941 127.82 10.8613 127.922C10.7246 128.02 10.5937 128.186 10.4687 128.42C10.3398 128.654 10.1992 128.979 10.0469 129.393C9.89062 129.803 9.73633 130.158 9.58398 130.459C9.42773 130.756 9.23828 130.986 9.01562 131.15C8.79297 131.311 8.50391 131.391 8.14844 131.391C7.60547 131.391 7.18945 131.172 6.90039 130.734C6.60742 130.293 6.46094 129.715 6.46094 129C6.46094 128.613 6.5 128.252 6.57812 127.916C6.65234 127.576 6.7539 127.26 6.88281 126.967L7.66211 127.295C7.54883 127.561 7.45312 127.844 7.375 128.145C7.29687 128.445 7.25781 128.752 7.25781 129.064C7.25781 129.514 7.33203 129.859 7.48047 130.102C7.62891 130.34 7.83203 130.459 8.08984 130.459C8.28906 130.459 8.45312 130.404 8.58203 130.295C8.71094 130.182 8.83203 130.002 8.94531 129.756C9.05859 129.51 9.1914 129.186 9.34375 128.783C9.49219 128.381 9.64648 128.033 9.80664 127.74C9.96289 127.447 10.1543 127.223 10.3809 127.066C10.6035 126.906 10.8906 126.826 11.2422 126.826ZM6.46094 122.789C6.46094 122.242 6.58203 121.773 6.82422 121.383C7.0664 120.992 7.40625 120.693 7.84375 120.486C8.27734 120.279 8.78515 120.176 9.36719 120.176L9.9707 120.176L9.9707 124.611C10.7246 124.6 11.2988 124.412 11.6934 124.049C12.0879 123.686 12.2852 123.174 12.2852 122.514C12.2852 122.107 12.248 121.748 12.1738 121.436C12.0996 121.123 11.9902 120.799 11.8457 120.463L12.7012 120.463C12.8457 120.787 12.9512 121.109 13.0176 121.43C13.084 121.746 13.1172 122.121 13.1172 122.555C13.1172 123.172 12.9922 123.711 12.7422 124.172C12.4883 124.629 12.1172 124.984 11.6289 125.238C11.1406 125.492 10.543 125.619 9.83594 125.619C9.14453 125.619 8.54687 125.504 8.04297 125.273C7.53515 125.039 7.14453 124.711 6.87109 124.289C6.59765 123.863 6.46094 123.363 6.46094 122.789ZM7.25781 122.801C7.25781 123.32 7.42773 123.734 7.76758 124.043C8.10742 124.352 8.58203 124.535 9.1914 124.594L9.1914 121.195C8.80859 121.199 8.47265 121.26 8.18359 121.377C7.89062 121.49 7.66406 121.664 7.5039 121.898C7.33984 122.133 7.25781 122.434 7.25781 122.801ZM11.2422 114.369C11.6523 114.369 11.998 114.473 12.2793 114.68C12.5566 114.883 12.7656 115.176 12.9062 115.559C13.0469 115.937 13.1172 116.391 13.1172 116.918C13.1172 117.367 13.082 117.756 13.0117 118.084C12.9414 118.412 12.8418 118.699 12.7129 118.945L11.8164 118.945C11.9453 118.684 12.0625 118.371 12.168 118.008C12.2734 117.645 12.3262 117.273 12.3262 116.895C12.3262 116.34 12.2363 115.937 12.0566 115.687C11.877 115.437 11.6328 115.312 11.3242 115.312C11.1484 115.312 10.9941 115.363 10.8613 115.465C10.7246 115.562 10.5937 115.729 10.4687 115.963C10.3398 116.197 10.1992 116.521 10.0469 116.936C9.89062 117.346 9.73633 117.701 9.58398 118.002C9.42773 118.299 9.23828 118.529 9.01562 118.693C8.79297 118.854 8.5039 118.934 8.14844 118.934C7.60547 118.934 7.18945 118.715 6.90039 118.277C6.60742 117.836 6.46094 117.258 6.46094 116.543C6.46094 116.156 6.5 115.795 6.57812 115.459C6.65234 115.119 6.7539 114.803 6.88281 114.51L7.66211 114.838C7.54883 115.104 7.45312 115.387 7.375 115.687C7.29687 115.988 7.25781 116.295 7.25781 116.607C7.25781 117.057 7.33203 117.402 7.48047 117.645C7.6289 117.883 7.83203 118.002 8.08984 118.002C8.28906 118.002 8.45312 117.947 8.58203 117.838C8.71094 117.725 8.83203 117.545 8.94531 117.299C9.05859 117.053 9.1914 116.729 9.34375 116.326C9.49219 115.924 9.64648 115.576 9.80664 115.283C9.96289 114.99 10.1543 114.766 10.3809 114.609C10.6035 114.449 10.8906 114.369 11.2422 114.369ZM9.71289 110.232C9.05273 110.232 8.41015 110.17 7.78515 110.045C7.16015 109.916 6.56445 109.721 5.99804 109.459C5.43164 109.197 4.91015 108.867 4.43359 108.469L4.43359 107.537C5.17578 108.104 6 108.529 6.90625 108.814C7.8125 109.1 8.74414 109.242 9.70117 109.242C10.3262 109.242 10.9434 109.18 11.5527 109.055C12.1582 108.926 12.7422 108.736 13.3047 108.486C13.8672 108.232 14.3984 107.92 14.8984 107.549L14.8984 108.469C14.4297 108.867 13.918 109.197 13.3633 109.459C12.8125 109.721 12.2285 109.916 11.6113 110.045C10.9941 110.17 10.3613 110.232 9.71289 110.232ZM9.71289 104.619L6.57812 106.84L6.57812 105.727L9.05078 104.033L6.57812 102.346L6.57812 101.244L9.71289 103.465L13 101.121L13 102.234L10.3809 104.033L13 105.844L13 106.945L9.71289 104.619ZM13 93.5625L13 94.5117L6.92968 94.5117C6.69922 94.5117 6.50195 94.5117 6.33789 94.5117C6.16992 94.5078 6.01758 94.5039 5.88086 94.5C5.74023 94.4922 5.59765 94.4824 5.45312 94.4707C5.57812 94.5918 5.68554 94.7051 5.77539 94.8105C5.86133 94.916 5.96875 95.0469 6.09765 95.2031L6.88281 96.1816L6.2207 96.6914L4.43359 94.3711L4.43359 93.5625L13 93.5625ZM8.70507 84.6562C9.40039 84.6562 10.0215 84.709 10.5684 84.8145C11.1152 84.9199 11.5781 85.0859 11.957 85.3125C12.3359 85.5391 12.625 85.832 12.8242 86.1914C13.0195 86.5508 13.1172 86.9824 13.1172 87.4863C13.1172 88.123 12.9434 88.6504 12.5957 89.0684C12.248 89.4824 11.7461 89.793 11.0898 90C10.4297 90.2031 9.63476 90.3047 8.70508 90.3047C7.79101 90.3047 7.00586 90.2129 6.34961 90.0293C5.68945 89.8418 5.18359 89.541 4.83203 89.127C4.47656 88.7129 4.29883 88.166 4.29883 87.4863C4.29883 86.8418 4.47461 86.3105 4.82617 85.8926C5.17382 85.4746 5.67773 85.1641 6.33789 84.9609C6.99414 84.7578 7.7832 84.6562 8.70507 84.6562ZM8.70508 89.3262C9.50195 89.3262 10.166 89.2656 10.6973 89.1445C11.2285 89.0234 11.627 88.8281 11.8926 88.5586C12.1543 88.2852 12.2852 87.9277 12.2852 87.4863C12.2852 87.0449 12.1543 86.6895 11.8926 86.4199C11.6309 86.1465 11.2344 85.9492 10.7031 85.8281C10.1719 85.7031 9.50586 85.6406 8.70507 85.6406C7.91992 85.6406 7.26367 85.7012 6.73632 85.8223C6.20507 85.9434 5.80664 86.1387 5.54101 86.4082C5.27148 86.6777 5.13672 87.0371 5.13672 87.4863C5.13672 87.9355 5.27148 88.2949 5.54101 88.5645C5.80664 88.834 6.20508 89.0293 6.73633 89.1504C7.26367 89.2676 7.91992 89.3262 8.70508 89.3262ZM8.70507 77.7891C9.40039 77.7891 10.0215 77.8418 10.5684 77.9473C11.1152 78.0527 11.5781 78.2187 11.957 78.4453C12.3359 78.6719 12.625 78.9648 12.8242 79.3242C13.0195 79.6836 13.1172 80.1152 13.1172 80.6191C13.1172 81.2559 12.9434 81.7832 12.5957 82.2012C12.248 82.6152 11.7461 82.9258 11.0898 83.1328C10.4297 83.3359 9.63476 83.4375 8.70507 83.4375C7.79101 83.4375 7.00586 83.3457 6.34961 83.1621C5.68945 82.9746 5.18359 82.6738 4.83203 82.2598C4.47656 81.8457 4.29882 81.2988 4.29882 80.6191C4.29882 79.9746 4.47461 79.4434 4.82617 79.0254C5.17382 78.6074 5.67773 78.2969 6.33789 78.0937C6.99414 77.8906 7.7832 77.7891 8.70507 77.7891ZM8.70507 82.459C9.50195 82.459 10.166 82.3984 10.6973 82.2773C11.2285 82.1562 11.6269 81.9609 11.8926 81.6914C12.1543 81.418 12.2852 81.0605 12.2852 80.6191C12.2852 80.1777 12.1543 79.8223 11.8926 79.5527C11.6309 79.2793 11.2344 79.082 10.7031 78.9609C10.1719 78.8359 9.50586 78.7734 8.70507 78.7734C7.91992 78.7734 7.26367 78.834 6.73632 78.9551C6.20507 79.0762 5.80664 79.2715 5.54101 79.541C5.27148 79.8105 5.13672 80.1699 5.13672 80.6191C5.13672 81.0684 5.27148 81.4277 5.54101 81.6973C5.80664 81.9668 6.20507 82.1621 6.73632 82.2832C7.26367 82.4004 7.91992 82.459 8.70507 82.459ZM8.70507 70.9219C9.40039 70.9219 10.0215 70.9746 10.5684 71.0801C11.1152 71.1855 11.5781 71.3516 11.957 71.5781C12.3359 71.8047 12.625 72.0977 12.8242 72.457C13.0195 72.8164 13.1172 73.248 13.1172 73.752C13.1172 74.3887 12.9434 74.916 12.5957 75.334C12.248 75.748 11.7461 76.0586 11.0898 76.2656C10.4297 76.4687 9.63476 76.5703 8.70507 76.5703C7.79101 76.5703 7.00586 76.4785 6.34961 76.2949C5.68945 76.1074 5.18359 75.8066 4.83203 75.3926C4.47656 74.9785 4.29882 74.4316 4.29882 73.752C4.29882 73.1074 4.47461 72.5762 4.82617 72.1582C5.17382 71.7402 5.67773 71.4297 6.33789 71.2266C6.99414 71.0234 7.7832 70.9219 8.70507 70.9219ZM8.70507 75.5918C9.50195 75.5918 10.166 75.5312 10.6973 75.4102C11.2285 75.2891 11.6269 75.0937 11.8926 74.8242C12.1543 74.5508 12.2852 74.1934 12.2852 73.752C12.2852 73.3105 12.1543 72.9551 11.8926 72.6855C11.6309 72.4121 11.2344 72.2148 10.7031 72.0937C10.1719 71.9687 9.50586 71.9062 8.70507 71.9062C7.91992 71.9062 7.26367 71.9668 6.73632 72.0879C6.20507 72.209 5.80664 72.4043 5.54101 72.6738C5.27148 72.9434 5.13672 73.3027 5.13672 73.752C5.13672 74.2012 5.27148 74.5605 5.54101 74.8301C5.80664 75.0996 6.20507 75.2949 6.73632 75.416C7.26367 75.5332 7.91992 75.5918 8.70507 75.5918ZM9.70117 67.248C10.3535 67.248 10.9902 67.3125 11.6113 67.4414C12.2285 67.5664 12.8144 67.7598 13.3691 68.0215C13.9238 68.2793 14.4336 68.6094 14.8984 69.0117L14.8984 69.9316C14.4023 69.5566 13.8711 69.2441 13.3047 68.9941C12.7383 68.7402 12.1523 68.5508 11.5469 68.4258C10.9375 68.2969 10.3203 68.2324 9.69531 68.2324C9.05859 68.2324 8.43164 68.2969 7.81445 68.4258C7.19726 68.5547 6.60351 68.7461 6.0332 69C5.46289 69.25 4.92968 69.5645 4.43359 69.9434L4.43359 69.0117C4.91406 68.6094 5.4375 68.2793 6.0039 68.0215C6.5664 67.7598 7.16015 67.5664 7.78515 67.4414C8.40625 67.3125 9.04492 67.248 9.70117 67.248Z" fill="black"/>
</svg>
